<svg width="432" height="432" viewBox="0 0 432 432" fill="none" xmlns="http://www.w3.org/2000/svg">
<g clip-path="url(#clip0_77_45)">
<rect width="432" height="432" rx="216" fill="white"/>
<path d="M244.801 0C342.01 51.7263 512.978 236.463 419.176 561.6" stroke="white" stroke-width="28.8" stroke-linecap="round"/>
<path d="M187.201 5.76001C284.41 57.4863 455.378 242.223 361.576 567.36" stroke="white" stroke-width="36" stroke-linecap="round"/>
<path d="M216 -0.00012207C313.209 51.7262 484.177 236.463 390.375 561.6" stroke="black" stroke-width="36" stroke-linecap="round"/>
<path d="M164.16 14.3999C261.369 66.1262 432.337 250.863 338.535 576" stroke="black" stroke-width="36" stroke-linecap="round"/>
<path d="M264.96 -17.28C362.17 34.4463 533.137 219.183 439.336 544.32" stroke="black" stroke-width="36" stroke-linecap="round"/>
<path d="M439.357 55.5715C329.243 55.8618 91.7517 139.261 22.6998 470.539" stroke="white" stroke-width="34.56" stroke-linecap="round"/>
<path d="M487.585 87.587C377.471 87.8773 139.98 171.277 70.9278 502.554" stroke="white" stroke-width="34.56" stroke-linecap="round"/>
<path d="M467.363 70.3795C357.249 70.6697 119.758 154.069 50.7057 485.347" stroke="black" stroke-width="36" stroke-linecap="round"/>
<path d="M503.915 105.995C393.801 106.285 156.309 189.685 87.2574 520.962" stroke="black" stroke-width="36" stroke-linecap="round"/>
<path d="M429.612 30.8724C319.498 31.1627 82.0065 114.562 12.9547 445.84" stroke="black" stroke-width="36" stroke-linecap="round"/>
<path d="M335.038 552.556C202.134 486.716 32.4328 300.773 123.006 -53.2808" stroke="white" stroke-width="34.56" stroke-linecap="round"/>
<path d="M399.368 543.662C288.038 492.59 88.0201 301.932 178.593 -52.1217" stroke="white" stroke-width="34.56" stroke-linecap="round"/>
<path d="M370.562 551.071C259.232 499.999 59.214 309.341 149.787 -44.7124" stroke="black" stroke-width="36" stroke-linecap="round"/>
<path d="M424.816 533.291C313.486 482.219 113.468 291.561 204.041 -62.493" stroke="black" stroke-width="36" stroke-linecap="round"/>
<path d="M313.208 572.084C201.878 521.011 1.85995 330.354 92.4328 -23.7002" stroke="black" stroke-width="36" stroke-linecap="round"/>
<path d="M532.951 133.05C488.16 259.2 336.21 433.998 -4.32007 401.76" stroke="white" stroke-width="34.56" stroke-linecap="round"/>
<path d="M516.717 77.4791C482.992 182.602 330.409 384.788 -10.1216 352.55" stroke="white" stroke-width="34.56" stroke-linecap="round"/>
<path d="M527.174 101.902C493.449 207.024 340.866 409.211 0.335387 376.973" stroke="black" stroke-width="36" stroke-linecap="round"/>
<path d="M503.92 56.4197C470.195 161.542 317.612 363.729 -22.9185 331.491" stroke="black" stroke-width="36" stroke-linecap="round"/>
<path d="M553.817 149.684C520.092 254.807 367.509 456.993 26.9787 424.755" stroke="black" stroke-width="36" stroke-linecap="round"/>
<path d="M579.031 312.876C534.24 439.025 382.291 613.823 41.7603 581.585" stroke="white" stroke-width="34.56" stroke-linecap="round"/>
<path d="M562.797 257.305C529.072 362.428 376.489 564.614 35.9582 532.376" stroke="white" stroke-width="34.56" stroke-linecap="round"/>
<path d="M573.253 281.727C539.528 386.85 386.946 589.036 46.415 556.798" stroke="black" stroke-width="36" stroke-linecap="round"/>
<path d="M550 236.245C516.275 341.368 363.693 543.554 23.1621 511.316" stroke="black" stroke-width="36" stroke-linecap="round"/>
<path d="M599.897 329.509C566.172 434.632 413.589 636.818 73.0583 604.581" stroke="black" stroke-width="36" stroke-linecap="round"/>
</g>
<rect x="18" y="18" width="396" height="396" rx="198" stroke="black" stroke-width="36"/>
<defs>
<clipPath id="clip0_77_45">
<rect width="432" height="432" rx="216" fill="white"/>
</clipPath>
</defs>
</svg>
