<svg width="1395" height="490" viewBox="0 0 1395 490" fill="none" xmlns="http://www.w3.org/2000/svg">
<g clip-path="url(#clip0_28_29)">
<rect y="29" width="432" height="432" rx="216" fill="white"/>
<path d="M244.801 29C342.01 80.7263 512.978 265.463 419.176 590.6" stroke="white" stroke-width="28.8" stroke-linecap="round"/>
<path d="M187.201 34.7599C284.41 86.4863 455.378 271.223 361.576 596.36" stroke="white" stroke-width="36" stroke-linecap="round"/>
<path d="M216 28.9999C313.209 80.7262 484.177 265.463 390.375 590.6" stroke="black" stroke-width="36" stroke-linecap="round"/>
<path d="M164.16 43.4C261.369 95.1263 432.337 279.863 338.535 605" stroke="black" stroke-width="36" stroke-linecap="round"/>
<path d="M264.96 11.72C362.17 63.4463 533.137 248.183 439.336 573.32" stroke="black" stroke-width="36" stroke-linecap="round"/>
<path d="M439.358 84.5715C329.243 84.8617 91.752 168.261 22.7001 499.539" stroke="white" stroke-width="34.56" stroke-linecap="round"/>
<path d="M487.586 116.587C377.471 116.877 139.98 200.277 70.9281 531.554" stroke="white" stroke-width="34.56" stroke-linecap="round"/>
<path d="M467.364 99.3794C357.249 99.6696 119.758 183.069 50.706 514.347" stroke="black" stroke-width="36" stroke-linecap="round"/>
<path d="M503.915 134.994C393.801 135.285 156.31 218.684 87.2577 549.962" stroke="black" stroke-width="36" stroke-linecap="round"/>
<path d="M429.613 59.8723C319.498 60.1625 82.0069 143.562 12.955 474.839" stroke="black" stroke-width="36" stroke-linecap="round"/>
<path d="M335.038 581.556C202.134 515.716 32.4328 329.773 123.006 -24.281" stroke="white" stroke-width="34.56" stroke-linecap="round"/>
<path d="M399.368 572.662C288.038 521.59 88.0201 330.932 178.593 -23.1218" stroke="white" stroke-width="34.56" stroke-linecap="round"/>
<path d="M370.562 580.071C259.232 528.999 59.214 338.341 149.787 -15.7125" stroke="black" stroke-width="36" stroke-linecap="round"/>
<path d="M424.816 562.291C313.486 511.219 113.468 320.561 204.041 -33.493" stroke="black" stroke-width="36" stroke-linecap="round"/>
<path d="M313.208 601.084C201.878 550.011 1.85995 359.354 92.4328 5.2997" stroke="black" stroke-width="36" stroke-linecap="round"/>
<path d="M532.951 162.05C488.16 288.2 336.211 462.998 -4.32001 430.76" stroke="white" stroke-width="34.56" stroke-linecap="round"/>
<path d="M516.717 106.479C482.992 211.602 330.409 413.788 -10.1216 381.55" stroke="white" stroke-width="34.56" stroke-linecap="round"/>
<path d="M527.174 130.902C493.449 236.024 340.866 438.211 0.335449 405.973" stroke="black" stroke-width="36" stroke-linecap="round"/>
<path d="M503.92 85.4197C470.195 190.543 317.612 392.729 -22.9185 360.491" stroke="black" stroke-width="36" stroke-linecap="round"/>
<path d="M553.817 178.684C520.092 283.807 367.509 485.993 26.9788 453.755" stroke="black" stroke-width="36" stroke-linecap="round"/>
<path d="M579.031 341.876C534.24 468.026 382.291 642.823 41.7603 610.586" stroke="white" stroke-width="34.56" stroke-linecap="round"/>
<path d="M562.797 286.305C529.072 391.428 376.489 593.614 35.9583 561.376" stroke="white" stroke-width="34.56" stroke-linecap="round"/>
<path d="M573.253 310.727C539.528 415.85 386.946 618.036 46.415 585.798" stroke="black" stroke-width="36" stroke-linecap="round"/>
<path d="M550 265.245C516.275 370.368 363.693 572.554 23.1621 540.316" stroke="black" stroke-width="36" stroke-linecap="round"/>
<path d="M599.897 358.509C566.172 463.632 413.589 665.818 73.0583 633.581" stroke="black" stroke-width="36" stroke-linecap="round"/>
</g>
<rect x="18" y="47" width="396" height="396" rx="198" stroke="black" stroke-width="36"/>
<mask id="path-28-outside-1_28_29" maskUnits="userSpaceOnUse" x="441" y="60" width="954" height="325" fill="black">
<rect fill="white" x="441" y="60" width="954" height="325"/>
<path d="M605.664 119.208C618.208 119.208 629.744 120.776 640.272 123.912C651.024 126.824 661.888 131.528 672.864 138.024L680.592 131.64C685.968 127.384 690.336 124.472 693.696 122.904C697.28 121.336 701.312 120.552 705.792 120.552C711.168 120.552 715.424 121.784 718.56 124.248C721.696 126.488 723.264 129.848 723.264 134.328C723.264 136.12 722.928 138.024 722.256 140.04L708.144 186.408C706.576 191.784 704.56 195.592 702.096 197.832C699.856 200.072 696.384 201.192 691.68 201.192C686.752 201.192 682.384 199.736 678.576 196.824C674.992 193.688 669.28 187.416 661.44 178.008C653.6 169.048 646.432 162.776 639.936 159.192C633.664 155.384 627.168 153.48 620.448 153.48C615.52 153.48 611.376 155.16 608.016 158.52C604.656 161.656 602.976 165.576 602.976 170.28C602.976 175.656 605.664 180.696 611.04 185.4C616.416 189.88 624.816 195.592 636.24 202.536C647.888 209.48 657.52 215.752 665.136 221.352C672.752 226.952 679.248 233.896 684.624 242.184C690 250.472 692.688 259.992 692.688 270.744C692.688 277.688 691.568 284.632 689.328 291.576C683.952 309.496 673.536 323.16 658.08 332.568C642.624 341.752 624.592 346.344 603.984 346.344C588.528 346.344 575.536 344.552 565.008 340.968C554.48 337.384 543.728 331.336 532.752 322.824L520.656 332.904C515.056 337.608 510.464 340.856 506.88 342.648C503.296 344.216 499.264 345 494.784 345C489.632 345 485.488 343.768 482.352 341.304C479.44 338.84 477.984 335.48 477.984 331.224C477.984 328.984 478.432 326.632 479.328 324.168L495.792 274.104C497.584 268.28 500.048 264.136 503.184 261.672C506.32 259.208 510.352 257.976 515.28 257.976C520.432 257.976 525.024 259.768 529.056 263.352C533.312 266.936 538.8 273.432 545.52 282.84C552.688 293.144 559.296 300.312 565.344 304.344C571.616 308.376 579.008 310.392 587.52 310.392C593.568 310.392 598.16 309.496 601.296 307.704C604.656 305.688 607.008 302.552 608.352 298.296C608.8 297.176 609.024 295.496 609.024 293.256C609.024 287.88 606.448 282.952 601.296 278.472C596.144 273.992 588.192 268.616 577.44 262.344C566.016 255.4 556.72 249.24 549.552 243.864C542.384 238.264 536.112 231.32 530.736 223.032C525.584 214.744 523.008 205 523.008 193.8C523.008 185.96 524.24 178.232 526.704 170.616C531.408 155.16 541.04 142.728 555.6 133.32C570.16 123.912 586.848 119.208 605.664 119.208ZM795.32 96.696C808.312 96.696 817.832 99.16 823.88 104.088C830.152 109.016 833.288 115.736 833.288 124.248C833.288 129.176 832.504 133.992 830.936 138.696L778.184 310.056C777.512 312.744 777.176 315.096 777.176 317.112C777.176 320.024 777.736 322.376 778.856 324.168C779.976 325.736 781.544 327.304 783.56 328.872C785.128 330.44 786.248 331.784 786.92 332.904C787.592 333.8 787.704 335.032 787.256 336.6C786.136 339.512 783.896 341.64 780.536 342.984C777.176 344.328 772.024 345 765.08 345H688.472C682.648 345 678.392 344.104 675.704 342.312C673.016 340.296 672.12 337.72 673.016 334.584C673.912 331.896 676.264 329.544 680.072 327.528C683.432 325.736 686.232 323.608 688.472 321.144C690.712 318.68 692.616 314.76 694.184 309.384L745.256 141.72C745.928 139.704 746.264 138.024 746.264 136.68C746.264 134.216 745.592 132.2 744.248 130.632C743.128 129.064 741.56 127.496 739.544 125.928C737.304 124.136 735.624 122.568 734.504 121.224C733.608 119.88 733.496 118.088 734.168 115.848C735.512 110.696 742.568 106.216 755.336 102.408C768.104 98.6 781.432 96.696 795.32 96.696ZM901.567 165.576C930.015 165.576 950.623 170.168 963.391 179.352C976.159 188.312 982.543 199.848 982.543 213.96C982.543 218.216 982.095 222.136 981.199 225.72C977.839 240.504 968.431 251.144 952.975 257.64C937.743 263.912 919.711 267.048 898.879 267.048C888.351 267.048 878.495 266.376 869.311 265.032C869.087 276.68 872.223 284.856 878.719 289.56C885.215 294.264 894.287 296.616 905.935 296.616C911.311 296.616 916.463 296.056 921.391 294.936C926.319 293.592 932.591 291.688 940.207 289.224C946.479 286.984 950.735 285.864 952.975 285.864C955.439 285.864 956.671 287.32 956.671 290.232C956.895 298.072 953.983 306.36 947.935 315.096C941.887 323.608 932.927 330.888 921.055 336.936C909.183 342.984 894.847 346.008 878.047 346.008C853.183 346.008 832.799 339.736 816.895 327.192C800.991 314.648 793.039 296.392 793.039 272.424C793.039 265.704 793.935 257.864 795.727 248.904C801.327 221.352 813.535 200.632 832.351 186.744C851.391 172.632 874.463 165.576 901.567 165.576ZM871.663 244.872C872.559 245.096 873.791 245.208 875.359 245.208C884.767 245.208 891.935 240.84 896.863 232.104C901.791 223.368 904.143 213.624 903.919 202.872C903.695 196.6 901.903 193.464 898.543 193.464C896.079 193.464 893.167 195.48 889.807 199.512C886.447 203.32 883.087 209.144 879.727 216.984C876.591 224.824 873.903 234.12 871.663 244.872ZM1066.06 165.576C1094.51 165.576 1115.12 170.168 1127.89 179.352C1140.65 188.312 1147.04 199.848 1147.04 213.96C1147.04 218.216 1146.59 222.136 1145.69 225.72C1142.33 240.504 1132.93 251.144 1117.47 257.64C1102.24 263.912 1084.21 267.048 1063.37 267.048C1052.85 267.048 1042.99 266.376 1033.81 265.032C1033.58 276.68 1036.72 284.856 1043.21 289.56C1049.71 294.264 1058.78 296.616 1070.43 296.616C1075.81 296.616 1080.96 296.056 1085.89 294.936C1090.81 293.592 1097.09 291.688 1104.7 289.224C1110.97 286.984 1115.23 285.864 1117.47 285.864C1119.93 285.864 1121.17 287.32 1121.17 290.232C1121.39 298.072 1118.48 306.36 1112.43 315.096C1106.38 323.608 1097.42 330.888 1085.55 336.936C1073.68 342.984 1059.34 346.008 1042.54 346.008C1017.68 346.008 997.295 339.736 981.391 327.192C965.487 314.648 957.535 296.392 957.535 272.424C957.535 265.704 958.431 257.864 960.223 248.904C965.823 221.352 978.031 200.632 996.847 186.744C1015.89 172.632 1038.96 165.576 1066.06 165.576ZM1036.16 244.872C1037.05 245.096 1038.29 245.208 1039.85 245.208C1049.26 245.208 1056.43 240.84 1061.36 232.104C1066.29 223.368 1068.64 213.624 1068.41 202.872C1068.19 196.6 1066.4 193.464 1063.04 193.464C1060.57 193.464 1057.66 195.48 1054.3 199.512C1050.94 203.32 1047.58 209.144 1044.22 216.984C1041.09 224.824 1038.4 234.12 1036.16 244.872ZM1315.9 167.256C1328.67 167.256 1338.86 170.84 1346.48 178.008C1354.32 184.952 1358.24 193.464 1358.24 203.544C1358.24 214.296 1354.99 222.696 1348.49 228.744C1342 234.792 1333.49 237.816 1322.96 237.816C1313.55 237.816 1306.27 235.464 1301.12 230.76C1295.97 225.832 1293.5 220.344 1293.73 214.296C1291.49 213.848 1289.58 214.744 1288.01 216.984C1286.45 219.224 1284.77 223.592 1282.97 230.088C1281.85 234.344 1279.73 238.264 1276.59 241.848C1291.82 242.968 1303.13 246.44 1310.53 252.264C1317.92 258.088 1321.61 265.592 1321.61 274.776C1321.61 279.256 1320.83 283.736 1319.26 288.216L1316.57 298.632C1316.13 299.752 1315.9 301.208 1315.9 303C1315.9 306.136 1317.36 307.704 1320.27 307.704C1322.96 307.704 1325.2 306.584 1326.99 304.344C1329.01 301.88 1330.35 300.648 1331.02 300.648C1332.14 300.648 1333.04 301.432 1333.71 303C1334.38 304.344 1334.72 306.024 1334.72 308.04C1334.94 314.536 1332.93 320.92 1328.67 327.192C1324.64 333.24 1318.37 338.28 1309.85 342.312C1301.57 346.12 1291.49 348.024 1279.61 348.024C1265.28 348.024 1253.29 344.44 1243.66 337.272C1234.25 330.104 1229.55 320.696 1229.55 309.048C1229.55 304.792 1230.45 299.976 1232.24 294.6L1238.62 277.8C1239.74 273.768 1240.3 270.856 1240.3 269.064C1240.3 266.152 1239.29 264.024 1237.28 262.68C1235.49 261.336 1232.57 260.664 1228.54 260.664H1221.82L1206.7 310.056C1206.03 312.744 1205.69 315.096 1205.69 317.112C1205.69 320.024 1206.25 322.376 1207.37 324.168C1208.49 325.736 1210.06 327.304 1212.08 328.872C1213.65 330.44 1214.77 331.784 1215.44 332.904C1216.11 333.8 1216.22 335.032 1215.77 336.6C1214.65 339.512 1212.41 341.64 1209.05 342.984C1205.69 344.328 1200.54 345 1193.6 345H1116.99C1111.17 345 1106.91 344.104 1104.22 342.312C1101.53 340.296 1100.64 337.72 1101.53 334.584C1102.43 331.896 1104.78 329.544 1108.59 327.528C1111.95 325.736 1114.75 323.608 1116.99 321.144C1119.23 318.68 1121.13 314.76 1122.7 309.384L1173.77 141.72C1174.45 139.704 1174.78 138.024 1174.78 136.68C1174.78 134.216 1174.11 132.2 1172.77 130.632C1171.65 129.064 1170.08 127.496 1168.06 125.928C1165.82 124.136 1164.14 122.568 1163.02 121.224C1162.13 119.88 1162.01 118.088 1162.69 115.848C1164.03 110.696 1171.09 106.216 1183.85 102.408C1196.62 98.6 1209.95 96.696 1223.84 96.696C1236.83 96.696 1246.35 99.16 1252.4 104.088C1258.45 108.792 1261.47 115.4 1261.47 123.912C1261.47 129.064 1260.69 133.992 1259.12 138.696L1229.89 234.12H1240.97C1245.45 234.12 1249.04 232.776 1251.73 230.088C1254.64 227.4 1256.88 223.48 1258.45 218.328C1264.05 201.752 1271.33 189.096 1280.29 180.36C1289.25 171.624 1301.12 167.256 1315.9 167.256Z"/>
</mask>
<path d="M605.664 119.208C618.208 119.208 629.744 120.776 640.272 123.912C651.024 126.824 661.888 131.528 672.864 138.024L680.592 131.64C685.968 127.384 690.336 124.472 693.696 122.904C697.28 121.336 701.312 120.552 705.792 120.552C711.168 120.552 715.424 121.784 718.56 124.248C721.696 126.488 723.264 129.848 723.264 134.328C723.264 136.12 722.928 138.024 722.256 140.04L708.144 186.408C706.576 191.784 704.56 195.592 702.096 197.832C699.856 200.072 696.384 201.192 691.68 201.192C686.752 201.192 682.384 199.736 678.576 196.824C674.992 193.688 669.28 187.416 661.44 178.008C653.6 169.048 646.432 162.776 639.936 159.192C633.664 155.384 627.168 153.48 620.448 153.48C615.52 153.48 611.376 155.16 608.016 158.52C604.656 161.656 602.976 165.576 602.976 170.28C602.976 175.656 605.664 180.696 611.04 185.4C616.416 189.88 624.816 195.592 636.24 202.536C647.888 209.48 657.52 215.752 665.136 221.352C672.752 226.952 679.248 233.896 684.624 242.184C690 250.472 692.688 259.992 692.688 270.744C692.688 277.688 691.568 284.632 689.328 291.576C683.952 309.496 673.536 323.16 658.08 332.568C642.624 341.752 624.592 346.344 603.984 346.344C588.528 346.344 575.536 344.552 565.008 340.968C554.48 337.384 543.728 331.336 532.752 322.824L520.656 332.904C515.056 337.608 510.464 340.856 506.88 342.648C503.296 344.216 499.264 345 494.784 345C489.632 345 485.488 343.768 482.352 341.304C479.44 338.84 477.984 335.48 477.984 331.224C477.984 328.984 478.432 326.632 479.328 324.168L495.792 274.104C497.584 268.28 500.048 264.136 503.184 261.672C506.32 259.208 510.352 257.976 515.28 257.976C520.432 257.976 525.024 259.768 529.056 263.352C533.312 266.936 538.8 273.432 545.52 282.84C552.688 293.144 559.296 300.312 565.344 304.344C571.616 308.376 579.008 310.392 587.52 310.392C593.568 310.392 598.16 309.496 601.296 307.704C604.656 305.688 607.008 302.552 608.352 298.296C608.8 297.176 609.024 295.496 609.024 293.256C609.024 287.88 606.448 282.952 601.296 278.472C596.144 273.992 588.192 268.616 577.44 262.344C566.016 255.4 556.72 249.24 549.552 243.864C542.384 238.264 536.112 231.32 530.736 223.032C525.584 214.744 523.008 205 523.008 193.8C523.008 185.96 524.24 178.232 526.704 170.616C531.408 155.16 541.04 142.728 555.6 133.32C570.16 123.912 586.848 119.208 605.664 119.208ZM795.32 96.696C808.312 96.696 817.832 99.16 823.88 104.088C830.152 109.016 833.288 115.736 833.288 124.248C833.288 129.176 832.504 133.992 830.936 138.696L778.184 310.056C777.512 312.744 777.176 315.096 777.176 317.112C777.176 320.024 777.736 322.376 778.856 324.168C779.976 325.736 781.544 327.304 783.56 328.872C785.128 330.44 786.248 331.784 786.92 332.904C787.592 333.8 787.704 335.032 787.256 336.6C786.136 339.512 783.896 341.64 780.536 342.984C777.176 344.328 772.024 345 765.08 345H688.472C682.648 345 678.392 344.104 675.704 342.312C673.016 340.296 672.12 337.72 673.016 334.584C673.912 331.896 676.264 329.544 680.072 327.528C683.432 325.736 686.232 323.608 688.472 321.144C690.712 318.68 692.616 314.76 694.184 309.384L745.256 141.72C745.928 139.704 746.264 138.024 746.264 136.68C746.264 134.216 745.592 132.2 744.248 130.632C743.128 129.064 741.56 127.496 739.544 125.928C737.304 124.136 735.624 122.568 734.504 121.224C733.608 119.88 733.496 118.088 734.168 115.848C735.512 110.696 742.568 106.216 755.336 102.408C768.104 98.6 781.432 96.696 795.32 96.696ZM901.567 165.576C930.015 165.576 950.623 170.168 963.391 179.352C976.159 188.312 982.543 199.848 982.543 213.96C982.543 218.216 982.095 222.136 981.199 225.72C977.839 240.504 968.431 251.144 952.975 257.64C937.743 263.912 919.711 267.048 898.879 267.048C888.351 267.048 878.495 266.376 869.311 265.032C869.087 276.68 872.223 284.856 878.719 289.56C885.215 294.264 894.287 296.616 905.935 296.616C911.311 296.616 916.463 296.056 921.391 294.936C926.319 293.592 932.591 291.688 940.207 289.224C946.479 286.984 950.735 285.864 952.975 285.864C955.439 285.864 956.671 287.32 956.671 290.232C956.895 298.072 953.983 306.36 947.935 315.096C941.887 323.608 932.927 330.888 921.055 336.936C909.183 342.984 894.847 346.008 878.047 346.008C853.183 346.008 832.799 339.736 816.895 327.192C800.991 314.648 793.039 296.392 793.039 272.424C793.039 265.704 793.935 257.864 795.727 248.904C801.327 221.352 813.535 200.632 832.351 186.744C851.391 172.632 874.463 165.576 901.567 165.576ZM871.663 244.872C872.559 245.096 873.791 245.208 875.359 245.208C884.767 245.208 891.935 240.84 896.863 232.104C901.791 223.368 904.143 213.624 903.919 202.872C903.695 196.6 901.903 193.464 898.543 193.464C896.079 193.464 893.167 195.48 889.807 199.512C886.447 203.32 883.087 209.144 879.727 216.984C876.591 224.824 873.903 234.12 871.663 244.872ZM1066.06 165.576C1094.51 165.576 1115.12 170.168 1127.89 179.352C1140.65 188.312 1147.04 199.848 1147.04 213.96C1147.04 218.216 1146.59 222.136 1145.69 225.72C1142.33 240.504 1132.93 251.144 1117.47 257.64C1102.24 263.912 1084.21 267.048 1063.37 267.048C1052.85 267.048 1042.99 266.376 1033.81 265.032C1033.58 276.68 1036.72 284.856 1043.21 289.56C1049.71 294.264 1058.78 296.616 1070.43 296.616C1075.81 296.616 1080.96 296.056 1085.89 294.936C1090.81 293.592 1097.09 291.688 1104.7 289.224C1110.97 286.984 1115.23 285.864 1117.47 285.864C1119.93 285.864 1121.17 287.32 1121.17 290.232C1121.39 298.072 1118.48 306.36 1112.43 315.096C1106.38 323.608 1097.42 330.888 1085.55 336.936C1073.68 342.984 1059.34 346.008 1042.54 346.008C1017.68 346.008 997.295 339.736 981.391 327.192C965.487 314.648 957.535 296.392 957.535 272.424C957.535 265.704 958.431 257.864 960.223 248.904C965.823 221.352 978.031 200.632 996.847 186.744C1015.89 172.632 1038.96 165.576 1066.06 165.576ZM1036.16 244.872C1037.05 245.096 1038.29 245.208 1039.85 245.208C1049.26 245.208 1056.43 240.84 1061.36 232.104C1066.29 223.368 1068.64 213.624 1068.41 202.872C1068.19 196.6 1066.4 193.464 1063.04 193.464C1060.57 193.464 1057.66 195.48 1054.3 199.512C1050.94 203.32 1047.58 209.144 1044.22 216.984C1041.09 224.824 1038.4 234.12 1036.16 244.872ZM1315.9 167.256C1328.67 167.256 1338.86 170.84 1346.48 178.008C1354.32 184.952 1358.24 193.464 1358.24 203.544C1358.24 214.296 1354.99 222.696 1348.49 228.744C1342 234.792 1333.49 237.816 1322.96 237.816C1313.55 237.816 1306.27 235.464 1301.12 230.76C1295.97 225.832 1293.5 220.344 1293.73 214.296C1291.49 213.848 1289.58 214.744 1288.01 216.984C1286.45 219.224 1284.77 223.592 1282.97 230.088C1281.85 234.344 1279.73 238.264 1276.59 241.848C1291.82 242.968 1303.13 246.44 1310.53 252.264C1317.92 258.088 1321.61 265.592 1321.61 274.776C1321.61 279.256 1320.83 283.736 1319.26 288.216L1316.57 298.632C1316.13 299.752 1315.9 301.208 1315.9 303C1315.9 306.136 1317.36 307.704 1320.27 307.704C1322.96 307.704 1325.2 306.584 1326.99 304.344C1329.01 301.88 1330.35 300.648 1331.02 300.648C1332.14 300.648 1333.04 301.432 1333.71 303C1334.38 304.344 1334.72 306.024 1334.72 308.04C1334.94 314.536 1332.93 320.92 1328.67 327.192C1324.64 333.24 1318.37 338.28 1309.85 342.312C1301.57 346.12 1291.49 348.024 1279.61 348.024C1265.28 348.024 1253.29 344.44 1243.66 337.272C1234.25 330.104 1229.55 320.696 1229.55 309.048C1229.55 304.792 1230.45 299.976 1232.24 294.6L1238.62 277.8C1239.74 273.768 1240.3 270.856 1240.3 269.064C1240.3 266.152 1239.29 264.024 1237.28 262.68C1235.49 261.336 1232.57 260.664 1228.54 260.664H1221.82L1206.7 310.056C1206.03 312.744 1205.69 315.096 1205.69 317.112C1205.69 320.024 1206.25 322.376 1207.37 324.168C1208.49 325.736 1210.06 327.304 1212.08 328.872C1213.65 330.44 1214.77 331.784 1215.44 332.904C1216.11 333.8 1216.22 335.032 1215.77 336.6C1214.65 339.512 1212.41 341.64 1209.05 342.984C1205.69 344.328 1200.54 345 1193.6 345H1116.99C1111.17 345 1106.91 344.104 1104.22 342.312C1101.53 340.296 1100.64 337.72 1101.53 334.584C1102.43 331.896 1104.78 329.544 1108.59 327.528C1111.95 325.736 1114.75 323.608 1116.99 321.144C1119.23 318.68 1121.13 314.76 1122.7 309.384L1173.77 141.72C1174.45 139.704 1174.78 138.024 1174.78 136.68C1174.78 134.216 1174.11 132.2 1172.77 130.632C1171.65 129.064 1170.08 127.496 1168.06 125.928C1165.82 124.136 1164.14 122.568 1163.02 121.224C1162.13 119.88 1162.01 118.088 1162.69 115.848C1164.03 110.696 1171.09 106.216 1183.85 102.408C1196.62 98.6 1209.95 96.696 1223.84 96.696C1236.83 96.696 1246.35 99.16 1252.4 104.088C1258.45 108.792 1261.47 115.4 1261.47 123.912C1261.47 129.064 1260.69 133.992 1259.12 138.696L1229.89 234.12H1240.97C1245.45 234.12 1249.04 232.776 1251.73 230.088C1254.64 227.4 1256.88 223.48 1258.45 218.328C1264.05 201.752 1271.33 189.096 1280.29 180.36C1289.25 171.624 1301.12 167.256 1315.9 167.256Z" fill="white"/>
<path d="M640.272 123.912L629.995 158.414L630.426 158.542L630.861 158.66L640.272 123.912ZM672.864 138.024L654.528 169.005L676.293 181.886L695.792 165.779L672.864 138.024ZM680.592 131.64L658.247 103.414L657.953 103.647L657.664 103.885L680.592 131.64ZM693.696 122.904L679.266 89.9224L678.867 90.0971L678.472 90.2814L693.696 122.904ZM718.56 124.248L696.318 152.555L696.966 153.064L697.635 153.542L718.56 124.248ZM722.256 140.04L688.103 128.656L687.954 129.105L687.816 129.558L722.256 140.04ZM708.144 186.408L673.704 175.926L673.643 176.127L673.584 176.328L708.144 186.408ZM702.096 197.832L677.88 171.194L677.246 171.77L676.64 172.376L702.096 197.832ZM678.576 196.824L654.87 223.917L655.764 224.699L656.708 225.421L678.576 196.824ZM661.44 178.008L689.096 154.961L688.818 154.628L688.533 154.302L661.44 178.008ZM639.936 159.192L621.253 189.964L621.891 190.352L622.545 190.713L639.936 159.192ZM608.016 158.52L632.579 184.838L633.033 184.415L633.472 183.976L608.016 158.52ZM611.04 185.4L587.334 212.493L587.66 212.778L587.993 213.056L611.04 185.4ZM636.24 202.536L617.541 233.299L617.673 233.379L617.806 233.458L636.24 202.536ZM665.136 221.352L643.81 250.355L643.81 250.355L665.136 221.352ZM689.328 291.576L655.066 280.524L654.953 280.877L654.846 281.231L689.328 291.576ZM658.08 332.568L676.47 363.517L676.634 363.419L676.798 363.319L658.08 332.568ZM565.008 340.968L576.61 306.889L576.61 306.889L565.008 340.968ZM532.752 322.824L554.814 294.376L531.941 276.638L509.705 295.168L532.752 322.824ZM520.656 332.904L497.609 305.248L497.555 305.293L497.501 305.339L520.656 332.904ZM506.88 342.648L521.309 375.63L522.155 375.26L522.98 374.847L506.88 342.648ZM482.352 341.304L459.098 368.786L459.597 369.208L460.11 369.611L482.352 341.304ZM479.328 324.168L513.161 336.471L513.352 335.945L513.526 335.414L479.328 324.168ZM495.792 274.104L529.99 285.35L530.098 285.022L530.2 284.691L495.792 274.104ZM503.184 261.672L525.426 289.979L525.426 289.979L503.184 261.672ZM529.056 263.352L505.139 290.259L505.499 290.579L505.867 290.889L529.056 263.352ZM545.52 282.84L575.073 262.282L574.945 262.098L574.814 261.915L545.52 282.84ZM565.344 304.344L545.375 334.298L545.624 334.464L545.877 334.626L565.344 304.344ZM601.296 307.704L619.157 338.961L619.489 338.771L619.818 338.574L601.296 307.704ZM608.352 298.296L574.927 284.926L574.428 286.174L574.023 287.455L608.352 298.296ZM601.296 278.472L624.918 251.306L624.918 251.306L601.296 278.472ZM577.44 262.344L558.741 293.107L559.019 293.276L559.301 293.44L577.44 262.344ZM549.552 243.864L527.389 272.233L527.668 272.451L527.952 272.664L549.552 243.864ZM530.736 223.032L500.162 242.038L500.345 242.332L500.533 242.623L530.736 223.032ZM526.704 170.616L560.956 181.698L561.053 181.398L561.144 181.098L526.704 170.616ZM555.6 133.32L536.062 103.083L536.062 103.083L555.6 133.32ZM605.664 119.208V155.208C615.212 155.208 623.236 156.401 629.995 158.414L640.272 123.912L650.549 89.4101C636.252 85.1513 621.204 83.208 605.664 83.208V119.208ZM640.272 123.912L630.861 158.66C638.067 160.612 645.949 163.927 654.528 169.005L672.864 138.024L691.2 107.043C677.827 99.1291 663.981 93.0361 649.683 89.1638L640.272 123.912ZM672.864 138.024L695.792 165.779L703.52 159.395L680.592 131.64L657.664 103.885L649.936 110.269L672.864 138.024ZM680.592 131.64L702.937 159.866C705.075 158.173 706.703 156.995 707.869 156.218C709.109 155.391 709.407 155.299 708.92 155.527L693.696 122.904L678.472 90.2814C671.276 93.6395 664.3 98.6224 658.247 103.414L680.592 131.64ZM693.696 122.904L708.126 155.886C706.545 156.577 705.561 156.552 705.792 156.552V120.552V84.552C697.063 84.552 688.015 86.0948 679.266 89.9224L693.696 122.904ZM705.792 120.552V156.552C705.788 156.552 704.737 156.557 703.006 156.056C701.184 155.529 698.77 154.481 696.318 152.555L718.56 124.248L740.802 95.9406C729.43 87.0057 716.442 84.552 705.792 84.552V120.552ZM718.56 124.248L697.635 153.542C694.364 151.206 691.409 147.837 689.465 143.672C687.61 139.697 687.264 136.272 687.264 134.328H723.264H759.264C759.264 120.386 753.715 105.118 739.485 94.9536L718.56 124.248ZM723.264 134.328H687.264C687.264 131.608 687.773 129.647 688.103 128.656L722.256 140.04L756.409 151.424C758.083 146.401 759.264 140.632 759.264 134.328H723.264ZM722.256 140.04L687.816 129.558L673.704 175.926L708.144 186.408L742.584 196.89L756.696 150.522L722.256 140.04ZM708.144 186.408L673.584 176.328C673.292 177.329 673.226 177.233 673.64 176.452C674.036 175.702 675.276 173.562 677.88 171.194L702.096 197.832L726.312 224.47C735.985 215.677 740.403 204.377 742.704 196.488L708.144 186.408ZM702.096 197.832L676.64 172.376C683.823 165.193 691.43 165.192 691.68 165.192V201.192V237.192C701.338 237.192 715.889 234.951 727.552 223.288L702.096 197.832ZM691.68 201.192V165.192C692.813 165.192 694.355 165.368 696.092 165.947C697.84 166.53 699.316 167.365 700.444 168.227L678.576 196.824L656.708 225.421C666.982 233.277 679.086 237.192 691.68 237.192V201.192ZM678.576 196.824L702.282 169.731C702.284 169.733 702.257 169.71 702.201 169.658C702.144 169.606 702.064 169.532 701.96 169.432C701.748 169.23 701.462 168.95 701.097 168.581C700.358 167.833 699.406 166.83 698.22 165.528C695.837 162.911 692.812 159.421 689.096 154.961L661.44 178.008L633.784 201.055C641.53 210.35 648.886 218.681 654.87 223.917L678.576 196.824ZM661.44 178.008L688.533 154.302C679.397 143.861 669.024 134.125 657.327 127.671L639.936 159.192L622.545 190.713C623.84 191.427 627.803 194.235 634.347 201.714L661.44 178.008ZM639.936 159.192L658.619 128.42C647.25 121.517 634.356 117.48 620.448 117.48V153.48V189.48C620.422 189.48 620.372 189.478 620.313 189.469C620.253 189.461 620.224 189.452 620.234 189.455C620.238 189.456 620.57 189.55 621.253 189.964L639.936 159.192ZM620.448 153.48V117.48C606.368 117.48 592.946 122.678 582.56 133.064L608.016 158.52L633.472 183.976C631.961 185.487 629.839 187.02 627.169 188.103C624.526 189.174 622.146 189.48 620.448 189.48V153.48ZM608.016 158.52L583.453 132.202C572.606 142.326 566.976 155.863 566.976 170.28H602.976H638.976C638.976 172.299 638.595 175.03 637.325 177.993C636.047 180.975 634.266 183.264 632.579 184.838L608.016 158.52ZM602.976 170.28H566.976C566.976 189.169 576.86 203.328 587.334 212.493L611.04 185.4L634.746 158.307C634.547 158.133 635.609 158.999 636.757 161.151C638.014 163.509 638.976 166.69 638.976 170.28H602.976ZM611.04 185.4L587.993 213.056C595.466 219.283 605.7 226.101 617.541 233.299L636.24 202.536L654.939 171.773C643.932 165.083 637.366 160.477 634.087 157.744L611.04 185.4ZM636.24 202.536L617.806 233.458C628.847 240.04 637.43 245.664 643.81 250.355L665.136 221.352L686.462 192.349C677.61 185.84 666.929 178.92 654.674 171.614L636.24 202.536ZM665.136 221.352L643.81 250.355C647.767 253.265 651.304 256.968 654.421 261.775L684.624 242.184L714.827 222.593C707.192 210.824 697.737 200.639 686.462 192.349L665.136 221.352ZM684.624 242.184L654.421 261.775C655.68 263.715 656.688 266.305 656.688 270.744H692.688H728.688C728.688 253.679 724.32 237.229 714.827 222.593L684.624 242.184ZM692.688 270.744H656.688C656.688 273.749 656.213 276.969 655.066 280.524L689.328 291.576L723.59 302.628C726.923 292.295 728.688 281.627 728.688 270.744H692.688ZM689.328 291.576L654.846 281.231C651.929 290.954 646.945 297.201 639.362 301.817L658.08 332.568L676.798 363.319C700.127 349.119 715.975 328.038 723.81 301.921L689.328 291.576ZM658.08 332.568L639.69 301.619C630.572 307.037 619.083 310.344 603.984 310.344V346.344V382.344C630.101 382.344 654.676 376.467 676.47 363.517L658.08 332.568ZM603.984 346.344V310.344C591.054 310.344 582.26 308.812 576.61 306.889L565.008 340.968L553.407 375.047C568.812 380.292 586.002 382.344 603.984 382.344V346.344ZM565.008 340.968L576.61 306.889C570.662 304.864 563.39 301.027 554.814 294.376L532.752 322.824L510.69 351.272C524.066 361.645 538.298 369.904 553.407 375.047L565.008 340.968ZM532.752 322.824L509.705 295.168L497.609 305.248L520.656 332.904L543.703 360.56L555.799 350.48L532.752 322.824ZM520.656 332.904L497.501 305.339C495.252 307.228 493.507 308.569 492.223 309.477C490.872 310.433 490.436 310.621 490.78 310.449L506.88 342.648L522.98 374.847C530.361 371.157 537.511 365.762 543.811 360.469L520.656 332.904ZM506.88 342.648L492.451 309.666C494.031 308.975 495.015 309 494.784 309V345V381C503.513 381 512.561 379.457 521.309 375.63L506.88 342.648ZM494.784 345V309C495.322 309 499.742 309.184 504.594 312.997L482.352 341.304L460.11 369.611C471.234 378.352 483.942 381 494.784 381V345ZM482.352 341.304L505.606 313.822C508.197 316.015 510.541 319.005 512.108 322.622C513.63 326.134 513.984 329.219 513.984 331.224H477.984H441.984C441.984 344.691 447.106 358.639 459.098 368.786L482.352 341.304ZM477.984 331.224H513.984C513.984 333.828 513.459 335.65 513.161 336.471L479.328 324.168L445.495 311.865C443.405 317.614 441.984 324.14 441.984 331.224H477.984ZM479.328 324.168L513.526 335.414L529.99 285.35L495.792 274.104L461.594 262.858L445.13 312.922L479.328 324.168ZM495.792 274.104L530.2 284.691C530.465 283.83 530.48 284.096 529.927 285.027C529.354 285.991 527.988 287.966 525.426 289.979L503.184 261.672L480.942 233.365C469.732 242.173 464.268 254.145 461.384 263.517L495.792 274.104ZM503.184 261.672L525.426 289.979C520.841 293.582 516.471 293.976 515.28 293.976V257.976V221.976C504.233 221.976 491.799 224.834 480.942 233.365L503.184 261.672ZM515.28 257.976V293.976C513.584 293.976 511.563 293.662 509.5 292.857C507.464 292.062 506.01 291.033 505.139 290.259L529.056 263.352L552.973 236.445C542.691 227.305 529.693 221.976 515.28 221.976V257.976ZM529.056 263.352L505.867 290.889C505.854 290.877 506.824 291.73 508.864 294.145C510.802 296.438 513.246 299.593 516.226 303.765L545.52 282.84L574.814 261.915C567.8 252.096 560.15 242.472 552.245 235.815L529.056 263.352ZM545.52 282.84L515.967 303.398C524.116 315.112 533.792 326.576 545.375 334.298L565.344 304.344L585.313 274.39C585.318 274.394 584.299 273.689 582.321 271.543C580.395 269.454 577.969 266.446 575.073 262.282L545.52 282.84ZM565.344 304.344L545.877 334.626C558.745 342.899 573.108 346.392 587.52 346.392V310.392V274.392C586.114 274.392 585.353 274.227 585.064 274.148C584.914 274.108 584.844 274.077 584.829 274.071C584.815 274.064 584.814 274.064 584.811 274.062L565.344 304.344ZM587.52 310.392V346.392C596.096 346.392 608.063 345.3 619.157 338.961L601.296 307.704L583.435 276.447C586.113 274.917 588.125 274.48 588.606 274.386C589.128 274.284 588.863 274.392 587.52 274.392V310.392ZM601.296 307.704L619.818 338.574C631.764 331.406 639.083 320.531 642.681 309.137L608.352 298.296L574.023 287.455C574.407 286.24 575.207 284.337 576.78 282.24C578.397 280.084 580.459 278.223 582.774 276.834L601.296 307.704ZM608.352 298.296L641.777 311.666C644.816 304.068 645.024 296.834 645.024 293.256H609.024H573.024C573.024 293.224 573.025 293.058 573.041 292.777C573.056 292.501 573.091 292.043 573.172 291.438C573.308 290.416 573.699 287.995 574.927 284.926L608.352 298.296ZM609.024 293.256H645.024C645.024 274.776 635.652 260.639 624.918 251.306L601.296 278.472L577.674 305.638C577.607 305.58 576.396 304.517 575.188 302.205C573.881 299.705 573.024 296.579 573.024 293.256H609.024ZM601.296 278.472L624.918 251.306C617.213 244.606 606.969 237.892 595.579 231.248L577.44 262.344L559.301 293.44C569.415 299.34 575.075 303.378 577.674 305.638L601.296 278.472ZM577.44 262.344L596.139 231.581C585.279 224.98 577.052 219.489 571.152 215.064L549.552 243.864L527.952 272.664C536.388 278.991 546.753 285.82 558.741 293.107L577.44 262.344ZM549.552 243.864L571.715 215.495C567.955 212.558 564.327 208.665 560.939 203.441L530.736 223.032L500.533 242.623C507.897 253.975 516.813 263.97 527.389 272.233L549.552 243.864ZM530.736 223.032L561.31 204.026C560.204 202.247 559.008 199.296 559.008 193.8H523.008H487.008C487.008 210.704 490.964 227.241 500.162 242.038L530.736 223.032ZM523.008 193.8H559.008C559.008 189.802 559.626 185.81 560.956 181.698L526.704 170.616L492.452 159.534C488.854 170.654 487.008 182.118 487.008 193.8H523.008ZM526.704 170.616L561.144 181.098C563.183 174.4 567.161 168.711 575.138 163.557L555.6 133.32L536.062 103.083C514.919 116.745 499.633 135.92 492.264 160.134L526.704 170.616ZM555.6 133.32L575.138 163.557C583.378 158.232 593.163 155.208 605.664 155.208V119.208V83.208C580.533 83.208 556.942 89.5917 536.062 103.083L555.6 133.32ZM823.88 104.088L801.14 131.996L801.388 132.198L801.639 132.395L823.88 104.088ZM830.936 138.696L796.784 127.312L796.652 127.707L796.53 128.104L830.936 138.696ZM778.184 310.056L743.778 299.464L743.493 300.387L743.259 301.325L778.184 310.056ZM778.856 324.168L748.328 343.248L748.917 344.189L749.562 345.093L778.856 324.168ZM783.56 328.872L809.016 303.416L807.431 301.831L805.662 300.455L783.56 328.872ZM786.92 332.904L756.05 351.426L757.006 353.018L758.12 354.504L786.92 332.904ZM787.256 336.6L820.857 349.523L821.431 348.029L821.871 346.49L787.256 336.6ZM780.536 342.984L767.166 309.559L767.166 309.559L780.536 342.984ZM675.704 342.312L654.104 371.112L654.904 371.712L655.735 372.266L675.704 342.312ZM673.016 334.584L638.864 323.2L638.616 323.942L638.401 324.694L673.016 334.584ZM680.072 327.528L696.916 359.344L696.965 359.319L697.013 359.293L680.072 327.528ZM688.472 321.144L661.834 296.928L688.472 321.144ZM694.184 309.384L659.746 298.894L659.684 299.099L659.624 299.304L694.184 309.384ZM745.256 141.72L711.104 130.336L710.955 130.781L710.818 131.23L745.256 141.72ZM744.248 130.632L714.954 151.557L715.879 152.852L716.915 154.061L744.248 130.632ZM739.544 125.928L717.055 154.039L717.248 154.193L717.442 154.345L739.544 125.928ZM734.504 121.224L704.55 141.193L705.617 142.793L706.848 144.271L734.504 121.224ZM734.168 115.848L768.65 126.193L768.838 125.567L769.002 124.935L734.168 115.848ZM755.336 102.408L745.047 67.9096L745.047 67.9096L755.336 102.408ZM795.32 96.696V132.696C799.684 132.696 802.138 133.125 803.184 133.396C804.191 133.656 803.04 133.544 801.14 131.996L823.88 104.088L846.62 76.1795C831.09 63.5253 811.529 60.696 795.32 60.696V96.696ZM823.88 104.088L801.639 132.395C800.68 131.642 799.31 130.184 798.314 128.048C797.351 125.984 797.288 124.476 797.288 124.248H833.288H869.288C869.288 105.545 861.732 88.0456 846.122 75.7805L823.88 104.088ZM833.288 124.248H797.288C797.288 125.282 797.136 126.255 796.784 127.312L830.936 138.696L865.089 150.08C867.873 141.728 869.288 133.07 869.288 124.248H833.288ZM830.936 138.696L796.53 128.104L743.778 299.464L778.184 310.056L812.591 320.648L865.343 149.288L830.936 138.696ZM778.184 310.056L743.259 301.325C742.119 305.886 741.176 311.288 741.176 317.112H777.176H813.176C813.176 318.076 813.098 318.706 813.066 318.927C813.034 319.157 813.026 319.123 813.109 318.787L778.184 310.056ZM777.176 317.112H741.176C741.176 324.316 742.523 333.959 748.328 343.248L778.856 324.168L809.384 305.088C812.95 310.793 813.176 315.732 813.176 317.112H777.176ZM778.856 324.168L749.562 345.093C753.239 350.241 757.531 354.234 761.458 357.289L783.56 328.872L805.662 300.455C805.666 300.459 805.729 300.507 805.838 300.603C805.948 300.699 806.116 300.852 806.328 301.064C806.742 301.478 807.401 302.194 808.151 303.243L778.856 324.168ZM783.56 328.872L758.104 354.328C758.312 354.535 758.212 354.452 757.92 354.103C757.665 353.796 756.925 352.884 756.05 351.426L786.92 332.904L817.79 314.382C814.914 309.589 811.436 305.836 809.016 303.416L783.56 328.872ZM786.92 332.904L758.12 354.504C749.357 342.819 751.473 330.801 752.641 326.71L787.256 336.6L821.871 346.49C823.936 339.263 825.828 324.781 815.72 311.304L786.92 332.904ZM787.256 336.6L753.656 323.677C754.996 320.192 757.145 316.937 759.941 314.28C762.646 311.711 765.322 310.297 767.166 309.559L780.536 342.984L793.906 376.409C804.94 371.996 815.555 363.307 820.857 349.523L787.256 336.6ZM780.536 342.984L767.166 309.559C768.273 309.116 769.062 308.911 769.383 308.835C769.719 308.756 769.78 308.761 769.496 308.798C769.221 308.834 768.72 308.887 767.955 308.929C767.196 308.972 766.244 309 765.08 309V345V381C773.181 381 783.979 380.38 793.906 376.409L780.536 342.984ZM765.08 345V309H688.472V345V381H765.08V345ZM688.472 345V309C687.271 309 687.357 308.896 688.329 309.1C689.223 309.288 692.136 310 695.673 312.358L675.704 342.312L655.735 372.266C667.427 380.06 680.493 381 688.472 381V345ZM675.704 342.312L697.304 313.512C700.352 315.798 704.617 320.139 707.018 327.041C709.452 334.038 708.812 340.339 707.631 344.474L673.016 334.584L638.401 324.694C636.324 331.965 635.685 341.122 639.014 350.695C642.311 360.173 648.369 366.81 654.104 371.112L675.704 342.312ZM673.016 334.584L707.169 345.968C703.928 355.692 697.132 359.23 696.916 359.344L680.072 327.528L663.228 295.712C655.396 299.858 643.897 308.1 638.864 323.2L673.016 334.584ZM680.072 327.528L697.013 359.293C703.499 355.834 709.727 351.282 715.11 345.36L688.472 321.144L661.834 296.928C662.737 295.934 663.365 295.638 663.131 295.763L680.072 327.528ZM688.472 321.144L715.11 345.36C722.727 336.982 726.555 326.969 728.744 319.464L694.184 309.384L659.624 299.304C659.255 300.568 659.059 300.913 659.198 300.627C659.279 300.46 659.497 300.032 659.893 299.422C660.288 298.814 660.916 297.938 661.834 296.928L688.472 321.144ZM694.184 309.384L728.622 319.874L779.694 152.21L745.256 141.72L710.818 131.23L659.746 298.894L694.184 309.384ZM745.256 141.72L779.409 153.104C780.68 149.291 782.264 143.469 782.264 136.68H746.264H710.264C710.264 134.439 710.534 132.773 710.711 131.888C710.896 130.966 711.075 130.423 711.104 130.336L745.256 141.72ZM746.264 136.68H782.264C782.264 127.362 779.555 116.506 771.581 107.203L744.248 130.632L716.915 154.061C711.63 147.894 710.264 141.07 710.264 136.68H746.264ZM744.248 130.632L773.543 109.707C769.865 104.559 765.574 100.566 761.646 97.5113L739.544 125.928L717.442 154.345C717.438 154.341 717.376 154.293 717.266 154.197C717.156 154.101 716.989 153.948 716.776 153.736C716.363 153.322 715.703 152.606 714.954 151.557L744.248 130.632ZM739.544 125.928L762.033 97.8167C761.756 97.5953 761.547 97.421 761.398 97.2928C761.247 97.1636 761.175 97.0965 761.168 97.09C761.159 97.0819 761.243 97.1599 761.399 97.3221C761.552 97.4813 761.819 97.7675 762.16 98.1773L734.504 121.224L706.848 144.271C710.18 148.269 713.961 151.564 717.055 154.039L739.544 125.928ZM734.504 121.224L764.458 101.255C771.805 112.275 769.634 122.913 768.65 126.193L734.168 115.848L699.687 105.503C697.359 113.263 695.411 127.485 704.55 141.193L734.504 121.224ZM734.168 115.848L769.002 124.935C767.679 130.01 765.264 133.61 763.379 135.771C761.579 137.836 760.078 138.817 759.765 139.016C759.342 139.284 760.774 138.353 765.625 136.906L755.336 102.408L745.047 67.9096C737.131 70.2708 728.65 73.4843 721.172 78.2323C714.161 82.6836 703.311 91.5148 699.334 106.761L734.168 115.848ZM755.336 102.408L765.625 136.906C774.915 134.136 784.768 132.696 795.32 132.696V96.696V60.696C778.096 60.696 761.293 63.0643 745.047 67.9096L755.336 102.408ZM963.391 179.352L942.37 208.577L942.54 208.699L942.712 208.82L963.391 179.352ZM981.199 225.72L946.274 216.989L946.18 217.364L946.094 217.742L981.199 225.72ZM952.975 257.64L966.682 290.928L966.803 290.879L966.924 290.828L952.975 257.64ZM869.311 265.032L874.524 229.411L834.103 223.496L833.318 264.34L869.311 265.032ZM878.719 289.56L899.833 260.402L899.833 260.402L878.719 289.56ZM921.391 294.936L929.369 330.041L930.12 329.87L930.863 329.667L921.391 294.936ZM940.207 289.224L951.289 323.476L951.805 323.309L952.315 323.127L940.207 289.224ZM956.671 290.232H920.671V290.746L920.686 291.26L956.671 290.232ZM947.935 315.096L977.282 335.947L977.409 335.768L977.534 335.588L947.935 315.096ZM921.055 336.936L937.396 369.013L937.396 369.013L921.055 336.936ZM816.895 327.192L839.189 298.926L839.189 298.926L816.895 327.192ZM795.727 248.904L760.448 241.734L760.437 241.789L760.426 241.844L795.727 248.904ZM832.351 186.744L853.73 215.709L853.759 215.687L853.787 215.666L832.351 186.744ZM871.663 244.872L836.42 237.53L829.362 271.405L862.932 279.797L871.663 244.872ZM896.863 232.104L928.218 249.792L928.218 249.792L896.863 232.104ZM903.919 202.872L939.911 202.122L939.906 201.855L939.896 201.587L903.919 202.872ZM889.807 199.512L916.801 223.33L917.138 222.949L917.463 222.559L889.807 199.512ZM879.727 216.984L846.638 202.803L846.465 203.206L846.302 203.614L879.727 216.984ZM901.567 165.576V201.576C927.801 201.576 938.965 206.128 942.37 208.577L963.391 179.352L984.413 150.127C962.281 134.208 932.23 129.576 901.567 129.576V165.576ZM963.391 179.352L942.712 208.82C945.435 210.731 946.153 211.967 946.257 212.155C946.328 212.283 946.371 212.391 946.412 212.554C946.456 212.73 946.543 213.165 946.543 213.96H982.543H1018.54C1018.54 186.744 1005.26 164.755 984.07 149.884L963.391 179.352ZM982.543 213.96H946.543C946.543 215.708 946.358 216.654 946.274 216.989L981.199 225.72L1016.12 234.451C1017.83 227.618 1018.54 220.724 1018.54 213.96H982.543ZM981.199 225.72L946.094 217.742C945.609 219.877 945.094 221.902 939.027 224.452L952.975 257.64L966.924 290.828C991.768 280.386 1010.07 261.131 1016.3 233.698L981.199 225.72ZM952.975 257.64L939.268 224.352C929.369 228.428 916.206 231.048 898.879 231.048V267.048V303.048C923.216 303.048 946.118 299.396 966.682 290.928L952.975 257.64ZM898.879 267.048V231.048C889.868 231.048 881.771 230.472 874.524 229.411L869.311 265.032L864.098 300.653C875.22 302.28 886.834 303.048 898.879 303.048V267.048ZM869.311 265.032L833.318 264.34C832.976 282.096 837.737 304.331 857.605 318.718L878.719 289.56L899.833 260.402C901.158 261.361 902.343 262.532 903.307 263.821C904.257 265.091 904.809 266.229 905.107 267.008C905.651 268.426 905.254 268.357 905.304 265.724L869.311 265.032ZM878.719 289.56L857.605 318.718C872.456 329.472 889.992 332.616 905.935 332.616V296.616V260.616C902.455 260.616 900.403 260.257 899.43 260.004C898.52 259.768 898.887 259.717 899.833 260.402L878.719 289.56ZM905.935 296.616V332.616C913.826 332.616 921.663 331.792 929.369 330.041L921.391 294.936L913.413 259.831C911.263 260.32 908.797 260.616 905.935 260.616V296.616ZM921.391 294.936L930.863 329.667C936.544 328.118 943.401 326.028 951.289 323.476L940.207 289.224L929.126 254.972C921.781 257.348 916.094 259.066 911.919 260.205L921.391 294.936ZM940.207 289.224L952.315 323.127C953.573 322.677 954.622 322.323 955.479 322.05C956.346 321.773 956.928 321.607 957.265 321.519C957.427 321.476 957.491 321.462 957.47 321.467C957.451 321.471 957.3 321.505 957.034 321.551C956.775 321.595 956.317 321.667 955.695 321.731C955.089 321.792 954.156 321.864 952.975 321.864V285.864V249.864C947.058 249.864 941.771 251.145 938.941 251.889C935.453 252.807 931.767 254.011 928.099 255.321L940.207 289.224ZM952.975 285.864V321.864C946.936 321.864 936.376 319.796 928.265 310.21C921.129 301.776 920.671 292.993 920.671 290.232H956.671H992.671C992.671 284.559 991.598 273.592 983.229 263.702C973.886 252.66 961.478 249.864 952.975 249.864V285.864ZM956.671 290.232L920.686 291.26C920.625 289.124 921.543 289.973 918.336 294.604L947.935 315.096L977.534 335.588C986.424 322.747 993.165 307.02 992.656 289.204L956.671 290.232ZM947.935 315.096L918.589 294.245C916.707 296.893 912.799 300.739 904.714 304.859L921.055 336.936L937.396 369.013C953.055 361.037 967.067 350.323 977.282 335.947L947.935 315.096ZM921.055 336.936L904.714 304.859C899.051 307.743 890.613 310.008 878.047 310.008V346.008V382.008C899.082 382.008 919.315 378.225 937.396 369.013L921.055 336.936ZM878.047 346.008V310.008C859.382 310.008 847.402 305.403 839.189 298.926L816.895 327.192L794.601 355.458C818.197 374.069 846.985 382.008 878.047 382.008V346.008ZM816.895 327.192L839.189 298.926C833.573 294.496 829.039 287.629 829.039 272.424H793.039H757.039C757.039 305.155 768.41 334.8 794.601 355.458L816.895 327.192ZM793.039 272.424H829.039C829.039 268.747 829.547 263.368 831.028 255.964L795.727 248.904L760.426 241.844C758.323 252.36 757.039 262.661 757.039 272.424H793.039ZM795.727 248.904L831.006 256.074C835.209 235.397 843.479 223.275 853.73 215.709L832.351 186.744L810.972 157.779C783.591 177.989 767.446 207.307 760.448 241.734L795.727 248.904ZM832.351 186.744L853.787 215.666C865.757 206.794 881.027 201.576 901.567 201.576V165.576V129.576C867.899 129.576 837.025 138.47 810.915 157.822L832.351 186.744ZM871.663 244.872L862.932 279.797C867.984 281.06 872.586 281.208 875.359 281.208V245.208V209.208C875.391 209.208 875.81 209.207 876.518 209.272C877.171 209.331 878.559 209.488 880.394 209.947L871.663 244.872ZM875.359 245.208V281.208C898.779 281.208 917.427 268.922 928.218 249.792L896.863 232.104L865.508 214.416C865.478 214.47 866.452 212.778 869.058 211.19C871.778 209.532 874.274 209.208 875.359 209.208V245.208ZM896.863 232.104L928.218 249.792C936.545 235.03 940.26 218.842 939.911 202.122L903.919 202.872L867.927 203.622C868.027 208.406 867.037 211.706 865.508 214.416L896.863 232.104ZM903.919 202.872L939.896 201.587C939.709 196.34 938.859 187.047 933.664 177.955C926.946 166.199 914.284 157.464 898.543 157.464V193.464V229.464C893.556 229.464 887.674 228.226 882.051 224.803C876.554 221.457 873.128 217.138 871.15 213.677C869.266 210.38 868.539 207.621 868.256 206.299C868.099 205.566 868.023 205.012 867.986 204.683C867.949 204.349 867.942 204.165 867.942 204.157L903.919 202.872ZM898.543 193.464V157.464C887.426 157.464 878.975 161.947 874.02 165.377C868.941 168.893 865.014 173.03 862.151 176.465L889.807 199.512L917.463 222.559C917.96 221.962 917.17 223.075 915.003 224.575C912.96 225.989 907.196 229.464 898.543 229.464V193.464ZM889.807 199.512L862.813 175.694C855.781 183.664 850.628 193.493 846.638 202.803L879.727 216.984L912.816 231.165C914.077 228.223 915.139 226.132 915.95 224.726C916.791 223.267 917.123 222.966 916.801 223.33L889.807 199.512ZM879.727 216.984L846.302 203.614C842.193 213.886 838.969 225.296 836.42 237.53L871.663 244.872L906.906 252.214C908.838 242.944 910.989 235.762 913.152 230.354L879.727 216.984ZM1127.89 179.352L1106.87 208.577L1107.04 208.699L1107.21 208.82L1127.89 179.352ZM1145.69 225.72L1110.77 216.989L1110.68 217.364L1110.59 217.742L1145.69 225.72ZM1117.47 257.64L1131.18 290.928L1131.3 290.879L1131.42 290.828L1117.47 257.64ZM1033.81 265.032L1039.02 229.411L998.599 223.496L997.813 264.34L1033.81 265.032ZM1043.21 289.56L1064.33 260.402L1064.33 260.402L1043.21 289.56ZM1085.89 294.936L1093.87 330.041L1094.62 329.87L1095.36 329.667L1085.89 294.936ZM1104.7 289.224L1115.78 323.476L1116.3 323.309L1116.81 323.127L1104.7 289.224ZM1121.17 290.232H1085.17V290.746L1085.18 291.26L1121.17 290.232ZM1112.43 315.096L1141.78 335.947L1141.9 335.768L1142.03 335.588L1112.43 315.096ZM1085.55 336.936L1101.89 369.013L1101.89 369.013L1085.55 336.936ZM981.391 327.192L1003.69 298.926L1003.69 298.926L981.391 327.192ZM960.223 248.904L924.944 241.734L924.933 241.789L924.922 241.844L960.223 248.904ZM996.847 186.744L1018.23 215.709L1018.25 215.687L1018.28 215.666L996.847 186.744ZM1036.16 244.872L1000.92 237.53L993.858 271.405L1027.43 279.797L1036.16 244.872ZM1061.36 232.104L1092.71 249.792L1092.71 249.792L1061.36 232.104ZM1068.41 202.872L1104.41 202.122L1104.4 201.855L1104.39 201.587L1068.41 202.872ZM1054.3 199.512L1081.3 223.33L1081.63 222.949L1081.96 222.559L1054.3 199.512ZM1044.22 216.984L1011.13 202.803L1010.96 203.206L1010.8 203.614L1044.22 216.984ZM1066.06 165.576V201.576C1092.3 201.576 1103.46 206.128 1106.87 208.577L1127.89 179.352L1148.91 150.127C1126.78 134.208 1096.73 129.576 1066.06 129.576V165.576ZM1127.89 179.352L1107.21 208.82C1109.93 210.731 1110.65 211.967 1110.75 212.155C1110.82 212.283 1110.87 212.391 1110.91 212.554C1110.95 212.73 1111.04 213.165 1111.04 213.96H1147.04H1183.04C1183.04 186.744 1169.76 164.755 1148.57 149.884L1127.89 179.352ZM1147.04 213.96H1111.04C1111.04 215.708 1110.85 216.654 1110.77 216.989L1145.69 225.72L1180.62 234.451C1182.33 227.618 1183.04 220.724 1183.04 213.96H1147.04ZM1145.69 225.72L1110.59 217.742C1110.1 219.877 1109.59 221.902 1103.52 224.452L1117.47 257.64L1131.42 290.828C1156.26 280.386 1174.56 261.131 1180.8 233.698L1145.69 225.72ZM1117.47 257.64L1103.76 224.352C1093.86 228.428 1080.7 231.048 1063.37 231.048V267.048V303.048C1087.71 303.048 1110.61 299.396 1131.18 290.928L1117.47 257.64ZM1063.37 267.048V231.048C1054.36 231.048 1046.27 230.472 1039.02 229.411L1033.81 265.032L1028.59 300.653C1039.72 302.28 1051.33 303.048 1063.37 303.048V267.048ZM1033.81 265.032L997.813 264.34C997.472 282.096 1002.23 304.331 1022.1 318.718L1043.21 289.56L1064.33 260.402C1065.65 261.361 1066.84 262.532 1067.8 263.821C1068.75 265.091 1069.3 266.229 1069.6 267.008C1070.15 268.426 1069.75 268.357 1069.8 265.724L1033.81 265.032ZM1043.21 289.56L1022.1 318.718C1036.95 329.472 1054.49 332.616 1070.43 332.616V296.616V260.616C1066.95 260.616 1064.9 260.257 1063.93 260.004C1063.02 259.768 1063.38 259.717 1064.33 260.402L1043.21 289.56ZM1070.43 296.616V332.616C1078.32 332.616 1086.16 331.792 1093.87 330.041L1085.89 294.936L1077.91 259.831C1075.76 260.32 1073.29 260.616 1070.43 260.616V296.616ZM1085.89 294.936L1095.36 329.667C1101.04 328.118 1107.9 326.028 1115.78 323.476L1104.7 289.224L1093.62 254.972C1086.28 257.348 1080.59 259.066 1076.41 260.205L1085.89 294.936ZM1104.7 289.224L1116.81 323.127C1118.07 322.677 1119.12 322.323 1119.97 322.05C1120.84 321.773 1121.42 321.607 1121.76 321.519C1121.92 321.476 1121.99 321.462 1121.97 321.467C1121.95 321.471 1121.8 321.505 1121.53 321.551C1121.27 321.595 1120.81 321.667 1120.19 321.731C1119.58 321.792 1118.65 321.864 1117.47 321.864V285.864V249.864C1111.55 249.864 1106.27 251.145 1103.44 251.889C1099.95 252.807 1096.26 254.011 1092.59 255.321L1104.7 289.224ZM1117.47 285.864V321.864C1111.43 321.864 1100.87 319.796 1092.76 310.21C1085.62 301.776 1085.17 292.993 1085.17 290.232H1121.17H1157.17C1157.17 284.559 1156.09 273.592 1147.72 263.702C1138.38 252.66 1125.97 249.864 1117.47 249.864V285.864ZM1121.17 290.232L1085.18 291.26C1085.12 289.124 1086.04 289.973 1082.83 294.604L1112.43 315.096L1142.03 335.588C1150.92 322.747 1157.66 307.02 1157.15 289.204L1121.17 290.232ZM1112.43 315.096L1083.08 294.245C1081.2 296.893 1077.3 300.739 1069.21 304.859L1085.55 336.936L1101.89 369.013C1117.55 361.037 1131.56 350.323 1141.78 335.947L1112.43 315.096ZM1085.55 336.936L1069.21 304.859C1063.55 307.743 1055.11 310.008 1042.54 310.008V346.008V382.008C1063.58 382.008 1083.81 378.225 1101.89 369.013L1085.55 336.936ZM1042.54 346.008V310.008C1023.88 310.008 1011.9 305.403 1003.69 298.926L981.391 327.192L959.096 355.458C982.692 374.069 1011.48 382.008 1042.54 382.008V346.008ZM981.391 327.192L1003.69 298.926C998.068 294.496 993.535 287.629 993.535 272.424H957.535H921.535C921.535 305.155 932.905 334.8 959.096 355.458L981.391 327.192ZM957.535 272.424H993.535C993.535 268.747 994.043 263.368 995.524 255.964L960.223 248.904L924.922 241.844C922.819 252.36 921.535 262.661 921.535 272.424H957.535ZM960.223 248.904L995.501 256.074C999.704 235.397 1007.97 223.275 1018.23 215.709L996.847 186.744L975.468 157.779C948.087 177.989 931.941 207.307 924.944 241.734L960.223 248.904ZM996.847 186.744L1018.28 215.666C1030.25 206.794 1045.52 201.576 1066.06 201.576V165.576V129.576C1032.39 129.576 1001.52 138.47 975.41 157.822L996.847 186.744ZM1036.16 244.872L1027.43 279.797C1032.48 281.06 1037.08 281.208 1039.85 281.208V245.208V209.208C1039.89 209.208 1040.31 209.207 1041.01 209.272C1041.67 209.331 1043.05 209.488 1044.89 209.947L1036.16 244.872ZM1039.85 245.208V281.208C1063.28 281.208 1081.92 268.922 1092.71 249.792L1061.36 232.104L1030 214.416C1029.97 214.47 1030.95 212.778 1033.55 211.19C1036.27 209.532 1038.77 209.208 1039.85 209.208V245.208ZM1061.36 232.104L1092.71 249.792C1101.04 235.03 1104.76 218.842 1104.41 202.122L1068.41 202.872L1032.42 203.622C1032.52 208.406 1031.53 211.706 1030 214.416L1061.36 232.104ZM1068.41 202.872L1104.39 201.587C1104.2 196.34 1103.35 187.047 1098.16 177.955C1091.44 166.199 1078.78 157.464 1063.04 157.464V193.464V229.464C1058.05 229.464 1052.17 228.226 1046.55 224.803C1041.05 221.457 1037.62 217.138 1035.65 213.677C1033.76 210.38 1033.04 207.621 1032.75 206.299C1032.59 205.566 1032.52 205.012 1032.48 204.683C1032.44 204.349 1032.44 204.165 1032.44 204.157L1068.41 202.872ZM1063.04 193.464V157.464C1051.92 157.464 1043.47 161.947 1038.52 165.377C1033.44 168.893 1029.51 173.03 1026.65 176.465L1054.3 199.512L1081.96 222.559C1082.46 221.962 1081.67 223.075 1079.5 224.575C1077.46 225.989 1071.69 229.464 1063.04 229.464V193.464ZM1054.3 199.512L1027.31 175.694C1020.28 183.664 1015.12 193.493 1011.13 202.803L1044.22 216.984L1077.31 231.165C1078.57 228.223 1079.63 226.132 1080.45 224.726C1081.29 223.267 1081.62 222.966 1081.3 223.33L1054.3 199.512ZM1044.22 216.984L1010.8 203.614C1006.69 213.886 1003.46 225.296 1000.92 237.53L1036.16 244.872L1071.4 252.214C1073.33 242.944 1075.48 235.762 1077.65 230.354L1044.22 216.984ZM1346.48 178.008L1321.81 204.223L1322.2 204.596L1322.61 204.957L1346.48 178.008ZM1348.49 228.744L1373.03 255.092L1373.03 255.092L1348.49 228.744ZM1301.12 230.76L1276.23 256.775L1276.54 257.064L1276.84 257.345L1301.12 230.76ZM1293.73 214.296L1329.7 215.628L1330.84 185.005L1300.79 178.995L1293.73 214.296ZM1288.01 216.984L1317.51 237.629L1317.51 237.629L1288.01 216.984ZM1282.97 230.088L1248.27 220.515L1248.21 220.72L1248.16 220.926L1282.97 230.088ZM1276.59 241.848L1249.5 218.142L1201.97 272.458L1273.95 277.751L1276.59 241.848ZM1310.53 252.264L1332.81 223.986L1332.81 223.986L1310.53 252.264ZM1319.26 288.216L1285.28 276.323L1284.78 277.753L1284.4 279.22L1319.26 288.216ZM1316.57 298.632L1350 312.002L1350.86 309.861L1351.43 307.628L1316.57 298.632ZM1326.99 304.344L1299.13 281.547L1299 281.701L1298.88 281.855L1326.99 304.344ZM1333.71 303L1300.62 317.181L1301.04 318.154L1301.51 319.1L1333.71 303ZM1334.72 308.04H1298.72V308.66L1298.74 309.281L1334.72 308.04ZM1328.67 327.192L1298.88 306.978L1298.8 307.1L1298.72 307.223L1328.67 327.192ZM1309.85 342.312L1324.88 375.024L1325.08 374.937L1325.27 374.847L1309.85 342.312ZM1243.66 337.272L1221.84 365.908L1222.01 366.031L1222.17 366.152L1243.66 337.272ZM1232.24 294.6L1198.59 281.812L1198.32 282.509L1198.09 283.216L1232.24 294.6ZM1238.62 277.8L1272.27 290.588L1272.86 289.035L1273.31 287.435L1238.62 277.8ZM1237.28 262.68L1215.68 291.48L1216.48 292.08L1217.31 292.634L1237.28 262.68ZM1221.82 260.664V224.664H1195.19L1187.4 250.126L1221.82 260.664ZM1206.7 310.056L1172.28 299.518L1172 300.415L1171.78 301.325L1206.7 310.056ZM1207.37 324.168L1176.85 343.248L1177.43 344.189L1178.08 345.093L1207.37 324.168ZM1212.08 328.872L1237.53 303.416L1235.95 301.831L1234.18 300.455L1212.08 328.872ZM1215.44 332.904L1184.57 351.426L1185.52 353.018L1186.64 354.504L1215.44 332.904ZM1215.77 336.6L1249.37 349.523L1249.95 348.029L1250.39 346.49L1215.77 336.6ZM1209.05 342.984L1195.68 309.559L1195.68 309.559L1209.05 342.984ZM1104.22 342.312L1082.62 371.112L1083.42 371.712L1084.25 372.266L1104.22 342.312ZM1101.53 334.584L1067.38 323.2L1067.13 323.942L1066.92 324.694L1101.53 334.584ZM1108.59 327.528L1125.43 359.344L1125.48 359.319L1125.53 359.293L1108.59 327.528ZM1116.99 321.144L1090.35 296.928L1116.99 321.144ZM1122.7 309.384L1088.26 298.894L1088.2 299.099L1088.14 299.304L1122.7 309.384ZM1173.77 141.72L1139.62 130.336L1139.47 130.781L1139.34 131.23L1173.77 141.72ZM1172.77 130.632L1143.47 151.557L1144.4 152.852L1145.43 154.061L1172.77 130.632ZM1168.06 125.928L1145.57 154.039L1145.77 154.193L1145.96 154.345L1168.06 125.928ZM1163.02 121.224L1133.07 141.193L1134.14 142.793L1135.37 144.271L1163.02 121.224ZM1162.69 115.848L1197.17 126.193L1197.36 125.567L1197.52 124.935L1162.69 115.848ZM1183.85 102.408L1173.57 67.9096L1173.57 67.9096L1183.85 102.408ZM1252.4 104.088L1229.66 131.996L1229.97 132.254L1230.3 132.505L1252.4 104.088ZM1259.12 138.696L1224.97 127.312L1224.83 127.73L1224.7 128.151L1259.12 138.696ZM1229.89 234.12L1195.47 223.575L1181.21 270.12H1229.89V234.12ZM1251.73 230.088L1227.31 203.635L1226.78 204.123L1226.27 204.632L1251.73 230.088ZM1258.45 218.328L1224.34 206.806L1224.17 207.323L1224.01 207.846L1258.45 218.328ZM1280.29 180.36L1305.42 206.136L1305.42 206.136L1280.29 180.36ZM1315.9 167.256V203.256C1318.94 203.256 1320.55 203.683 1321.18 203.905C1321.7 204.088 1321.78 204.195 1321.81 204.223L1346.48 178.008L1371.15 151.793C1355.45 137.015 1335.71 131.256 1315.9 131.256V167.256ZM1346.48 178.008L1322.61 204.957C1322.95 205.257 1323.03 205.385 1322.97 205.309C1322.91 205.224 1322.76 205.004 1322.6 204.659C1322.44 204.312 1322.33 203.975 1322.28 203.705C1322.22 203.443 1322.24 203.369 1322.24 203.544H1358.24H1394.24C1394.24 182.71 1385.56 164.532 1370.35 151.059L1346.48 178.008ZM1358.24 203.544H1322.24C1322.24 205.32 1321.97 205.584 1322.23 204.925C1322.35 204.595 1322.57 204.141 1322.91 203.638C1323.25 203.134 1323.62 202.713 1323.96 202.396L1348.49 228.744L1373.03 255.092C1388.35 240.822 1394.24 222.009 1394.24 203.544H1358.24ZM1348.49 228.744L1323.96 202.396C1324.13 202.243 1324.35 202.066 1324.62 201.904C1324.89 201.744 1325.09 201.658 1325.19 201.625C1325.38 201.556 1324.78 201.816 1322.96 201.816V237.816V273.816C1340.79 273.816 1358.66 268.47 1373.03 255.092L1348.49 228.744ZM1322.96 237.816V201.816C1321.18 201.816 1320.86 201.586 1321.51 201.795C1321.86 201.907 1322.43 202.131 1323.15 202.538C1323.88 202.95 1324.65 203.494 1325.39 204.175L1301.12 230.76L1276.84 257.345C1290.65 269.953 1307.75 273.816 1322.96 273.816V237.816ZM1301.12 230.76L1326 204.745C1326.17 204.907 1327.26 206.006 1328.25 208.203C1329.3 210.538 1329.79 213.158 1329.7 215.628L1293.73 214.296L1257.75 212.964C1257.08 231.145 1265.1 246.125 1276.23 256.775L1301.12 230.76ZM1293.73 214.296L1300.79 178.995C1292.79 177.395 1283.83 178.041 1275.29 182.059C1267.2 185.865 1261.86 191.577 1258.52 196.339L1288.01 216.984L1317.51 237.629C1315.74 240.151 1312.13 244.295 1305.95 247.205C1299.31 250.327 1292.42 250.748 1286.67 249.597L1293.73 214.296ZM1288.01 216.984L1258.52 196.339C1253 204.234 1250.01 214.192 1248.27 220.515L1282.97 230.088L1317.68 239.661C1318.02 238.421 1318.32 237.4 1318.59 236.574C1318.86 235.741 1319.05 235.186 1319.18 234.863C1319.31 234.521 1319.3 234.586 1319.13 234.943C1319.03 235.134 1318.87 235.459 1318.62 235.887C1318.38 236.309 1318.01 236.909 1317.51 237.629L1288.01 216.984ZM1282.97 230.088L1248.16 220.926C1248.34 220.228 1248.61 219.585 1248.9 219.045C1249.19 218.514 1249.43 218.218 1249.5 218.142L1276.59 241.848L1303.68 265.554C1310.18 258.134 1315.14 249.319 1317.79 239.25L1282.97 230.088ZM1276.59 241.848L1273.95 277.751C1279.61 278.167 1283.47 278.952 1285.94 279.707C1288.39 280.461 1288.81 280.989 1288.25 280.542L1310.53 252.264L1332.81 223.986C1317.26 211.734 1297.56 207.293 1279.23 205.945L1276.59 241.848ZM1310.53 252.264L1288.25 280.542C1288.25 280.547 1287.35 279.805 1286.55 278.167C1285.73 276.501 1285.61 275.152 1285.61 274.776H1321.61H1357.61C1357.61 254.248 1348.61 236.44 1332.81 223.986L1310.53 252.264ZM1321.61 274.776H1285.61C1285.61 274.971 1285.59 275.437 1285.28 276.323L1319.26 288.216L1353.24 300.109C1356.07 292.035 1357.61 283.541 1357.61 274.776H1321.61ZM1319.26 288.216L1284.4 279.22L1281.72 289.636L1316.57 298.632L1351.43 307.628L1354.12 297.212L1319.26 288.216ZM1316.57 298.632L1283.15 285.262C1280.38 292.174 1279.9 298.645 1279.9 303H1315.9H1351.9C1351.9 303.56 1351.87 304.617 1351.65 306.038C1351.44 307.444 1350.99 309.535 1350 312.002L1316.57 298.632ZM1315.9 303H1279.9C1279.9 309.482 1281.35 321.05 1290.61 331.024C1300.34 341.501 1312.55 343.704 1320.27 343.704V307.704V271.704C1325.08 271.704 1335.1 273.123 1343.37 282.032C1351.18 290.438 1351.9 299.654 1351.9 303H1315.9ZM1320.27 307.704V343.704C1334.71 343.704 1347.01 336.953 1355.1 326.833L1326.99 304.344L1298.88 281.855C1300.76 279.498 1303.7 276.75 1307.87 274.665C1312.11 272.544 1316.44 271.704 1320.27 271.704V307.704ZM1326.99 304.344L1354.85 327.141C1355.45 326.415 1355.03 327.017 1353.84 328.11C1353.28 328.624 1351.66 330.075 1349.16 331.597C1347.87 332.387 1345.83 333.518 1343.13 334.505C1340.5 335.469 1336.31 336.648 1331.02 336.648V300.648V264.648C1320.91 264.648 1313.79 268.832 1311.62 270.161C1308.62 271.991 1306.42 273.904 1305.18 275.034C1302.65 277.359 1300.55 279.809 1299.13 281.547L1326.99 304.344ZM1331.02 300.648V336.648C1322.28 336.648 1314.49 333.286 1308.83 328.329C1303.86 323.98 1301.55 319.358 1300.62 317.181L1333.71 303L1366.8 288.819C1363.84 281.912 1353.53 264.648 1331.02 264.648V300.648ZM1333.71 303L1301.51 319.1C1298.98 314.037 1298.72 309.791 1298.72 308.04H1334.72H1370.72C1370.72 302.257 1369.78 294.651 1365.91 286.9L1333.71 303ZM1334.72 308.04L1298.74 309.281C1298.71 308.314 1298.86 307.453 1299.05 306.859C1299.22 306.317 1299.3 306.355 1298.88 306.978L1328.67 327.192L1358.46 347.406C1366.26 335.904 1371.23 322.136 1370.7 306.799L1334.72 308.04ZM1328.67 327.192L1298.72 307.223C1299.23 306.459 1298.77 307.729 1294.44 309.777L1309.85 342.312L1325.27 374.847C1337.97 368.831 1350.05 360.021 1358.62 347.161L1328.67 327.192ZM1309.85 342.312L1294.82 309.6C1292.45 310.692 1287.8 312.024 1279.61 312.024V348.024V384.024C1295.17 384.024 1310.69 381.548 1324.88 375.024L1309.85 342.312ZM1279.61 348.024V312.024C1271.48 312.024 1267.44 310.092 1265.15 308.392L1243.66 337.272L1222.17 366.152C1239.15 378.788 1259.08 384.024 1279.61 384.024V348.024ZM1243.66 337.272L1265.48 308.636C1265 308.272 1264.86 308.089 1264.9 308.139C1264.92 308.162 1264.97 308.228 1265.05 308.338C1265.12 308.448 1265.2 308.584 1265.28 308.74C1265.36 308.897 1265.42 309.052 1265.47 309.196C1265.52 309.339 1265.55 309.449 1265.57 309.515C1265.6 309.655 1265.55 309.528 1265.55 309.048H1229.55H1193.55C1193.55 332.133 1203.66 352.054 1221.84 365.908L1243.66 337.272ZM1229.55 309.048H1265.55C1265.55 309.43 1265.51 309.383 1265.62 308.829C1265.72 308.276 1265.94 307.34 1266.39 305.984L1232.24 294.6L1198.09 283.216C1195.45 291.123 1193.55 299.881 1193.55 309.048H1229.55ZM1232.24 294.6L1265.89 307.388L1272.27 290.588L1238.62 277.8L1204.97 265.012L1198.59 281.812L1232.24 294.6ZM1238.62 277.8L1273.31 287.435C1274.45 283.318 1276.3 276.224 1276.3 269.064H1240.3H1204.3C1204.3 268.363 1204.33 267.787 1204.36 267.362C1204.39 266.932 1204.42 266.594 1204.45 266.362C1204.5 265.918 1204.55 265.709 1204.53 265.793C1204.52 265.864 1204.47 266.098 1204.37 266.521C1204.27 266.938 1204.13 267.481 1203.94 268.165L1238.62 277.8ZM1240.3 269.064H1276.3C1276.3 256.905 1271.4 242.159 1257.25 232.726L1237.28 262.68L1217.31 292.634C1213.05 289.797 1209.38 285.705 1207.01 280.695C1204.76 275.94 1204.3 271.706 1204.3 269.064H1240.3ZM1237.28 262.68L1258.88 233.88C1247.56 225.394 1234.88 224.664 1228.54 224.664V260.664V296.664C1228.71 296.664 1227.59 296.693 1225.66 296.246C1223.77 295.811 1219.9 294.646 1215.68 291.48L1237.28 262.68ZM1228.54 260.664V224.664H1221.82V260.664V296.664H1228.54V260.664ZM1221.82 260.664L1187.4 250.126L1172.28 299.518L1206.7 310.056L1241.13 320.594L1256.25 271.202L1221.82 260.664ZM1206.7 310.056L1171.78 301.325C1170.64 305.886 1169.69 311.288 1169.69 317.112H1205.69H1241.69C1241.69 318.076 1241.62 318.706 1241.58 318.927C1241.55 319.157 1241.54 319.123 1241.63 318.787L1206.7 310.056ZM1205.69 317.112H1169.69C1169.69 324.316 1171.04 333.959 1176.85 343.248L1207.37 324.168L1237.9 305.088C1241.47 310.793 1241.69 315.732 1241.69 317.112H1205.69ZM1207.37 324.168L1178.08 345.093C1181.76 350.241 1186.05 354.234 1189.98 357.289L1212.08 328.872L1234.18 300.455C1234.18 300.459 1234.25 300.507 1234.36 300.603C1234.47 300.699 1234.63 300.852 1234.85 301.064C1235.26 301.478 1235.92 302.194 1236.67 303.243L1207.37 324.168ZM1212.08 328.872L1186.62 354.328C1186.83 354.535 1186.73 354.452 1186.44 354.103C1186.18 353.796 1185.44 352.884 1184.57 351.426L1215.44 332.904L1246.31 314.382C1243.43 309.589 1239.95 305.836 1237.53 303.416L1212.08 328.872ZM1215.44 332.904L1186.64 354.504C1177.87 342.819 1179.99 330.801 1181.16 326.71L1215.77 336.6L1250.39 346.49C1252.45 339.263 1254.35 324.781 1244.24 311.304L1215.44 332.904ZM1215.77 336.6L1182.17 323.677C1183.51 320.192 1185.66 316.937 1188.46 314.28C1191.16 311.711 1193.84 310.297 1195.68 309.559L1209.05 342.984L1222.42 376.409C1233.46 371.996 1244.07 363.307 1249.37 349.523L1215.77 336.6ZM1209.05 342.984L1195.68 309.559C1196.79 309.116 1197.58 308.911 1197.9 308.835C1198.24 308.756 1198.3 308.761 1198.01 308.798C1197.74 308.834 1197.24 308.887 1196.47 308.929C1195.71 308.972 1194.76 309 1193.6 309V345V381C1201.7 381 1212.5 380.38 1222.42 376.409L1209.05 342.984ZM1193.6 345V309H1116.99V345V381H1193.6V345ZM1116.99 345V309C1115.79 309 1115.87 308.896 1116.85 309.1C1117.74 309.288 1120.65 310 1124.19 312.358L1104.22 342.312L1084.25 372.266C1095.94 380.06 1109.01 381 1116.99 381V345ZM1104.22 342.312L1125.82 313.512C1128.87 315.798 1133.14 320.139 1135.54 327.041C1137.97 334.038 1137.33 340.339 1136.15 344.474L1101.53 334.584L1066.92 324.694C1064.84 331.965 1064.2 341.122 1067.53 350.695C1070.83 360.173 1076.89 366.81 1082.62 371.112L1104.22 342.312ZM1101.53 334.584L1135.69 345.968C1132.45 355.692 1125.65 359.23 1125.43 359.344L1108.59 327.528L1091.75 295.712C1083.91 299.858 1072.42 308.1 1067.38 323.2L1101.53 334.584ZM1108.59 327.528L1125.53 359.293C1132.02 355.834 1138.25 351.282 1143.63 345.36L1116.99 321.144L1090.35 296.928C1091.26 295.934 1091.88 295.638 1091.65 295.763L1108.59 327.528ZM1116.99 321.144L1143.63 345.36C1151.24 336.982 1155.07 326.969 1157.26 319.464L1122.7 309.384L1088.14 299.304C1087.77 300.568 1087.58 300.913 1087.72 300.627C1087.8 300.46 1088.02 300.032 1088.41 299.422C1088.81 298.814 1089.43 297.938 1090.35 296.928L1116.99 321.144ZM1122.7 309.384L1157.14 319.874L1208.21 152.21L1173.77 141.72L1139.34 131.23L1088.26 298.894L1122.7 309.384ZM1173.77 141.72L1207.93 153.104C1209.2 149.291 1210.78 143.469 1210.78 136.68H1174.78H1138.78C1138.78 134.439 1139.05 132.773 1139.23 131.888C1139.41 130.966 1139.59 130.423 1139.62 130.336L1173.77 141.72ZM1174.78 136.68H1210.78C1210.78 127.362 1208.07 116.506 1200.1 107.203L1172.77 130.632L1145.43 154.061C1140.15 147.894 1138.78 141.07 1138.78 136.68H1174.78ZM1172.77 130.632L1202.06 109.707C1198.38 104.559 1194.09 100.566 1190.16 97.5113L1168.06 125.928L1145.96 154.345C1145.96 154.341 1145.89 154.293 1145.78 154.197C1145.67 154.101 1145.51 153.948 1145.29 153.736C1144.88 153.322 1144.22 152.606 1143.47 151.557L1172.77 130.632ZM1168.06 125.928L1190.55 97.8167C1190.27 97.5953 1190.07 97.421 1189.92 97.2928C1189.77 97.1636 1189.69 97.0965 1189.69 97.09C1189.68 97.0819 1189.76 97.1599 1189.92 97.3221C1190.07 97.4813 1190.34 97.7675 1190.68 98.1773L1163.02 121.224L1135.37 144.271C1138.7 148.269 1142.48 151.564 1145.57 154.039L1168.06 125.928ZM1163.02 121.224L1192.98 101.255C1200.32 112.275 1198.15 122.913 1197.17 126.193L1162.69 115.848L1128.2 105.503C1125.88 113.263 1123.93 127.485 1133.07 141.193L1163.02 121.224ZM1162.69 115.848L1197.52 124.935C1196.2 130.01 1193.78 133.61 1191.9 135.771C1190.1 137.836 1188.6 138.817 1188.28 139.016C1187.86 139.284 1189.29 138.353 1194.14 136.906L1183.85 102.408L1173.57 67.9096C1165.65 70.2708 1157.17 73.4843 1149.69 78.2323C1142.68 82.6836 1131.83 91.5148 1127.85 106.761L1162.69 115.848ZM1183.85 102.408L1194.14 136.906C1203.43 134.136 1213.29 132.696 1223.84 132.696V96.696V60.696C1206.61 60.696 1189.81 63.0643 1173.57 67.9096L1183.85 102.408ZM1223.84 96.696V132.696C1228.2 132.696 1230.66 133.125 1231.7 133.396C1232.71 133.656 1231.56 133.544 1229.66 131.996L1252.4 104.088L1275.14 76.1795C1259.61 63.5253 1240.05 60.696 1223.84 60.696V96.696ZM1252.4 104.088L1230.3 132.505C1229 131.498 1227.5 129.805 1226.47 127.552C1225.49 125.418 1225.47 123.948 1225.47 123.912H1261.47H1297.47C1297.47 105.7 1290.37 88.0165 1274.5 75.6713L1252.4 104.088ZM1261.47 123.912H1225.47C1225.47 125.347 1225.26 126.421 1224.97 127.312L1259.12 138.696L1293.27 150.08C1296.11 141.563 1297.47 132.781 1297.47 123.912H1261.47ZM1259.12 138.696L1224.7 128.151L1195.47 223.575L1229.89 234.12L1264.31 244.664L1293.54 149.24L1259.12 138.696ZM1229.89 234.12V270.12H1240.97V234.12V198.12H1229.89V234.12ZM1240.97 234.12V270.12C1253.17 270.12 1266.55 266.178 1277.18 255.544L1251.73 230.088L1226.27 204.632C1228.59 202.316 1231.4 200.524 1234.38 199.404C1237.26 198.326 1239.62 198.12 1240.97 198.12V234.12ZM1251.73 230.088L1276.14 256.541C1285.15 248.228 1290.1 237.969 1292.89 228.81L1258.45 218.328L1224.01 207.846C1223.66 208.991 1224.13 206.572 1227.31 203.635L1251.73 230.088ZM1258.45 218.328L1292.55 229.85C1297.01 216.646 1301.83 209.636 1305.42 206.136L1280.29 180.36L1255.15 154.584C1240.82 168.556 1231.08 186.857 1224.34 206.806L1258.45 218.328ZM1280.29 180.36L1305.42 206.136C1306.45 205.127 1308.68 203.256 1315.9 203.256V167.256V131.256C1293.55 131.256 1272.04 138.121 1255.15 154.584L1280.29 180.36Z" fill="black" mask="url(#path-28-outside-1_28_29)"/>
<defs>
<clipPath id="clip0_28_29">
<rect y="29" width="432" height="432" rx="216" fill="white"/>
</clipPath>
</defs>
</svg>
