<svg width="758" height="515" viewBox="0 0 758 515" fill="none" xmlns="http://www.w3.org/2000/svg">
<g clip-path="url(#clip0_77_80)">
<rect x="162.5" y="7" width="432" height="432" rx="216" fill="white"/>
<path d="M407.301 7C504.51 58.7263 675.478 243.463 581.676 568.6" stroke="white" stroke-width="28.8" stroke-linecap="round"/>
<path d="M349.701 12.76C446.91 64.4863 617.878 249.223 524.076 574.36" stroke="white" stroke-width="36" stroke-linecap="round"/>
<path d="M378.5 6.99988C475.709 58.7262 646.677 243.463 552.875 568.6" stroke="black" stroke-width="36" stroke-linecap="round"/>
<path d="M326.66 21.3999C423.869 73.1262 594.837 257.863 501.035 583" stroke="black" stroke-width="36" stroke-linecap="round"/>
<path d="M427.46 -10.28C524.67 41.4463 695.637 226.183 601.836 551.32" stroke="black" stroke-width="36" stroke-linecap="round"/>
<path d="M601.857 62.5715C491.743 62.8618 254.252 146.261 185.2 477.539" stroke="white" stroke-width="34.56" stroke-linecap="round"/>
<path d="M650.085 94.587C539.971 94.8773 302.48 178.277 233.428 509.554" stroke="white" stroke-width="34.56" stroke-linecap="round"/>
<path d="M629.863 77.3795C519.749 77.6697 282.258 161.069 213.206 492.347" stroke="black" stroke-width="36" stroke-linecap="round"/>
<path d="M666.415 112.995C556.301 113.285 318.809 196.685 249.757 527.962" stroke="black" stroke-width="36" stroke-linecap="round"/>
<path d="M592.112 37.8724C481.998 38.1627 244.507 121.562 175.455 452.84" stroke="black" stroke-width="36" stroke-linecap="round"/>
<path d="M497.538 559.556C364.634 493.716 194.933 307.773 285.506 -46.2808" stroke="white" stroke-width="34.56" stroke-linecap="round"/>
<path d="M561.868 550.662C450.538 499.59 250.52 308.932 341.093 -45.1217" stroke="white" stroke-width="34.56" stroke-linecap="round"/>
<path d="M533.062 558.071C421.732 506.999 221.714 316.341 312.287 -37.7124" stroke="black" stroke-width="36" stroke-linecap="round"/>
<path d="M587.316 540.291C475.986 489.219 275.968 298.561 366.541 -55.493" stroke="black" stroke-width="36" stroke-linecap="round"/>
<path d="M475.708 579.084C364.378 528.011 164.36 337.354 254.933 -16.7002" stroke="black" stroke-width="36" stroke-linecap="round"/>
<path d="M695.451 140.05C650.66 266.2 498.711 440.998 158.18 408.76" stroke="white" stroke-width="34.56" stroke-linecap="round"/>
<path d="M679.217 84.4791C645.492 189.602 492.909 391.788 152.378 359.55" stroke="white" stroke-width="34.56" stroke-linecap="round"/>
<path d="M689.674 108.902C655.949 214.024 503.366 416.211 162.835 383.973" stroke="black" stroke-width="36" stroke-linecap="round"/>
<path d="M666.42 63.4197C632.695 168.542 480.112 370.729 139.582 338.491" stroke="black" stroke-width="36" stroke-linecap="round"/>
<path d="M716.317 156.684C682.592 261.807 530.009 463.993 189.479 431.755" stroke="black" stroke-width="36" stroke-linecap="round"/>
<path d="M741.531 319.876C696.74 446.025 544.791 620.823 204.26 588.585" stroke="white" stroke-width="34.56" stroke-linecap="round"/>
<path d="M725.297 264.305C691.571 369.428 538.989 571.614 198.458 539.376" stroke="white" stroke-width="34.56" stroke-linecap="round"/>
<path d="M735.753 288.727C702.028 393.85 549.445 596.036 208.915 563.798" stroke="black" stroke-width="36" stroke-linecap="round"/>
<path d="M712.5 243.245C678.775 348.368 526.193 550.554 185.662 518.316" stroke="black" stroke-width="36" stroke-linecap="round"/>
<path d="M762.397 336.509C728.672 441.632 576.089 643.818 235.558 611.581" stroke="black" stroke-width="36" stroke-linecap="round"/>
</g>
<rect x="180.5" y="25" width="396" height="396" rx="198" stroke="black" stroke-width="36"/>
<mask id="path-28-outside-1_77_80" maskUnits="userSpaceOnUse" x="3" y="227.5" width="754" height="268" fill="black">
<rect fill="white" x="3" y="227.5" width="754" height="268"/>
<path d="M138.24 281.78C147.947 281.78 156.873 282.993 165.02 285.42C173.34 287.673 181.747 291.313 190.24 296.34L196.22 291.4C200.38 288.107 203.76 285.853 206.36 284.64C209.133 283.427 212.253 282.82 215.72 282.82C219.88 282.82 223.173 283.773 225.6 285.68C228.027 287.413 229.24 290.013 229.24 293.48C229.24 294.867 228.98 296.34 228.46 297.9L217.54 333.78C216.327 337.94 214.767 340.887 212.86 342.62C211.127 344.353 208.44 345.22 204.8 345.22C200.987 345.22 197.607 344.093 194.66 341.84C191.887 339.413 187.467 334.56 181.4 327.28C175.333 320.347 169.787 315.493 164.76 312.72C159.907 309.773 154.88 308.3 149.68 308.3C145.867 308.3 142.66 309.6 140.06 312.2C137.46 314.627 136.16 317.66 136.16 321.3C136.16 325.46 138.24 329.36 142.4 333C146.56 336.467 153.06 340.887 161.9 346.26C170.913 351.633 178.367 356.487 184.26 360.82C190.153 365.153 195.18 370.527 199.34 376.94C203.5 383.353 205.58 390.72 205.58 399.04C205.58 404.413 204.713 409.787 202.98 415.16C198.82 429.027 190.76 439.6 178.8 446.88C166.84 453.987 152.887 457.54 136.94 457.54C124.98 457.54 114.927 456.153 106.78 453.38C98.6333 450.607 90.3133 445.927 81.82 439.34L72.46 447.14C68.1267 450.78 64.5733 453.293 61.8 454.68C59.0267 455.893 55.9067 456.5 52.44 456.5C48.4533 456.5 45.2467 455.547 42.82 453.64C40.5667 451.733 39.44 449.133 39.44 445.84C39.44 444.107 39.7867 442.287 40.48 440.38L53.22 401.64C54.6067 397.133 56.5133 393.927 58.94 392.02C61.3667 390.113 64.4867 389.16 68.3 389.16C72.2867 389.16 75.84 390.547 78.96 393.32C82.2533 396.093 86.5 401.12 91.7 408.4C97.2467 416.373 102.36 421.92 107.04 425.04C111.893 428.16 117.613 429.72 124.2 429.72C128.88 429.72 132.433 429.027 134.86 427.64C137.46 426.08 139.28 423.653 140.32 420.36C140.667 419.493 140.84 418.193 140.84 416.46C140.84 412.3 138.847 408.487 134.86 405.02C130.873 401.553 124.72 397.393 116.4 392.54C107.56 387.167 100.367 382.4 94.82 378.24C89.2733 373.907 84.42 368.533 80.26 362.12C76.2733 355.707 74.28 348.167 74.28 339.5C74.28 333.433 75.2333 327.453 77.14 321.56C80.78 309.6 88.2333 299.98 99.5 292.7C110.767 285.42 123.68 281.78 138.24 281.78ZM284.998 264.36C295.051 264.36 302.418 266.267 307.098 270.08C311.951 273.893 314.378 279.093 314.378 285.68C314.378 289.493 313.771 293.22 312.558 296.86L271.738 429.46C271.218 431.54 270.958 433.36 270.958 434.92C270.958 437.173 271.391 438.993 272.258 440.38C273.124 441.593 274.338 442.807 275.898 444.02C277.111 445.233 277.978 446.273 278.498 447.14C279.018 447.833 279.104 448.787 278.758 450C277.891 452.253 276.158 453.9 273.558 454.94C270.958 455.98 266.971 456.5 261.598 456.5H202.318C197.811 456.5 194.518 455.807 192.438 454.42C190.358 452.86 189.664 450.867 190.358 448.44C191.051 446.36 192.871 444.54 195.818 442.98C198.418 441.593 200.584 439.947 202.318 438.04C204.051 436.133 205.524 433.1 206.738 428.94L246.258 299.2C246.778 297.64 247.038 296.34 247.038 295.3C247.038 293.393 246.518 291.833 245.478 290.62C244.611 289.407 243.398 288.193 241.838 286.98C240.104 285.593 238.804 284.38 237.938 283.34C237.244 282.3 237.158 280.913 237.678 279.18C238.718 275.193 244.178 271.727 254.058 268.78C263.938 265.833 274.251 264.36 284.998 264.36ZM367.213 317.66C389.226 317.66 405.173 321.213 415.053 328.32C424.933 335.253 429.873 344.18 429.873 355.1C429.873 358.393 429.526 361.427 428.833 364.2C426.233 375.64 418.953 383.873 406.993 388.9C395.206 393.753 381.253 396.18 365.133 396.18C356.986 396.18 349.359 395.66 342.253 394.62C342.079 403.633 344.506 409.96 349.533 413.6C354.559 417.24 361.579 419.06 370.593 419.06C374.753 419.06 378.739 418.627 382.553 417.76C386.366 416.72 391.219 415.247 397.113 413.34C401.966 411.607 405.259 410.74 406.993 410.74C408.899 410.74 409.853 411.867 409.853 414.12C410.026 420.187 407.773 426.6 403.093 433.36C398.413 439.947 391.479 445.58 382.293 450.26C373.106 454.94 362.013 457.28 349.013 457.28C329.773 457.28 313.999 452.427 301.693 442.72C289.386 433.013 283.233 418.887 283.233 400.34C283.233 395.14 283.926 389.073 285.313 382.14C289.646 360.82 299.093 344.787 313.653 334.04C328.386 323.12 346.239 317.66 367.213 317.66ZM344.073 379.02C344.766 379.193 345.719 379.28 346.933 379.28C354.213 379.28 359.759 375.9 363.573 369.14C367.386 362.38 369.206 354.84 369.033 346.52C368.859 341.667 367.473 339.24 364.873 339.24C362.966 339.24 360.713 340.8 358.113 343.92C355.513 346.867 352.913 351.373 350.313 357.44C347.886 363.507 345.806 370.7 344.073 379.02ZM494.501 317.66C516.514 317.66 532.461 321.213 542.341 328.32C552.221 335.253 557.161 344.18 557.161 355.1C557.161 358.393 556.814 361.427 556.121 364.2C553.521 375.64 546.241 383.873 534.281 388.9C522.494 393.753 508.541 396.18 492.421 396.18C484.274 396.18 476.648 395.66 469.541 394.62C469.368 403.633 471.794 409.96 476.821 413.6C481.848 417.24 488.868 419.06 497.881 419.06C502.041 419.06 506.028 418.627 509.841 417.76C513.654 416.72 518.508 415.247 524.401 413.34C529.254 411.607 532.548 410.74 534.281 410.74C536.188 410.74 537.141 411.867 537.141 414.12C537.314 420.187 535.061 426.6 530.381 433.36C525.701 439.947 518.768 445.58 509.581 450.26C500.394 454.94 489.301 457.28 476.301 457.28C457.061 457.28 441.288 452.427 428.981 442.72C416.674 433.013 410.521 418.887 410.521 400.34C410.521 395.14 411.214 389.073 412.601 382.14C416.934 360.82 426.381 344.787 440.941 334.04C455.674 323.12 473.528 317.66 494.501 317.66ZM471.361 379.02C472.054 379.193 473.008 379.28 474.221 379.28C481.501 379.28 487.048 375.9 490.861 369.14C494.674 362.38 496.494 354.84 496.321 346.52C496.148 341.667 494.761 339.24 492.161 339.24C490.254 339.24 488.001 340.8 485.401 343.92C482.801 346.867 480.201 351.373 477.601 357.44C475.174 363.507 473.094 370.7 471.361 379.02ZM687.829 318.96C697.709 318.96 705.596 321.733 711.489 327.28C717.556 332.653 720.589 339.24 720.589 347.04C720.589 355.36 718.076 361.86 713.049 366.54C708.023 371.22 701.436 373.56 693.289 373.56C686.009 373.56 680.376 371.74 676.389 368.1C672.403 364.287 670.496 360.04 670.669 355.36C668.936 355.013 667.463 355.707 666.249 357.44C665.036 359.173 663.736 362.553 662.349 367.58C661.483 370.873 659.836 373.907 657.409 376.68C669.196 377.547 677.949 380.233 683.669 384.74C689.389 389.247 692.249 395.053 692.249 402.16C692.249 405.627 691.643 409.093 690.429 412.56L688.349 420.62C688.003 421.487 687.829 422.613 687.829 424C687.829 426.427 688.956 427.64 691.209 427.64C693.289 427.64 695.023 426.773 696.409 425.04C697.969 423.133 699.009 422.18 699.529 422.18C700.396 422.18 701.089 422.787 701.609 424C702.129 425.04 702.389 426.34 702.389 427.9C702.563 432.927 701.003 437.867 697.709 442.72C694.589 447.4 689.736 451.3 683.149 454.42C676.736 457.367 668.936 458.84 659.749 458.84C648.656 458.84 639.383 456.067 631.929 450.52C624.649 444.973 621.009 437.693 621.009 428.68C621.009 425.387 621.703 421.66 623.089 417.5L628.029 404.5C628.896 401.38 629.329 399.127 629.329 397.74C629.329 395.487 628.549 393.84 626.989 392.8C625.603 391.76 623.349 391.24 620.229 391.24H615.029L603.329 429.46C602.809 431.54 602.549 433.36 602.549 434.92C602.549 437.173 602.983 438.993 603.849 440.38C604.716 441.593 605.929 442.807 607.489 444.02C608.703 445.233 609.569 446.273 610.089 447.14C610.609 447.833 610.696 448.787 610.349 450C609.483 452.253 607.749 453.9 605.149 454.94C602.549 455.98 598.563 456.5 593.189 456.5H533.909C529.403 456.5 526.109 455.807 524.029 454.42C521.949 452.86 521.256 450.867 521.949 448.44C522.643 446.36 524.463 444.54 527.409 442.98C530.009 441.593 532.176 439.947 533.909 438.04C535.643 436.133 537.116 433.1 538.329 428.94L577.849 299.2C578.369 297.64 578.629 296.34 578.629 295.3C578.629 293.393 578.109 291.833 577.069 290.62C576.203 289.407 574.989 288.193 573.429 286.98C571.696 285.593 570.396 284.38 569.529 283.34C568.836 282.3 568.749 280.913 569.269 279.18C570.309 275.193 575.769 271.727 585.649 268.78C595.529 265.833 605.843 264.36 616.589 264.36C626.643 264.36 634.009 266.267 638.689 270.08C643.369 273.72 645.709 278.833 645.709 285.42C645.709 289.407 645.103 293.22 643.889 296.86L621.269 370.7H629.849C633.316 370.7 636.089 369.66 638.169 367.58C640.423 365.5 642.156 362.467 643.369 358.48C647.703 345.653 653.336 335.86 660.269 329.1C667.203 322.34 676.389 318.96 687.829 318.96Z"/>
</mask>
<path d="M138.24 281.78C147.947 281.78 156.873 282.993 165.02 285.42C173.34 287.673 181.747 291.313 190.24 296.34L196.22 291.4C200.38 288.107 203.76 285.853 206.36 284.64C209.133 283.427 212.253 282.82 215.72 282.82C219.88 282.82 223.173 283.773 225.6 285.68C228.027 287.413 229.24 290.013 229.24 293.48C229.24 294.867 228.98 296.34 228.46 297.9L217.54 333.78C216.327 337.94 214.767 340.887 212.86 342.62C211.127 344.353 208.44 345.22 204.8 345.22C200.987 345.22 197.607 344.093 194.66 341.84C191.887 339.413 187.467 334.56 181.4 327.28C175.333 320.347 169.787 315.493 164.76 312.72C159.907 309.773 154.88 308.3 149.68 308.3C145.867 308.3 142.66 309.6 140.06 312.2C137.46 314.627 136.16 317.66 136.16 321.3C136.16 325.46 138.24 329.36 142.4 333C146.56 336.467 153.06 340.887 161.9 346.26C170.913 351.633 178.367 356.487 184.26 360.82C190.153 365.153 195.18 370.527 199.34 376.94C203.5 383.353 205.58 390.72 205.58 399.04C205.58 404.413 204.713 409.787 202.98 415.16C198.82 429.027 190.76 439.6 178.8 446.88C166.84 453.987 152.887 457.54 136.94 457.54C124.98 457.54 114.927 456.153 106.78 453.38C98.6333 450.607 90.3133 445.927 81.82 439.34L72.46 447.14C68.1267 450.78 64.5733 453.293 61.8 454.68C59.0267 455.893 55.9067 456.5 52.44 456.5C48.4533 456.5 45.2467 455.547 42.82 453.64C40.5667 451.733 39.44 449.133 39.44 445.84C39.44 444.107 39.7867 442.287 40.48 440.38L53.22 401.64C54.6067 397.133 56.5133 393.927 58.94 392.02C61.3667 390.113 64.4867 389.16 68.3 389.16C72.2867 389.16 75.84 390.547 78.96 393.32C82.2533 396.093 86.5 401.12 91.7 408.4C97.2467 416.373 102.36 421.92 107.04 425.04C111.893 428.16 117.613 429.72 124.2 429.72C128.88 429.72 132.433 429.027 134.86 427.64C137.46 426.08 139.28 423.653 140.32 420.36C140.667 419.493 140.84 418.193 140.84 416.46C140.84 412.3 138.847 408.487 134.86 405.02C130.873 401.553 124.72 397.393 116.4 392.54C107.56 387.167 100.367 382.4 94.82 378.24C89.2733 373.907 84.42 368.533 80.26 362.12C76.2733 355.707 74.28 348.167 74.28 339.5C74.28 333.433 75.2333 327.453 77.14 321.56C80.78 309.6 88.2333 299.98 99.5 292.7C110.767 285.42 123.68 281.78 138.24 281.78ZM284.998 264.36C295.051 264.36 302.418 266.267 307.098 270.08C311.951 273.893 314.378 279.093 314.378 285.68C314.378 289.493 313.771 293.22 312.558 296.86L271.738 429.46C271.218 431.54 270.958 433.36 270.958 434.92C270.958 437.173 271.391 438.993 272.258 440.38C273.124 441.593 274.338 442.807 275.898 444.02C277.111 445.233 277.978 446.273 278.498 447.14C279.018 447.833 279.104 448.787 278.758 450C277.891 452.253 276.158 453.9 273.558 454.94C270.958 455.98 266.971 456.5 261.598 456.5H202.318C197.811 456.5 194.518 455.807 192.438 454.42C190.358 452.86 189.664 450.867 190.358 448.44C191.051 446.36 192.871 444.54 195.818 442.98C198.418 441.593 200.584 439.947 202.318 438.04C204.051 436.133 205.524 433.1 206.738 428.94L246.258 299.2C246.778 297.64 247.038 296.34 247.038 295.3C247.038 293.393 246.518 291.833 245.478 290.62C244.611 289.407 243.398 288.193 241.838 286.98C240.104 285.593 238.804 284.38 237.938 283.34C237.244 282.3 237.158 280.913 237.678 279.18C238.718 275.193 244.178 271.727 254.058 268.78C263.938 265.833 274.251 264.36 284.998 264.36ZM367.213 317.66C389.226 317.66 405.173 321.213 415.053 328.32C424.933 335.253 429.873 344.18 429.873 355.1C429.873 358.393 429.526 361.427 428.833 364.2C426.233 375.64 418.953 383.873 406.993 388.9C395.206 393.753 381.253 396.18 365.133 396.18C356.986 396.18 349.359 395.66 342.253 394.62C342.079 403.633 344.506 409.96 349.533 413.6C354.559 417.24 361.579 419.06 370.593 419.06C374.753 419.06 378.739 418.627 382.553 417.76C386.366 416.72 391.219 415.247 397.113 413.34C401.966 411.607 405.259 410.74 406.993 410.74C408.899 410.74 409.853 411.867 409.853 414.12C410.026 420.187 407.773 426.6 403.093 433.36C398.413 439.947 391.479 445.58 382.293 450.26C373.106 454.94 362.013 457.28 349.013 457.28C329.773 457.28 313.999 452.427 301.693 442.72C289.386 433.013 283.233 418.887 283.233 400.34C283.233 395.14 283.926 389.073 285.313 382.14C289.646 360.82 299.093 344.787 313.653 334.04C328.386 323.12 346.239 317.66 367.213 317.66ZM344.073 379.02C344.766 379.193 345.719 379.28 346.933 379.28C354.213 379.28 359.759 375.9 363.573 369.14C367.386 362.38 369.206 354.84 369.033 346.52C368.859 341.667 367.473 339.24 364.873 339.24C362.966 339.24 360.713 340.8 358.113 343.92C355.513 346.867 352.913 351.373 350.313 357.44C347.886 363.507 345.806 370.7 344.073 379.02ZM494.501 317.66C516.514 317.66 532.461 321.213 542.341 328.32C552.221 335.253 557.161 344.18 557.161 355.1C557.161 358.393 556.814 361.427 556.121 364.2C553.521 375.64 546.241 383.873 534.281 388.9C522.494 393.753 508.541 396.18 492.421 396.18C484.274 396.18 476.648 395.66 469.541 394.62C469.368 403.633 471.794 409.96 476.821 413.6C481.848 417.24 488.868 419.06 497.881 419.06C502.041 419.06 506.028 418.627 509.841 417.76C513.654 416.72 518.508 415.247 524.401 413.34C529.254 411.607 532.548 410.74 534.281 410.74C536.188 410.74 537.141 411.867 537.141 414.12C537.314 420.187 535.061 426.6 530.381 433.36C525.701 439.947 518.768 445.58 509.581 450.26C500.394 454.94 489.301 457.28 476.301 457.28C457.061 457.28 441.288 452.427 428.981 442.72C416.674 433.013 410.521 418.887 410.521 400.34C410.521 395.14 411.214 389.073 412.601 382.14C416.934 360.82 426.381 344.787 440.941 334.04C455.674 323.12 473.528 317.66 494.501 317.66ZM471.361 379.02C472.054 379.193 473.008 379.28 474.221 379.28C481.501 379.28 487.048 375.9 490.861 369.14C494.674 362.38 496.494 354.84 496.321 346.52C496.148 341.667 494.761 339.24 492.161 339.24C490.254 339.24 488.001 340.8 485.401 343.92C482.801 346.867 480.201 351.373 477.601 357.44C475.174 363.507 473.094 370.7 471.361 379.02ZM687.829 318.96C697.709 318.96 705.596 321.733 711.489 327.28C717.556 332.653 720.589 339.24 720.589 347.04C720.589 355.36 718.076 361.86 713.049 366.54C708.023 371.22 701.436 373.56 693.289 373.56C686.009 373.56 680.376 371.74 676.389 368.1C672.403 364.287 670.496 360.04 670.669 355.36C668.936 355.013 667.463 355.707 666.249 357.44C665.036 359.173 663.736 362.553 662.349 367.58C661.483 370.873 659.836 373.907 657.409 376.68C669.196 377.547 677.949 380.233 683.669 384.74C689.389 389.247 692.249 395.053 692.249 402.16C692.249 405.627 691.643 409.093 690.429 412.56L688.349 420.62C688.003 421.487 687.829 422.613 687.829 424C687.829 426.427 688.956 427.64 691.209 427.64C693.289 427.64 695.023 426.773 696.409 425.04C697.969 423.133 699.009 422.18 699.529 422.18C700.396 422.18 701.089 422.787 701.609 424C702.129 425.04 702.389 426.34 702.389 427.9C702.563 432.927 701.003 437.867 697.709 442.72C694.589 447.4 689.736 451.3 683.149 454.42C676.736 457.367 668.936 458.84 659.749 458.84C648.656 458.84 639.383 456.067 631.929 450.52C624.649 444.973 621.009 437.693 621.009 428.68C621.009 425.387 621.703 421.66 623.089 417.5L628.029 404.5C628.896 401.38 629.329 399.127 629.329 397.74C629.329 395.487 628.549 393.84 626.989 392.8C625.603 391.76 623.349 391.24 620.229 391.24H615.029L603.329 429.46C602.809 431.54 602.549 433.36 602.549 434.92C602.549 437.173 602.983 438.993 603.849 440.38C604.716 441.593 605.929 442.807 607.489 444.02C608.703 445.233 609.569 446.273 610.089 447.14C610.609 447.833 610.696 448.787 610.349 450C609.483 452.253 607.749 453.9 605.149 454.94C602.549 455.98 598.563 456.5 593.189 456.5H533.909C529.403 456.5 526.109 455.807 524.029 454.42C521.949 452.86 521.256 450.867 521.949 448.44C522.643 446.36 524.463 444.54 527.409 442.98C530.009 441.593 532.176 439.947 533.909 438.04C535.643 436.133 537.116 433.1 538.329 428.94L577.849 299.2C578.369 297.64 578.629 296.34 578.629 295.3C578.629 293.393 578.109 291.833 577.069 290.62C576.203 289.407 574.989 288.193 573.429 286.98C571.696 285.593 570.396 284.38 569.529 283.34C568.836 282.3 568.749 280.913 569.269 279.18C570.309 275.193 575.769 271.727 585.649 268.78C595.529 265.833 605.843 264.36 616.589 264.36C626.643 264.36 634.009 266.267 638.689 270.08C643.369 273.72 645.709 278.833 645.709 285.42C645.709 289.407 645.103 293.22 643.889 296.86L621.269 370.7H629.849C633.316 370.7 636.089 369.66 638.169 367.58C640.423 365.5 642.156 362.467 643.369 358.48C647.703 345.653 653.336 335.86 660.269 329.1C667.203 322.34 676.389 318.96 687.829 318.96Z" fill="white"/>
<path d="M165.02 285.42L154.743 319.922L155.174 320.05L155.609 320.168L165.02 285.42ZM190.24 296.34L171.904 327.321L193.669 340.202L213.168 324.095L190.24 296.34ZM196.22 291.4L173.875 263.174L173.581 263.407L173.292 263.645L196.22 291.4ZM206.36 284.64L191.93 251.658L191.531 251.833L191.136 252.017L206.36 284.64ZM225.6 285.68L203.358 313.987L204.006 314.496L204.675 314.974L225.6 285.68ZM228.46 297.9L194.307 286.516L194.158 286.965L194.02 287.418L228.46 297.9ZM217.54 333.78L183.1 323.298L183.039 323.499L182.98 323.7L217.54 333.78ZM212.86 342.62L188.644 315.982L188.01 316.558L187.404 317.164L212.86 342.62ZM194.66 341.84L170.954 368.933L171.848 369.715L172.792 370.437L194.66 341.84ZM181.4 327.28L209.056 304.233L208.778 303.9L208.493 303.574L181.4 327.28ZM164.76 312.72L146.077 343.492L146.715 343.88L147.369 344.241L164.76 312.72ZM140.06 312.2L164.623 338.518L165.077 338.095L165.516 337.656L140.06 312.2ZM142.4 333L118.694 360.093L119.02 360.378L119.353 360.656L142.4 333ZM161.9 346.26L143.201 377.023L143.333 377.103L143.466 377.182L161.9 346.26ZM184.26 360.82L162.934 389.823L162.934 389.823L184.26 360.82ZM202.98 415.16L168.718 404.108L168.605 404.461L168.498 404.815L202.98 415.16ZM178.8 446.88L197.19 477.829L197.354 477.731L197.518 477.631L178.8 446.88ZM106.78 453.38L118.382 419.301L118.382 419.301L106.78 453.38ZM81.82 439.34L103.882 410.892L81.0091 393.154L58.7734 411.684L81.82 439.34ZM72.46 447.14L49.4134 419.484L49.3591 419.529L49.3051 419.575L72.46 447.14ZM61.8 454.68L76.2295 487.662L77.0746 487.292L77.8997 486.879L61.8 454.68ZM42.82 453.64L19.5661 481.122L20.0648 481.544L20.5784 481.947L42.82 453.64ZM40.48 440.38L74.3126 452.683L74.5036 452.157L74.6782 451.626L40.48 440.38ZM53.22 401.64L87.4182 412.886L87.5263 412.558L87.628 412.227L53.22 401.64ZM58.94 392.02L81.1816 420.327L81.1816 420.327L58.94 392.02ZM78.96 393.32L55.0429 420.227L55.4028 420.547L55.7711 420.857L78.96 393.32ZM91.7 408.4L121.253 387.842L121.125 387.658L120.994 387.475L91.7 408.4ZM107.04 425.04L87.0708 454.994L87.3204 455.16L87.5727 455.322L107.04 425.04ZM134.86 427.64L152.721 458.897L153.053 458.707L153.382 458.51L134.86 427.64ZM140.32 420.36L106.895 406.99L106.396 408.238L105.991 409.519L140.32 420.36ZM134.86 405.02L158.482 377.854L158.482 377.854L134.86 405.02ZM116.4 392.54L97.7011 423.303L97.9793 423.472L98.2607 423.636L116.4 392.54ZM94.82 378.24L72.6568 406.609L72.9363 406.827L73.22 407.04L94.82 378.24ZM80.26 362.12L49.6857 381.126L49.8687 381.42L50.0574 381.711L80.26 362.12ZM77.14 321.56L111.392 332.642L111.489 332.342L111.58 332.042L77.14 321.56ZM99.5 292.7L79.9623 262.463L79.9622 262.463L99.5 292.7ZM138.24 281.78V317.78C144.951 317.78 150.366 318.618 154.743 319.922L165.02 285.42L175.297 250.918C163.381 247.369 150.943 245.78 138.24 245.78V281.78ZM165.02 285.42L155.609 320.168C160.383 321.461 165.807 323.712 171.904 327.321L190.24 296.34L208.576 265.359C197.686 258.914 186.297 253.885 174.431 250.672L165.02 285.42ZM190.24 296.34L213.168 324.095L219.148 319.155L196.22 291.4L173.292 263.645L167.312 268.585L190.24 296.34ZM196.22 291.4L218.565 319.626C220.095 318.415 221.172 317.642 221.844 317.194C222.169 316.977 222.322 316.888 222.319 316.89C222.313 316.893 222.251 316.929 222.136 316.99C222.021 317.051 221.836 317.145 221.584 317.263L206.36 284.64L191.136 252.017C184.7 255.021 178.712 259.345 173.875 263.174L196.22 291.4ZM206.36 284.64L220.79 317.622C218.398 318.668 216.502 318.82 215.72 318.82V282.82V246.82C208.005 246.82 199.868 248.185 191.93 251.658L206.36 284.64ZM215.72 282.82V318.82C214.606 318.82 209.167 318.552 203.358 313.987L225.6 285.68L247.842 257.373C237.179 248.995 225.154 246.82 215.72 246.82V282.82ZM225.6 285.68L204.675 314.974C201.05 312.384 197.829 308.699 195.707 304.154C193.675 299.799 193.24 295.93 193.24 293.48H229.24H265.24C265.24 280.551 260.045 266.043 246.525 256.386L225.6 285.68ZM229.24 293.48H193.24C193.24 290.355 193.825 287.963 194.307 286.516L228.46 297.9L262.613 309.284C264.135 304.717 265.24 299.378 265.24 293.48H229.24ZM228.46 297.9L194.02 287.418L183.1 323.298L217.54 333.78L251.98 344.262L262.9 308.382L228.46 297.9ZM217.54 333.78L182.98 323.7C182.865 324.093 183.002 323.478 183.644 322.266C184.268 321.086 185.761 318.603 188.644 315.982L212.86 342.62L237.076 369.258C246.191 360.971 250.154 350.533 252.1 343.86L217.54 333.78ZM212.86 342.62L187.404 317.164C195.094 309.475 203.486 309.22 204.8 309.22V345.22V381.22C213.394 381.22 227.16 379.232 238.316 368.076L212.86 342.62ZM204.8 345.22V309.22C206.49 309.22 208.558 309.479 210.789 310.222C213.031 310.97 214.97 312.051 216.528 313.243L194.66 341.84L172.792 370.437C182.204 377.635 193.321 381.22 204.8 381.22V345.22ZM194.66 341.84L218.366 314.747C218.498 314.862 217.764 314.207 215.881 312.14C214.144 310.232 211.885 307.629 209.056 304.233L181.4 327.28L153.744 350.327C159.717 357.494 165.781 364.406 170.954 368.933L194.66 341.84ZM181.4 327.28L208.493 303.574C201.13 295.16 192.378 286.842 182.151 281.199L164.76 312.72L147.369 344.241C147.094 344.089 147.634 344.352 148.984 345.533C150.301 346.685 152.079 348.439 154.307 350.986L181.4 327.28ZM164.76 312.72L183.443 281.948C173.493 275.906 162.068 272.3 149.68 272.3V308.3V344.3C148.827 344.3 147.975 344.172 147.224 343.952C146.493 343.737 146.104 343.509 146.077 343.492L164.76 312.72ZM149.68 308.3V272.3C136.714 272.3 124.23 277.118 114.604 286.744L140.06 312.2L165.516 337.656C163.625 339.547 161.078 341.365 157.94 342.638C154.829 343.899 151.935 344.3 149.68 344.3V308.3ZM140.06 312.2L115.497 285.882C105.41 295.296 100.16 307.947 100.16 321.3H136.16H172.16C172.16 323.851 171.684 327.07 170.224 330.476C168.756 333.901 166.69 336.59 164.623 338.518L140.06 312.2ZM136.16 321.3H100.16C100.16 338.973 109.436 351.992 118.694 360.093L142.4 333L166.106 305.907C166.515 306.265 168.033 307.682 169.485 310.404C171.046 313.332 172.16 317.102 172.16 321.3H136.16ZM142.4 333L119.353 360.656C125.61 365.87 133.944 371.396 143.201 377.023L161.9 346.26L180.599 315.497C172.176 310.377 167.51 307.064 165.447 305.344L142.4 333ZM161.9 346.26L143.466 377.182C151.872 382.194 158.277 386.399 162.934 389.823L184.26 360.82L205.586 331.817C198.457 326.574 189.955 321.073 180.334 315.338L161.9 346.26ZM184.26 360.82L162.934 389.823C165.168 391.466 167.236 393.599 169.137 396.531L199.34 376.94L229.543 357.349C223.124 347.454 215.139 338.841 205.586 331.817L184.26 360.82ZM199.34 376.94L169.137 396.531C169.18 396.596 169.58 397.033 169.58 399.04H205.58H241.58C241.58 384.407 237.82 370.111 229.543 357.349L199.34 376.94ZM205.58 399.04H169.58C169.58 400.474 169.359 402.123 168.718 404.108L202.98 415.16L237.242 426.212C240.068 417.45 241.58 408.352 241.58 399.04H205.58ZM202.98 415.16L168.498 404.815C166.797 410.485 164.169 413.641 160.082 416.129L178.8 446.88L197.518 477.631C217.351 465.559 230.843 447.568 237.462 425.505L202.98 415.16ZM178.8 446.88L160.41 415.931C154.788 419.272 147.377 421.54 136.94 421.54V457.54V493.54C158.396 493.54 178.892 488.701 197.19 477.829L178.8 446.88ZM136.94 457.54V421.54C127.506 421.54 121.651 420.414 118.382 419.301L106.78 453.38L95.1785 487.459C108.203 491.893 122.454 493.54 136.94 493.54V457.54ZM106.78 453.38L118.382 419.301C114.815 418.087 109.976 415.618 103.882 410.892L81.82 439.34L59.7584 467.788C70.6511 476.235 82.4516 483.127 95.1785 487.459L106.78 453.38ZM81.82 439.34L58.7734 411.684L49.4134 419.484L72.46 447.14L95.5066 474.796L104.867 466.996L81.82 439.34ZM72.46 447.14L49.3051 419.575C47.689 420.932 46.5205 421.824 45.7563 422.364C44.9245 422.952 44.9508 422.855 45.7003 422.481L61.8 454.68L77.8997 486.879C84.4706 483.594 90.5812 478.934 95.6149 474.705L72.46 447.14ZM61.8 454.68L47.3705 421.698C49.7618 420.652 51.6579 420.5 52.44 420.5V456.5V492.5C60.1555 492.5 68.2915 491.135 76.2295 487.662L61.8 454.68ZM52.44 456.5V420.5C54.1429 420.5 59.5003 420.963 65.0616 425.333L42.82 453.64L20.5784 481.947C30.993 490.13 42.7637 492.5 52.44 492.5V456.5ZM42.82 453.64L66.0739 426.158C68.9948 428.63 71.5849 431.949 73.317 435.946C75.0033 439.838 75.44 443.354 75.44 445.84H39.44H3.44C3.44 458.344 8.23263 471.532 19.5661 481.122L42.82 453.64ZM39.44 445.84H75.44C75.44 448.95 74.8136 451.305 74.3126 452.683L40.48 440.38L6.64744 428.077C4.75969 433.269 3.44 439.263 3.44 445.84H39.44ZM40.48 440.38L74.6782 451.626L87.4182 412.886L53.22 401.64L19.0218 390.394L6.28178 429.134L40.48 440.38ZM53.22 401.64L87.628 412.227C87.6903 412.025 87.4651 412.855 86.6333 414.254C85.7812 415.687 84.0985 418.036 81.1816 420.327L58.94 392.02L36.6984 363.713C26.1975 371.963 21.2903 382.998 18.812 391.053L53.22 401.64ZM58.94 392.02L81.1816 420.327C75.8873 424.487 70.6052 425.16 68.3 425.16V389.16V353.16C58.3682 353.16 46.8461 355.739 36.6984 363.713L58.94 392.02ZM68.3 389.16V425.16C66.0209 425.16 63.4493 424.744 60.8675 423.737C58.3114 422.739 56.3704 421.407 55.0429 420.227L78.96 393.32L102.877 366.413C93.5068 358.084 81.5476 353.16 68.3 353.16V389.16ZM78.96 393.32L55.7711 420.857C55.2763 420.44 55.6954 420.722 57.1151 422.403C58.4319 423.961 60.1862 426.217 62.4056 429.325L91.7 408.4L120.994 387.475C115.5 379.784 109.092 371.63 102.149 365.783L78.96 393.32ZM91.7 408.4L62.1474 428.958C68.6746 438.341 76.856 448.184 87.0708 454.994L107.04 425.04L127.009 395.086C127.698 395.546 127.395 395.474 126.164 394.139C124.985 392.86 123.339 390.84 121.253 387.842L91.7 408.4ZM107.04 425.04L87.5727 455.322C99.0228 462.683 111.714 465.72 124.2 465.72V429.72V393.72C123.757 393.72 123.895 393.669 124.442 393.818C125.022 393.977 125.763 394.279 126.507 394.758L107.04 425.04ZM124.2 429.72V465.72C131.408 465.72 142.336 464.831 152.721 458.897L134.86 427.64L116.999 396.383C120.032 394.65 122.48 394.061 123.481 393.866C124.522 393.663 124.859 393.72 124.2 393.72V429.72ZM134.86 427.64L153.382 458.51C164.568 451.798 171.355 441.632 174.649 431.201L140.32 420.36L105.991 409.519C106.527 407.823 107.536 405.502 109.375 403.05C111.258 400.539 113.643 398.387 116.338 396.77L134.86 427.64ZM140.32 420.36L173.745 433.73C176.683 426.386 176.84 419.532 176.84 416.46H140.84H104.84C104.84 416.208 104.848 415.312 105.026 413.977C105.187 412.765 105.616 410.186 106.895 406.99L140.32 420.36ZM140.84 416.46H176.84C176.84 399.196 168.05 386.174 158.482 377.854L134.86 405.02L111.238 432.186C110.588 431.621 108.941 430.026 107.441 427.157C105.843 424.1 104.84 420.391 104.84 416.46H140.84ZM134.86 405.02L158.482 377.854C151.943 372.167 143.497 366.669 134.539 361.444L116.4 392.54L98.2607 423.636C105.943 428.117 109.804 430.939 111.238 432.186L134.86 405.02ZM116.4 392.54L135.099 361.777C126.823 356.747 120.699 352.649 116.42 349.44L94.82 378.24L73.22 407.04C80.0345 412.151 88.2967 417.586 97.7011 423.303L116.4 392.54ZM94.82 378.24L116.983 349.871C114.845 348.2 112.635 345.879 110.463 342.529L80.26 362.12L50.0574 381.711C56.2046 391.188 63.7021 399.613 72.6568 406.609L94.82 378.24ZM80.26 362.12L110.834 343.114C110.792 343.046 110.691 342.878 110.579 342.454C110.459 341.998 110.28 341.068 110.28 339.5H74.28H38.28C38.28 353.871 41.6533 368.204 49.6857 381.126L80.26 362.12ZM74.28 339.5H110.28C110.28 337.275 110.619 335.031 111.392 332.642L77.14 321.56L42.888 310.478C39.8478 319.875 38.28 329.592 38.28 339.5H74.28ZM77.14 321.56L111.58 332.042C112.555 328.84 114.354 325.963 119.038 322.937L99.5 292.7L79.9622 262.463C62.1127 273.997 49.0052 290.36 42.6997 311.078L77.14 321.56ZM99.5 292.7L119.038 322.937C123.985 319.74 129.995 317.78 138.24 317.78V281.78V245.78C117.365 245.78 97.5483 251.1 79.9623 262.463L99.5 292.7ZM307.098 270.08L284.358 297.988L284.605 298.19L284.856 298.387L307.098 270.08ZM312.558 296.86L278.405 285.476L278.274 285.871L278.151 286.268L312.558 296.86ZM271.738 429.46L237.331 418.868L237.047 419.791L236.813 420.729L271.738 429.46ZM272.258 440.38L241.73 459.46L242.318 460.401L242.963 461.305L272.258 440.38ZM275.898 444.02L301.354 418.564L299.769 416.979L298 415.603L275.898 444.02ZM278.498 447.14L247.628 465.662L248.584 467.254L249.698 468.74L278.498 447.14ZM278.758 450L312.358 462.923L312.933 461.429L313.373 459.89L278.758 450ZM273.558 454.94L260.188 421.515L260.188 421.515L273.558 454.94ZM192.438 454.42L170.838 483.22L171.637 483.82L172.469 484.374L192.438 454.42ZM190.358 448.44L156.205 437.056L155.958 437.798L155.743 438.55L190.358 448.44ZM195.818 442.98L212.662 474.796L212.71 474.771L212.759 474.745L195.818 442.98ZM202.318 438.04L175.68 413.824L202.318 438.04ZM206.738 428.94L172.3 418.45L172.238 418.655L172.178 418.86L206.738 428.94ZM246.258 299.2L212.105 287.816L211.957 288.261L211.82 288.71L246.258 299.2ZM245.478 290.62L216.183 311.545L217.109 312.84L218.145 314.049L245.478 290.62ZM241.838 286.98L219.349 315.091L219.541 315.245L219.736 315.397L241.838 286.98ZM237.938 283.34L207.984 303.309L209.051 304.909L210.282 306.387L237.938 283.34ZM237.678 279.18L272.16 289.525L272.347 288.899L272.512 288.267L237.678 279.18ZM254.058 268.78L243.769 234.282L243.769 234.282L254.058 268.78ZM284.998 264.36V300.36C286.389 300.36 287.413 300.427 288.117 300.504C288.825 300.581 289.106 300.658 289.042 300.642C288.973 300.624 286.941 300.094 284.358 297.988L307.098 270.08L329.838 242.172C315.676 230.632 298.267 228.36 284.998 228.36V264.36ZM307.098 270.08L284.856 298.387C283.188 297.077 281.287 294.96 279.935 292.064C278.617 289.24 278.378 286.871 278.378 285.68H314.378H350.378C350.378 268.903 343.531 252.923 329.339 241.773L307.098 270.08ZM314.378 285.68H278.378C278.378 285.678 278.378 285.662 278.38 285.637C278.382 285.611 278.386 285.581 278.391 285.551C278.396 285.52 278.401 285.496 278.405 285.479C278.409 285.463 278.41 285.461 278.405 285.476L312.558 296.86L346.71 308.244C349.14 300.956 350.378 293.387 350.378 285.68H314.378ZM312.558 296.86L278.151 286.268L237.331 418.868L271.738 429.46L306.144 440.052L346.964 307.452L312.558 296.86ZM271.738 429.46L236.813 420.729C235.824 424.682 234.958 429.552 234.958 434.92H270.958H306.958C306.958 436.112 306.861 436.989 306.791 437.476C306.72 437.972 306.655 438.223 306.663 438.191L271.738 429.46ZM270.958 434.92H234.958C234.958 441.466 236.178 450.577 241.73 459.46L272.258 440.38L302.786 421.3C306.605 427.41 306.958 432.881 306.958 434.92H270.958ZM272.258 440.38L242.963 461.305C246.388 466.099 250.324 469.737 253.796 472.437L275.898 444.02L298 415.603C298.351 415.877 299.861 417.088 301.552 419.455L272.258 440.38ZM275.898 444.02L250.442 469.476C250.472 469.506 250.22 469.258 249.802 468.757C249.42 468.298 248.579 467.247 247.628 465.662L278.498 447.14L309.368 428.618C306.644 424.078 303.419 420.63 301.354 418.564L275.898 444.02ZM278.498 447.14L249.698 468.74C240.782 456.852 242.873 444.556 244.143 440.11L278.758 450L313.373 459.89C315.336 453.018 317.254 438.814 307.298 425.54L278.498 447.14ZM278.758 450L245.157 437.077C246.624 433.262 248.963 429.723 252.013 426.825C254.971 424.015 257.964 422.405 260.188 421.515L273.558 454.94L286.928 488.365C297.202 484.256 307.31 476.048 312.358 462.923L278.758 450ZM273.558 454.94L260.188 421.515C261.485 420.996 262.489 420.725 263.051 420.592C263.627 420.455 263.954 420.413 263.962 420.412C263.978 420.41 263.793 420.434 263.371 420.458C262.954 420.481 262.369 420.5 261.598 420.5V456.5V492.5C268.128 492.5 277.761 492.032 286.928 488.365L273.558 454.94ZM261.598 456.5V420.5H202.318V456.5V492.5H261.598V456.5ZM202.318 456.5V420.5C201.776 420.5 202.431 420.446 203.884 420.752C205.26 421.042 208.566 421.906 212.407 424.466L192.438 454.42L172.469 484.374C183.552 491.763 195.656 492.5 202.318 492.5V456.5ZM192.438 454.42L214.038 425.62C217.389 428.134 221.857 432.734 224.36 439.928C226.895 447.217 226.255 453.841 224.973 458.33L190.358 448.44L155.743 438.55C153.767 445.466 153.128 454.3 156.356 463.582C159.551 472.769 165.406 479.146 170.838 483.22L192.438 454.42ZM190.358 448.44L224.51 459.824C221.066 470.156 213.739 474.226 212.662 474.796L195.818 442.98L178.974 411.164C172.003 414.854 161.036 422.564 156.205 437.056L190.358 448.44ZM195.818 442.98L212.759 474.745C218.485 471.691 224.079 467.62 228.956 462.256L202.318 438.04L175.68 413.824C177.09 412.273 178.351 411.496 178.877 411.215L195.818 442.98ZM202.318 438.04L228.956 462.256C236.066 454.435 239.464 445.309 241.298 439.02L206.738 428.94L172.178 418.86C171.986 419.516 171.986 419.336 172.341 418.606C172.67 417.929 173.652 416.055 175.68 413.824L202.318 438.04ZM206.738 428.94L241.176 439.43L280.696 309.69L246.258 299.2L211.82 288.71L172.3 418.45L206.738 428.94ZM246.258 299.2L280.41 310.584C281.529 307.227 283.038 301.785 283.038 295.3H247.038H211.038C211.038 292.907 211.327 291.07 211.542 289.995C211.764 288.883 212 288.131 212.105 287.816L246.258 299.2ZM247.038 295.3H283.038C283.038 286.539 280.48 276.139 272.811 267.191L245.478 290.62L218.145 314.049C212.555 307.528 211.038 300.247 211.038 295.3H247.038ZM245.478 290.62L274.772 269.695C271.348 264.901 267.411 261.263 263.94 258.563L241.838 286.98L219.736 315.397C219.384 315.123 217.874 313.912 216.183 311.545L245.478 290.62ZM241.838 286.98L264.327 258.869C264.008 258.613 263.968 258.564 264.126 258.712C264.213 258.793 264.384 258.956 264.619 259.201C264.851 259.442 265.189 259.808 265.594 260.293L237.938 283.34L210.282 306.387C213.361 310.081 216.761 313.021 219.349 315.091L241.838 286.98ZM237.938 283.34L267.892 263.371C275.441 274.695 273.296 285.738 272.16 289.525L237.678 279.18L203.196 268.835C201.02 276.089 199.048 289.905 207.984 303.309L237.938 283.34ZM237.678 279.18L272.512 288.267C269.727 298.944 262.602 303.504 261.849 303.982C260.629 304.756 260.94 304.295 264.347 303.278L254.058 268.78L243.769 234.282C237.296 236.212 229.937 238.957 223.257 243.198C217.044 247.143 206.669 255.429 202.844 270.093L237.678 279.18ZM254.058 268.78L264.347 303.278C270.749 301.369 277.587 300.36 284.998 300.36V264.36V228.36C270.915 228.36 257.127 230.298 243.769 234.282L254.058 268.78ZM415.053 328.32L394.031 357.545L394.202 357.667L394.373 357.788L415.053 328.32ZM428.833 364.2L393.908 355.469L393.814 355.844L393.728 356.222L428.833 364.2ZM406.993 388.9L420.7 422.188L420.821 422.139L420.941 422.088L406.993 388.9ZM342.253 394.62L347.465 358.999L307.045 353.084L306.259 393.928L342.253 394.62ZM349.533 413.6L370.647 384.442L370.647 384.442L349.533 413.6ZM382.553 417.76L390.531 452.865L391.282 452.694L392.025 452.491L382.553 417.76ZM397.113 413.34L408.194 447.592L408.71 447.425L409.221 447.243L397.113 413.34ZM409.853 414.12H373.853V414.634L373.867 415.148L409.853 414.12ZM403.093 433.36L432.439 454.211L432.566 454.032L432.692 453.852L403.093 433.36ZM382.293 450.26L398.634 482.337L398.634 482.337L382.293 450.26ZM301.693 442.72L323.987 414.454L301.693 442.72ZM285.313 382.14L250.034 374.97L250.023 375.025L250.012 375.08L285.313 382.14ZM313.653 334.04L335.031 363.005L335.06 362.983L335.089 362.962L313.653 334.04ZM344.073 379.02L308.829 371.678L301.772 405.553L335.342 413.945L344.073 379.02ZM363.573 369.14L394.928 386.828L394.928 386.828L363.573 369.14ZM369.033 346.52L405.025 345.77L405.019 345.503L405.01 345.235L369.033 346.52ZM358.113 343.92L385.107 367.738L385.443 367.357L385.769 366.967L358.113 343.92ZM350.313 357.44L317.223 343.259L317.051 343.662L316.888 344.07L350.313 357.44ZM367.213 317.66V353.66C376.43 353.66 383.161 354.418 387.853 355.463C392.611 356.524 394.148 357.629 394.031 357.545L415.053 328.32L436.074 299.095C416.83 285.253 391.44 281.66 367.213 281.66V317.66ZM415.053 328.32L394.373 357.788C395.653 358.686 395.287 358.763 394.669 357.646C394.379 357.122 394.152 356.541 394.012 355.979C393.946 355.714 393.91 355.495 393.891 355.335C393.872 355.176 393.873 355.094 393.873 355.1H429.873H465.873C465.873 331.076 454.035 311.696 435.732 298.852L415.053 328.32ZM429.873 355.1H393.873C393.873 355.885 393.789 355.945 393.908 355.469L428.833 364.2L463.758 372.931C465.263 366.909 465.873 360.901 465.873 355.1H429.873ZM428.833 364.2L393.728 356.222C393.68 356.433 393.682 356.325 393.834 356.022C393.906 355.879 393.999 355.718 394.112 355.55C394.225 355.383 394.342 355.234 394.453 355.108C394.688 354.843 394.805 354.784 394.656 354.887C394.493 354.999 394.004 355.308 393.044 355.712L406.993 388.9L420.941 422.088C442.289 413.115 458.463 396.267 463.937 372.178L428.833 364.2ZM406.993 388.9L393.286 355.612C386.832 358.269 377.747 360.18 365.133 360.18V396.18V432.18C384.758 432.18 403.58 429.238 420.7 422.188L406.993 388.9ZM365.133 396.18V360.18C358.503 360.18 352.635 359.756 347.465 358.999L342.253 394.62L337.04 430.241C346.084 431.564 355.469 432.18 365.133 432.18V396.18ZM342.253 394.62L306.259 393.928C305.969 409.05 310.02 429.435 328.418 442.758L349.533 413.6L370.647 384.442C374.306 387.092 376.507 390.5 377.555 393.233C378.453 395.575 378.221 396.628 378.246 395.312L342.253 394.62ZM349.533 413.6L328.418 442.758C341.8 452.448 357.284 455.06 370.593 455.06V419.06V383.06C369.541 383.06 368.778 383.006 368.267 382.948C367.756 382.89 367.553 382.834 367.602 382.847C367.718 382.877 368.966 383.225 370.647 384.442L349.533 413.6ZM370.593 419.06V455.06C377.267 455.06 383.939 454.363 390.531 452.865L382.553 417.76L374.574 382.655C373.54 382.89 372.238 383.06 370.593 383.06V419.06ZM382.553 417.76L392.025 452.491C396.591 451.246 402.03 449.586 408.194 447.592L397.113 413.34L386.031 379.088C380.409 380.907 376.141 382.194 373.08 383.029L382.553 417.76ZM397.113 413.34L409.221 447.243C410.124 446.92 410.846 446.677 411.406 446.498C411.975 446.316 412.288 446.23 412.384 446.205C412.512 446.171 412.186 446.264 411.517 446.379C411.166 446.44 410.623 446.523 409.924 446.595C409.241 446.664 408.237 446.74 406.993 446.74V410.74V374.74C401.329 374.74 396.409 375.957 394.061 376.575C391.054 377.367 387.963 378.381 385.005 379.437L397.113 413.34ZM406.993 410.74V446.74C400.675 446.74 389.906 444.59 381.656 434.839C374.38 426.24 373.853 417.21 373.853 414.12H409.853H445.853C445.853 408.776 444.849 398.057 436.62 388.331C427.416 377.454 415.217 374.74 406.993 374.74V410.74ZM409.853 414.12L373.867 415.148C373.814 413.276 374.168 412.003 374.328 411.547C374.463 411.163 374.371 411.601 373.494 412.868L403.093 433.36L432.692 453.852C440.213 442.987 446.296 429.134 445.838 413.092L409.853 414.12ZM403.093 433.36L373.746 412.509C373.233 413.231 371.352 415.431 365.951 418.183L382.293 450.26L398.634 482.337C411.607 475.729 423.593 466.662 432.439 454.211L403.093 433.36ZM382.293 450.26L365.951 418.183C362.974 419.699 357.778 421.28 349.013 421.28V457.28V493.28C366.247 493.28 383.238 490.181 398.634 482.337L382.293 450.26ZM349.013 457.28V421.28C335.971 421.28 328.602 418.094 323.987 414.454L301.693 442.72L279.398 470.986C299.397 486.759 323.574 493.28 349.013 493.28V457.28ZM301.693 442.72L323.987 414.454C321.968 412.861 319.233 410.124 319.233 400.34H283.233H247.233C247.233 427.65 256.804 453.165 279.398 470.986L301.693 442.72ZM283.233 400.34H319.233C319.233 398.183 319.538 394.577 320.614 389.2L285.313 382.14L250.012 375.08C248.314 383.569 247.233 392.097 247.233 400.34H283.233ZM285.313 382.14L320.591 389.31C323.527 374.865 329.037 367.429 335.031 363.005L313.653 334.04L292.274 305.075C269.149 322.144 255.765 346.775 250.034 374.97L285.313 382.14ZM313.653 334.04L335.089 362.962C342.752 357.282 352.803 353.66 367.213 353.66V317.66V281.66C339.675 281.66 314.02 288.958 292.216 305.118L313.653 334.04ZM344.073 379.02L335.342 413.945C340.19 415.157 344.514 415.28 346.933 415.28V379.28V343.28C347.142 343.28 347.719 343.286 348.567 343.363C349.359 343.435 350.867 343.611 352.804 344.095L344.073 379.02ZM346.933 379.28V415.28C368.225 415.28 385.251 403.982 394.928 386.828L363.573 369.14L332.217 351.452C332.745 350.518 334.402 348.085 337.819 346.003C341.351 343.851 344.784 343.28 346.933 343.28V379.28ZM363.573 369.14L394.928 386.828C402.14 374.042 405.323 360.058 405.025 345.77L369.033 346.52L333.04 347.27C333.089 349.622 332.632 350.718 332.217 351.452L363.573 369.14ZM369.033 346.52L405.01 345.235C404.848 340.698 404.112 331.936 399.119 323.199C392.604 311.797 380.234 303.24 364.873 303.24V339.24V375.24C359.695 375.24 353.646 373.958 347.877 370.446C342.235 367.012 338.685 362.559 336.606 358.921C334.62 355.446 333.814 352.466 333.474 350.878C333.118 349.217 333.066 348.1 333.056 347.805L369.033 346.52ZM364.873 339.24V303.24C354.035 303.24 345.887 307.609 341.261 310.811C336.511 314.099 332.939 317.894 330.457 320.873L358.113 343.92L385.769 366.967C385.745 366.995 385.487 367.304 384.987 367.787C384.501 368.256 383.591 369.077 382.244 370.009C379.872 371.651 373.804 375.24 364.873 375.24V339.24ZM358.113 343.92L331.119 320.102C324.846 327.21 320.453 335.723 317.223 343.259L350.313 357.44L383.402 371.621C384.283 369.565 384.964 368.248 385.395 367.5C385.857 366.7 385.808 366.943 385.107 367.738L358.113 343.92ZM350.313 357.44L316.888 344.07C313.488 352.569 310.871 361.876 308.829 371.678L344.073 379.02L379.316 386.362C380.741 379.524 382.284 374.445 383.738 370.81L350.313 357.44ZM542.341 328.32L521.319 357.545L521.49 357.667L521.662 357.788L542.341 328.32ZM556.121 364.2L521.196 355.469L521.102 355.844L521.016 356.222L556.121 364.2ZM534.281 388.9L547.988 422.188L548.109 422.139L548.229 422.088L534.281 388.9ZM469.541 394.62L474.754 358.999L434.333 353.084L433.548 393.928L469.541 394.62ZM476.821 413.6L497.935 384.442L497.935 384.442L476.821 413.6ZM509.841 417.76L517.819 452.865L518.57 452.694L519.313 452.491L509.841 417.76ZM524.401 413.34L535.482 447.592L535.998 447.425L536.509 447.243L524.401 413.34ZM537.141 414.12H501.141V414.634L501.156 415.148L537.141 414.12ZM530.381 433.36L559.727 454.211L559.855 454.032L559.98 453.852L530.381 433.36ZM509.581 450.26L525.922 482.337L525.922 482.337L509.581 450.26ZM428.981 442.72L451.275 414.454L428.981 442.72ZM412.601 382.14L377.322 374.97L377.311 375.025L377.3 375.08L412.601 382.14ZM440.941 334.04L462.32 363.005L462.348 362.983L462.377 362.962L440.941 334.04ZM471.361 379.02L436.118 371.678L429.06 405.553L462.63 413.945L471.361 379.02ZM490.861 369.14L522.216 386.828L522.216 386.828L490.861 369.14ZM496.321 346.52L532.313 345.77L532.308 345.503L532.298 345.235L496.321 346.52ZM485.401 343.92L512.395 367.738L512.731 367.357L513.057 366.967L485.401 343.92ZM477.601 357.44L444.512 343.259L444.339 343.662L444.176 344.07L477.601 357.44ZM494.501 317.66V353.66C503.719 353.66 510.449 354.418 515.141 355.463C519.9 356.524 521.436 357.629 521.319 357.545L542.341 328.32L563.362 299.095C544.119 285.253 518.729 281.66 494.501 281.66V317.66ZM542.341 328.32L521.662 357.788C522.941 358.686 522.575 358.763 521.957 357.646C521.667 357.122 521.44 356.541 521.301 355.979C521.235 355.714 521.198 355.495 521.18 355.335C521.161 355.176 521.161 355.094 521.161 355.1H557.161H593.161C593.161 331.076 581.324 311.696 563.02 298.852L542.341 328.32ZM557.161 355.1H521.161C521.161 355.885 521.077 355.945 521.196 355.469L556.121 364.2L591.046 372.931C592.552 366.909 593.161 360.901 593.161 355.1H557.161ZM556.121 364.2L521.016 356.222C520.968 356.433 520.97 356.325 521.122 356.022C521.195 355.879 521.287 355.718 521.4 355.55C521.514 355.383 521.631 355.234 521.742 355.108C521.976 354.843 522.093 354.784 521.944 354.887C521.781 354.999 521.293 355.308 520.332 355.712L534.281 388.9L548.229 422.088C569.578 413.115 585.751 396.267 591.226 372.178L556.121 364.2ZM534.281 388.9L520.574 355.612C514.12 358.269 505.036 360.18 492.421 360.18V396.18V432.18C512.046 432.18 530.869 429.238 547.988 422.188L534.281 388.9ZM492.421 396.18V360.18C485.791 360.18 479.923 359.756 474.754 358.999L469.541 394.62L464.328 430.241C473.372 431.564 482.757 432.18 492.421 432.18V396.18ZM469.541 394.62L433.548 393.928C433.257 409.05 437.308 429.435 455.707 442.758L476.821 413.6L497.935 384.442C501.595 387.092 503.795 390.5 504.843 393.233C505.742 395.575 505.509 396.628 505.534 395.312L469.541 394.62ZM476.821 413.6L455.707 442.758C469.089 452.448 484.572 455.06 497.881 455.06V419.06V383.06C496.83 383.06 496.066 383.006 495.555 382.948C495.044 382.89 494.841 382.834 494.891 382.847C495.006 382.877 496.254 383.225 497.935 384.442L476.821 413.6ZM497.881 419.06V455.06C504.555 455.06 511.227 454.363 517.819 452.865L509.841 417.76L501.863 382.655C500.828 382.89 499.527 383.06 497.881 383.06V419.06ZM509.841 417.76L519.313 452.491C523.879 451.246 529.318 449.586 535.482 447.592L524.401 413.34L513.319 379.088C507.697 380.907 503.43 382.194 500.369 383.029L509.841 417.76ZM524.401 413.34L536.509 447.243C537.412 446.92 538.135 446.677 538.694 446.498C539.264 446.316 539.576 446.23 539.673 446.205C539.801 446.171 539.474 446.264 538.805 446.379C538.454 446.44 537.911 446.523 537.212 446.595C536.529 446.664 535.525 446.74 534.281 446.74V410.74V374.74C528.617 374.74 523.697 375.957 521.349 376.575C518.342 377.367 515.251 378.381 512.293 379.437L524.401 413.34ZM534.281 410.74V446.74C527.963 446.74 517.195 444.59 508.944 434.839C501.668 426.24 501.141 417.21 501.141 414.12H537.141H573.141C573.141 408.776 572.137 398.057 563.908 388.331C554.704 377.454 542.505 374.74 534.281 374.74V410.74ZM537.141 414.12L501.156 415.148C501.102 413.276 501.456 412.003 501.616 411.547C501.751 411.163 501.66 411.601 500.782 412.868L530.381 433.36L559.98 453.852C567.501 442.987 573.585 429.134 573.126 413.092L537.141 414.12ZM530.381 433.36L501.034 412.509C500.521 413.231 498.64 415.431 493.24 418.183L509.581 450.26L525.922 482.337C538.895 475.729 550.881 466.662 559.727 454.211L530.381 433.36ZM509.581 450.26L493.24 418.183C490.262 419.699 485.066 421.28 476.301 421.28V457.28V493.28C493.536 493.28 510.527 490.181 525.922 482.337L509.581 450.26ZM476.301 457.28V421.28C463.259 421.28 455.89 418.094 451.275 414.454L428.981 442.72L406.687 470.986C426.685 486.759 450.863 493.28 476.301 493.28V457.28ZM428.981 442.72L451.275 414.454C449.256 412.861 446.521 410.124 446.521 400.34H410.521H374.521C374.521 427.65 384.093 453.165 406.687 470.986L428.981 442.72ZM410.521 400.34H446.521C446.521 398.183 446.826 394.577 447.902 389.2L412.601 382.14L377.3 375.08C375.602 383.569 374.521 392.097 374.521 400.34H410.521ZM412.601 382.14L447.88 389.31C450.816 374.865 456.325 367.429 462.32 363.005L440.941 334.04L419.562 305.075C396.437 322.144 383.053 346.775 377.322 374.97L412.601 382.14ZM440.941 334.04L462.377 362.962C470.041 357.282 480.091 353.66 494.501 353.66V317.66V281.66C466.964 281.66 441.308 288.958 419.505 305.118L440.941 334.04ZM471.361 379.02L462.63 413.945C467.479 415.157 471.802 415.28 474.221 415.28V379.28V343.28C474.43 343.28 475.007 343.286 475.855 343.363C476.647 343.435 478.155 343.611 480.092 344.095L471.361 379.02ZM474.221 379.28V415.28C495.513 415.28 512.539 403.982 522.216 386.828L490.861 369.14L459.506 351.452C460.033 350.518 461.691 348.085 465.108 346.003C468.639 343.851 472.072 343.28 474.221 343.28V379.28ZM490.861 369.14L522.216 386.828C529.429 374.042 532.611 360.058 532.313 345.77L496.321 346.52L460.329 347.27C460.378 349.622 459.92 350.718 459.506 351.452L490.861 369.14ZM496.321 346.52L532.298 345.235C532.136 340.698 531.4 331.936 526.408 323.199C519.892 311.797 507.522 303.24 492.161 303.24V339.24V375.24C486.984 375.24 480.934 373.958 475.165 370.446C469.523 367.012 465.973 362.559 463.894 358.921C461.909 355.446 461.103 352.466 460.763 350.878C460.407 349.217 460.354 348.1 460.344 347.805L496.321 346.52ZM492.161 339.24V303.24C481.323 303.24 473.175 307.609 468.549 310.811C463.8 314.099 460.228 317.894 457.745 320.873L485.401 343.92L513.057 366.967C513.033 366.995 512.775 367.304 512.275 367.787C511.789 368.256 510.879 369.077 509.533 370.009C507.16 371.651 501.092 375.24 492.161 375.24V339.24ZM485.401 343.92L458.407 320.102C452.134 327.21 447.741 335.723 444.512 343.259L477.601 357.44L510.69 371.621C511.571 369.565 512.252 368.248 512.684 367.5C513.145 366.7 513.097 366.943 512.395 367.738L485.401 343.92ZM477.601 357.44L444.176 344.07C440.776 352.569 438.16 361.876 436.118 371.678L471.361 379.02L506.604 386.362C508.029 379.524 509.572 374.445 511.026 370.81L477.601 357.44ZM711.489 327.28L686.816 353.495L687.212 353.868L687.62 354.229L711.489 327.28ZM713.049 366.54L737.58 392.888L737.58 392.888L713.049 366.54ZM676.389 368.1L651.505 394.115L651.807 394.404L652.116 394.685L676.389 368.1ZM670.669 355.36L706.645 356.692L707.779 326.069L677.729 320.059L670.669 355.36ZM666.249 357.44L695.742 378.085L695.742 378.085L666.249 357.44ZM662.349 367.58L627.646 358.007L627.589 358.212L627.535 358.418L662.349 367.58ZM657.409 376.68L630.316 352.974L582.789 407.29L654.769 412.583L657.409 376.68ZM683.669 384.74L705.949 356.462L705.949 356.462L683.669 384.74ZM690.429 412.56L656.45 400.667L655.95 402.097L655.571 403.564L690.429 412.56ZM688.349 420.62L721.774 433.99L722.631 431.849L723.207 429.616L688.349 420.62ZM696.409 425.04L668.547 402.243L668.422 402.397L668.298 402.551L696.409 425.04ZM701.609 424L668.52 438.181L668.937 439.154L669.41 440.1L701.609 424ZM702.389 427.9H666.389V428.52L666.411 429.141L702.389 427.9ZM697.709 442.72L667.92 422.506L667.837 422.628L667.755 422.751L697.709 442.72ZM683.149 454.42L698.179 487.132L698.37 487.045L698.56 486.955L683.149 454.42ZM631.929 450.52L610.112 479.156L610.274 479.279L610.437 479.4L631.929 450.52ZM623.089 417.5L589.437 404.712L589.172 405.409L588.937 406.116L623.089 417.5ZM628.029 404.5L661.681 417.288L662.271 415.735L662.716 414.135L628.029 404.5ZM626.989 392.8L605.389 421.6L606.189 422.2L607.02 422.754L626.989 392.8ZM615.029 391.24V355.24H588.401L580.606 380.702L615.029 391.24ZM603.329 429.46L568.906 418.922L568.632 419.819L568.404 420.729L603.329 429.46ZM603.849 440.38L573.321 459.46L573.91 460.401L574.555 461.305L603.849 440.38ZM607.489 444.02L632.945 418.564L631.36 416.979L629.591 415.603L607.489 444.02ZM610.089 447.14L579.219 465.662L580.175 467.254L581.289 468.74L610.089 447.14ZM610.349 450L643.95 462.923L644.524 461.429L644.964 459.89L610.349 450ZM605.149 454.94L591.779 421.515L591.779 421.515L605.149 454.94ZM524.029 454.42L502.429 483.22L503.229 483.82L504.06 484.374L524.029 454.42ZM521.949 448.44L487.797 437.056L487.549 437.798L487.334 438.55L521.949 448.44ZM527.409 442.98L544.253 474.796L544.302 474.771L544.35 474.745L527.409 442.98ZM533.909 438.04L507.271 413.824L533.909 438.04ZM538.329 428.94L503.891 418.45L503.829 418.655L503.769 418.86L538.329 428.94ZM577.849 299.2L543.697 287.816L543.548 288.261L543.411 288.71L577.849 299.2ZM577.069 290.62L547.775 311.545L548.7 312.84L549.736 314.049L577.069 290.62ZM573.429 286.98L550.94 315.091L551.133 315.245L551.327 315.397L573.429 286.98ZM569.529 283.34L539.575 303.309L540.642 304.909L541.873 306.387L569.529 283.34ZM569.269 279.18L603.751 289.525L603.939 288.899L604.103 288.267L569.269 279.18ZM585.649 268.78L575.36 234.282L575.36 234.282L585.649 268.78ZM638.689 270.08L615.949 297.988L616.265 298.246L616.587 298.497L638.689 270.08ZM643.889 296.86L609.737 285.476L609.597 285.894L609.468 286.315L643.889 296.86ZM621.269 370.7L586.848 360.155L572.59 406.7H621.269V370.7ZM638.169 367.58L613.751 341.127L613.222 341.615L612.713 342.124L638.169 367.58ZM643.369 358.48L609.263 346.958L609.088 347.475L608.929 347.998L643.369 358.48ZM660.269 329.1L685.401 354.876L685.401 354.876L660.269 329.1ZM687.829 318.96V354.96C689.423 354.96 689.732 355.184 689.212 355.001C688.95 354.909 688.554 354.739 688.088 354.458C687.62 354.175 687.186 353.843 686.816 353.495L711.489 327.28L736.162 301.065C722.183 287.908 704.744 282.96 687.829 282.96V318.96ZM711.489 327.28L687.62 354.229C687.358 353.997 686.419 353.054 685.615 351.309C684.796 349.53 684.589 347.939 684.589 347.04H720.589H756.589C756.589 328.486 748.797 312.234 735.358 300.331L711.489 327.28ZM720.589 347.04H684.589C684.589 347.6 684.505 346.781 685.127 345.172C685.805 343.417 686.983 341.621 688.518 340.192L713.049 366.54L737.58 392.888C751.438 379.986 756.589 363.073 756.589 347.04H720.589ZM713.049 366.54L688.518 340.192C689.669 339.121 691.032 338.328 692.288 337.882C693.445 337.471 693.922 337.56 693.289 337.56V373.56V409.56C708.738 409.56 724.681 404.898 737.58 392.888L713.049 366.54ZM693.289 373.56V337.56C692.578 337.56 693.201 337.463 694.672 337.938C696.277 338.457 698.499 339.539 700.663 341.515L676.389 368.1L652.116 394.685C664.758 406.229 680.205 409.56 693.289 409.56V373.56ZM676.389 368.1L701.273 342.085C702.025 342.804 703.546 344.492 704.811 347.31C706.138 350.265 706.761 353.538 706.645 356.692L670.669 355.36L634.694 354.028C634.071 370.841 641.536 384.579 651.505 394.115L676.389 368.1ZM670.669 355.36L677.729 320.059C669.985 318.51 661.257 319.131 652.935 323.047C645.063 326.751 639.913 332.286 636.757 336.795L666.249 357.44L695.742 378.085C693.799 380.86 689.992 385.182 683.593 388.193C676.745 391.416 669.62 391.863 663.609 390.661L670.669 355.36ZM666.249 357.44L636.757 336.795C631.585 344.184 628.984 353.154 627.646 358.007L662.349 367.58L697.053 377.153C697.294 376.281 697.499 375.596 697.664 375.078C697.833 374.551 697.936 374.274 697.965 374.198C698.001 374.103 697.898 374.385 697.631 374.929C697.492 375.213 697.28 375.624 696.989 376.13C696.7 376.631 696.289 377.302 695.742 378.085L666.249 357.44ZM662.349 367.58L627.535 358.418C628.198 355.899 629.387 354.036 630.316 352.974L657.409 376.68L684.502 400.386C690.285 393.777 694.768 385.848 697.164 376.742L662.349 367.58ZM657.409 376.68L654.769 412.583C658.707 412.873 661.07 413.398 662.251 413.76C663.428 414.122 662.793 414.123 661.39 413.018L683.669 384.74L705.949 356.462C692.07 345.528 674.937 341.872 660.049 340.777L657.409 376.68ZM683.669 384.74L661.39 413.018C660.561 412.364 659.034 410.869 657.809 408.382C656.571 405.867 656.249 403.574 656.249 402.16H692.249H728.249C728.249 383.71 720.083 367.599 705.949 356.462L683.669 384.74ZM692.249 402.16H656.249C656.249 401.782 656.283 401.439 656.333 401.154C656.382 400.873 656.437 400.706 656.45 400.667L690.429 412.56L724.408 424.453C726.879 417.392 728.249 409.912 728.249 402.16H692.249ZM690.429 412.56L655.571 403.564L653.491 411.624L688.349 420.62L723.207 429.616L725.287 421.556L690.429 412.56ZM688.349 420.62L654.924 407.25C652.261 413.909 651.829 420.051 651.829 424H687.829H723.829C723.829 424.762 723.785 426.003 723.541 427.589C723.299 429.16 722.812 431.396 721.774 433.99L688.349 420.62ZM687.829 424H651.829C651.829 430.127 653.197 441.43 662.294 451.226C671.858 461.526 683.821 463.64 691.209 463.64V427.64V391.64C696.344 391.64 706.618 393.147 715.055 402.234C723.025 410.817 723.829 420.3 723.829 424H687.829ZM691.209 427.64V463.64C705.044 463.64 716.83 457.142 724.52 447.529L696.409 425.04L668.298 402.551C670.386 399.941 673.545 397.003 677.97 394.791C682.463 392.544 687.079 391.64 691.209 391.64V427.64ZM696.409 425.04L724.272 447.837C724.638 447.389 724.029 448.201 722.685 449.433C722.049 450.016 720.362 451.52 717.814 453.077C716.492 453.885 714.42 455.028 711.703 456.024C709.051 456.997 704.835 458.18 699.529 458.18V422.18V386.18C689.458 386.18 682.386 390.347 680.269 391.641C677.331 393.436 675.19 395.297 674.033 396.357C671.65 398.542 669.741 400.784 668.547 402.243L696.409 425.04ZM699.529 422.18V458.18C690.663 458.18 682.759 454.773 676.993 449.728C671.921 445.29 669.529 440.535 668.52 438.181L701.609 424L734.698 409.819C731.89 403.266 721.782 386.18 699.529 386.18V422.18ZM701.609 424L669.41 440.1C666.727 434.733 666.389 430.107 666.389 427.9H702.389H738.389C738.389 422.573 737.532 415.347 733.809 407.9L701.609 424ZM702.389 427.9L666.411 429.141C666.352 427.44 666.605 425.85 667.02 424.534C667.419 423.27 667.862 422.592 667.92 422.506L697.709 442.72L727.498 462.934C734.34 452.851 738.846 440.527 738.368 426.659L702.389 427.9ZM697.709 442.72L667.755 422.751C668.089 422.25 668.41 421.861 668.673 421.577C668.934 421.296 669.119 421.141 669.179 421.093C669.284 421.008 668.905 421.333 667.738 421.885L683.149 454.42L698.56 486.955C709.335 481.851 720.002 474.181 727.663 462.689L697.709 442.72ZM683.149 454.42L668.119 421.708C667.616 421.939 665.248 422.84 659.749 422.84V458.84V494.84C672.624 494.84 685.856 492.794 698.179 487.132L683.149 454.42ZM659.749 458.84V422.84C654.853 422.84 653.528 421.719 653.422 421.64L631.929 450.52L610.437 479.4C625.237 490.415 642.459 494.84 659.749 494.84V458.84ZM631.929 450.52L653.747 421.884C653.931 422.025 655.01 422.942 655.939 424.8C656.877 426.676 657.009 428.206 657.009 428.68H621.009H585.009C585.009 449.131 594.057 466.923 610.112 479.156L631.929 450.52ZM621.009 428.68H657.009C657.009 429.118 656.986 429.451 656.965 429.667C656.944 429.883 656.922 429.997 656.922 430C656.921 430.003 656.938 429.911 656.989 429.719C657.04 429.528 657.12 429.251 657.242 428.884L623.089 417.5L588.937 406.116C586.706 412.807 585.009 420.475 585.009 428.68H621.009ZM623.089 417.5L656.741 430.288L661.681 417.288L628.029 404.5L594.377 391.712L589.437 404.712L623.089 417.5ZM628.029 404.5L662.716 414.135C663.606 410.93 665.329 404.495 665.329 397.74H629.329H593.329C593.329 396.296 593.436 395.224 593.5 394.687C593.569 394.11 593.637 393.751 593.652 393.671C593.676 393.546 593.612 393.894 593.343 394.865L628.029 404.5ZM629.329 397.74H665.329C665.329 386.24 660.652 371.975 646.958 362.846L626.989 392.8L607.02 422.754C602.536 419.765 598.697 415.476 596.21 410.226C593.843 405.231 593.329 400.711 593.329 397.74H629.329ZM626.989 392.8L648.589 364C637.681 355.818 625.658 355.24 620.229 355.24V391.24V427.24C619.943 427.24 618.43 427.231 616.164 426.708C613.951 426.197 609.813 424.918 605.389 421.6L626.989 392.8ZM620.229 391.24V355.24H615.029V391.24V427.24H620.229V391.24ZM615.029 391.24L580.606 380.702L568.906 418.922L603.329 429.46L637.752 439.998L649.452 401.778L615.029 391.24ZM603.329 429.46L568.404 420.729C567.416 424.682 566.549 429.552 566.549 434.92H602.549H638.549C638.549 436.112 638.452 436.989 638.382 437.476C638.312 437.972 638.247 438.223 638.254 438.191L603.329 429.46ZM602.549 434.92H566.549C566.549 441.466 567.769 450.577 573.321 459.46L603.849 440.38L634.377 421.3C638.196 427.41 638.549 432.881 638.549 434.92H602.549ZM603.849 440.38L574.555 461.305C577.979 466.099 581.916 469.737 585.387 472.437L607.489 444.02L629.591 415.603C629.943 415.877 631.453 417.088 633.144 419.455L603.849 440.38ZM607.489 444.02L582.033 469.476C582.063 469.506 581.811 469.258 581.393 468.757C581.011 468.298 580.17 467.247 579.219 465.662L610.089 447.14L640.959 428.618C638.235 424.078 635.011 420.63 632.945 418.564L607.489 444.02ZM610.089 447.14L581.289 468.74C572.374 456.852 574.464 444.556 575.734 440.11L610.349 450L644.964 459.89C646.928 453.018 648.845 438.814 638.889 425.54L610.089 447.14ZM610.349 450L576.749 437.077C578.216 433.262 580.554 429.723 583.604 426.825C586.562 424.015 589.555 422.405 591.779 421.515L605.149 454.94L618.519 488.365C628.793 484.256 638.902 476.048 643.95 462.923L610.349 450ZM605.149 454.94L591.779 421.515C593.076 420.996 594.081 420.725 594.642 420.592C595.218 420.455 595.545 420.413 595.553 420.412C595.57 420.41 595.385 420.434 594.962 420.458C594.545 420.481 593.961 420.5 593.189 420.5V456.5V492.5C599.719 492.5 609.352 492.032 618.519 488.365L605.149 454.94ZM593.189 456.5V420.5H533.909V456.5V492.5H593.189V456.5ZM533.909 456.5V420.5C533.367 420.5 534.023 420.446 535.476 420.752C536.851 421.042 540.157 421.906 543.998 424.466L524.029 454.42L504.06 484.374C515.144 491.763 527.248 492.5 533.909 492.5V456.5ZM524.029 454.42L545.629 425.62C548.981 428.134 553.449 432.734 555.951 439.928C558.486 447.217 557.847 453.841 556.564 458.33L521.949 448.44L487.334 438.55C485.358 445.466 484.719 454.3 487.947 463.582C491.143 472.769 496.998 479.146 502.429 483.22L524.029 454.42ZM521.949 448.44L556.102 459.824C552.658 470.156 545.331 474.226 544.253 474.796L527.409 442.98L510.565 411.164C503.594 414.854 492.627 422.564 487.797 437.056L521.949 448.44ZM527.409 442.98L544.35 474.745C550.076 471.691 555.671 467.62 560.547 462.256L533.909 438.04L507.271 413.824C508.681 412.273 509.942 411.496 510.468 411.215L527.409 442.98ZM533.909 438.04L560.547 462.256C567.657 454.435 571.055 445.309 572.889 439.02L538.329 428.94L503.769 418.86C503.578 419.516 503.578 419.336 503.932 418.606C504.261 417.929 505.243 416.055 507.271 413.824L533.909 438.04ZM538.329 428.94L572.767 439.43L612.287 309.69L577.849 299.2L543.411 288.71L503.891 418.45L538.329 428.94ZM577.849 299.2L612.002 310.584C613.121 307.227 614.629 301.785 614.629 295.3H578.629H542.629C542.629 292.907 542.918 291.07 543.133 289.995C543.356 288.883 543.592 288.131 543.697 287.816L577.849 299.2ZM578.629 295.3H614.629C614.629 286.539 612.072 276.139 604.402 267.191L577.069 290.62L549.736 314.049C544.147 307.528 542.629 300.247 542.629 295.3H578.629ZM577.069 290.62L606.364 269.695C602.939 264.901 599.003 261.263 595.531 258.563L573.429 286.98L551.327 315.397C550.976 315.123 549.466 313.912 547.775 311.545L577.069 290.62ZM573.429 286.98L595.918 258.869C595.599 258.613 595.56 258.564 595.718 258.712C595.804 258.793 595.975 258.956 596.21 259.201C596.443 259.442 596.78 259.808 597.185 260.293L569.529 283.34L541.873 306.387C544.952 310.081 548.352 313.021 550.94 315.091L573.429 286.98ZM569.529 283.34L599.483 263.371C607.033 274.695 604.887 285.738 603.751 289.525L569.269 279.18L534.787 268.835C532.611 276.089 530.639 289.905 539.575 303.309L569.529 283.34ZM569.269 279.18L604.103 288.267C601.318 298.944 594.193 303.504 593.441 303.982C592.22 304.756 592.531 304.295 595.938 303.278L585.649 268.78L575.36 234.282C568.888 236.212 561.528 238.957 554.848 243.198C548.635 247.143 538.26 255.429 534.435 270.093L569.269 279.18ZM585.649 268.78L595.938 303.278C602.34 301.369 609.178 300.36 616.589 300.36V264.36V228.36C602.507 228.36 588.718 230.298 575.36 234.282L585.649 268.78ZM616.589 264.36V300.36C617.98 300.36 619.005 300.427 619.709 300.504C620.417 300.581 620.697 300.658 620.634 300.642C620.564 300.624 618.533 300.094 615.949 297.988L638.689 270.08L661.429 242.172C647.267 230.632 629.859 228.36 616.589 228.36V264.36ZM638.689 270.08L616.587 298.497C614.609 296.958 612.592 294.625 611.219 291.625C609.9 288.743 609.709 286.419 609.709 285.42H645.709H681.709C681.709 269.133 675.295 252.944 660.791 241.663L638.689 270.08ZM645.709 285.42H609.709C609.709 285.503 609.706 285.557 609.704 285.586C609.702 285.614 609.7 285.623 609.701 285.614C609.703 285.605 609.706 285.585 609.713 285.558C609.72 285.53 609.728 285.502 609.737 285.476L643.889 296.86L678.042 308.244C680.526 300.791 681.709 293.123 681.709 285.42H645.709ZM643.889 296.86L609.468 286.315L586.848 360.155L621.269 370.7L655.69 381.244L678.31 307.404L643.889 296.86ZM621.269 370.7V406.7H629.849V370.7V334.7H621.269V370.7ZM629.849 370.7V406.7C641.029 406.7 653.599 403.062 663.625 393.036L638.169 367.58L612.713 342.124C615.333 339.504 618.498 337.484 621.889 336.212C625.169 334.982 627.987 334.7 629.849 334.7V370.7ZM638.169 367.58L662.587 394.033C670.934 386.328 675.376 376.956 677.809 368.962L643.369 358.48L608.929 347.998C608.935 347.977 609.911 344.672 613.751 341.127L638.169 367.58ZM643.369 358.48L677.475 370.002C680.67 360.548 683.838 356.4 685.401 354.876L660.269 329.1L635.138 303.324C622.834 315.32 614.736 330.759 609.263 346.958L643.369 358.48ZM660.269 329.1L685.401 354.876C685.348 354.927 685.229 355.03 685.06 355.136C684.892 355.242 684.782 355.284 684.79 355.281C684.793 355.28 685.649 354.96 687.829 354.96V318.96V282.96C668.824 282.96 649.997 288.837 635.138 303.324L660.269 329.1Z" fill="black" mask="url(#path-28-outside-1_77_80)"/>
<defs>
<clipPath id="clip0_77_80">
<rect x="162.5" y="7" width="432" height="432" rx="216" fill="white"/>
</clipPath>
</defs>
</svg>
