<svg width="953" height="490" viewBox="0 0 953 490" fill="none" xmlns="http://www.w3.org/2000/svg">
<mask id="path-1-outside-1_80_45" maskUnits="userSpaceOnUse" x="-0.984009" y="60" width="954" height="325" fill="black">
<rect fill="white" x="-0.984009" y="60" width="954" height="325"/>
<path d="M163.68 119.208C176.224 119.208 187.76 120.776 198.288 123.912C209.04 126.824 219.904 131.528 230.88 138.024L238.608 131.64C243.984 127.384 248.352 124.472 251.712 122.904C255.296 121.336 259.328 120.552 263.808 120.552C269.184 120.552 273.44 121.784 276.576 124.248C279.712 126.488 281.28 129.848 281.28 134.328C281.28 136.12 280.944 138.024 280.272 140.04L266.16 186.408C264.592 191.784 262.576 195.592 260.112 197.832C257.872 200.072 254.4 201.192 249.696 201.192C244.768 201.192 240.4 199.736 236.592 196.824C233.008 193.688 227.296 187.416 219.456 178.008C211.616 169.048 204.448 162.776 197.952 159.192C191.68 155.384 185.184 153.48 178.464 153.48C173.536 153.48 169.392 155.16 166.032 158.52C162.672 161.656 160.992 165.576 160.992 170.28C160.992 175.656 163.68 180.696 169.056 185.4C174.432 189.88 182.832 195.592 194.256 202.536C205.904 209.48 215.536 215.752 223.152 221.352C230.768 226.952 237.264 233.896 242.64 242.184C248.016 250.472 250.704 259.992 250.704 270.744C250.704 277.688 249.584 284.632 247.344 291.576C241.968 309.496 231.552 323.16 216.096 332.568C200.64 341.752 182.608 346.344 162 346.344C146.544 346.344 133.552 344.552 123.024 340.968C112.496 337.384 101.744 331.336 90.768 322.824L78.672 332.904C73.072 337.608 68.48 340.856 64.896 342.648C61.312 344.216 57.28 345 52.8 345C47.648 345 43.504 343.768 40.368 341.304C37.456 338.84 36 335.48 36 331.224C36 328.984 36.448 326.632 37.344 324.168L53.808 274.104C55.6 268.28 58.064 264.136 61.2 261.672C64.336 259.208 68.368 257.976 73.296 257.976C78.448 257.976 83.04 259.768 87.072 263.352C91.328 266.936 96.816 273.432 103.536 282.84C110.704 293.144 117.312 300.312 123.36 304.344C129.632 308.376 137.024 310.392 145.536 310.392C151.584 310.392 156.176 309.496 159.312 307.704C162.672 305.688 165.024 302.552 166.368 298.296C166.816 297.176 167.04 295.496 167.04 293.256C167.04 287.88 164.464 282.952 159.312 278.472C154.16 273.992 146.208 268.616 135.456 262.344C124.032 255.4 114.736 249.24 107.568 243.864C100.4 238.264 94.128 231.32 88.752 223.032C83.6 214.744 81.024 205 81.024 193.8C81.024 185.96 82.256 178.232 84.72 170.616C89.424 155.16 99.056 142.728 113.616 133.32C128.176 123.912 144.864 119.208 163.68 119.208ZM353.336 96.696C366.328 96.696 375.848 99.16 381.896 104.088C388.168 109.016 391.304 115.736 391.304 124.248C391.304 129.176 390.52 133.992 388.952 138.696L336.2 310.056C335.528 312.744 335.192 315.096 335.192 317.112C335.192 320.024 335.752 322.376 336.872 324.168C337.992 325.736 339.56 327.304 341.576 328.872C343.144 330.44 344.264 331.784 344.936 332.904C345.608 333.8 345.72 335.032 345.272 336.6C344.152 339.512 341.912 341.64 338.552 342.984C335.192 344.328 330.04 345 323.096 345H246.488C240.664 345 236.408 344.104 233.72 342.312C231.032 340.296 230.136 337.72 231.032 334.584C231.928 331.896 234.28 329.544 238.088 327.528C241.448 325.736 244.248 323.608 246.488 321.144C248.728 318.68 250.632 314.76 252.2 309.384L303.272 141.72C303.944 139.704 304.28 138.024 304.28 136.68C304.28 134.216 303.608 132.2 302.264 130.632C301.144 129.064 299.576 127.496 297.56 125.928C295.32 124.136 293.64 122.568 292.52 121.224C291.624 119.88 291.512 118.088 292.184 115.848C293.528 110.696 300.584 106.216 313.352 102.408C326.12 98.6 339.448 96.696 353.336 96.696ZM459.583 165.576C488.031 165.576 508.639 170.168 521.407 179.352C534.175 188.312 540.559 199.848 540.559 213.96C540.559 218.216 540.111 222.136 539.215 225.72C535.855 240.504 526.447 251.144 510.991 257.64C495.759 263.912 477.727 267.048 456.895 267.048C446.367 267.048 436.511 266.376 427.327 265.032C427.103 276.68 430.239 284.856 436.735 289.56C443.231 294.264 452.303 296.616 463.951 296.616C469.327 296.616 474.479 296.056 479.407 294.936C484.335 293.592 490.607 291.688 498.223 289.224C504.495 286.984 508.751 285.864 510.991 285.864C513.455 285.864 514.687 287.32 514.687 290.232C514.911 298.072 511.999 306.36 505.951 315.096C499.903 323.608 490.943 330.888 479.071 336.936C467.199 342.984 452.863 346.008 436.063 346.008C411.199 346.008 390.815 339.736 374.911 327.192C359.007 314.648 351.055 296.392 351.055 272.424C351.055 265.704 351.951 257.864 353.743 248.904C359.343 221.352 371.551 200.632 390.367 186.744C409.407 172.632 432.479 165.576 459.583 165.576ZM429.679 244.872C430.575 245.096 431.807 245.208 433.375 245.208C442.783 245.208 449.951 240.84 454.879 232.104C459.807 223.368 462.159 213.624 461.935 202.872C461.711 196.6 459.919 193.464 456.559 193.464C454.095 193.464 451.183 195.48 447.823 199.512C444.463 203.32 441.103 209.144 437.743 216.984C434.607 224.824 431.919 234.12 429.679 244.872ZM624.079 165.576C652.527 165.576 673.135 170.168 685.903 179.352C698.671 188.312 705.055 199.848 705.055 213.96C705.055 218.216 704.607 222.136 703.711 225.72C700.351 240.504 690.943 251.144 675.487 257.64C660.255 263.912 642.223 267.048 621.391 267.048C610.863 267.048 601.007 266.376 591.823 265.032C591.599 276.68 594.735 284.856 601.231 289.56C607.727 294.264 616.799 296.616 628.447 296.616C633.823 296.616 638.975 296.056 643.903 294.936C648.831 293.592 655.103 291.688 662.719 289.224C668.991 286.984 673.247 285.864 675.487 285.864C677.951 285.864 679.183 287.32 679.183 290.232C679.407 298.072 676.495 306.36 670.447 315.096C664.399 323.608 655.439 330.888 643.567 336.936C631.695 342.984 617.359 346.008 600.559 346.008C575.695 346.008 555.311 339.736 539.407 327.192C523.503 314.648 515.551 296.392 515.551 272.424C515.551 265.704 516.447 257.864 518.239 248.904C523.839 221.352 536.047 200.632 554.863 186.744C573.903 172.632 596.975 165.576 624.079 165.576ZM594.175 244.872C595.071 245.096 596.303 245.208 597.871 245.208C607.279 245.208 614.447 240.84 619.375 232.104C624.303 223.368 626.655 213.624 626.431 202.872C626.207 196.6 624.415 193.464 621.055 193.464C618.591 193.464 615.679 195.48 612.319 199.512C608.959 203.32 605.599 209.144 602.239 216.984C599.103 224.824 596.415 234.12 594.175 244.872ZM873.918 167.256C886.686 167.256 896.878 170.84 904.494 178.008C912.334 184.952 916.254 193.464 916.254 203.544C916.254 214.296 913.006 222.696 906.51 228.744C900.014 234.792 891.502 237.816 880.974 237.816C871.566 237.816 864.286 235.464 859.134 230.76C853.982 225.832 851.518 220.344 851.742 214.296C849.502 213.848 847.598 214.744 846.03 216.984C844.462 219.224 842.782 223.592 840.99 230.088C839.87 234.344 837.742 238.264 834.606 241.848C849.838 242.968 861.15 246.44 868.542 252.264C875.934 258.088 879.63 265.592 879.63 274.776C879.63 279.256 878.846 283.736 877.278 288.216L874.59 298.632C874.142 299.752 873.918 301.208 873.918 303C873.918 306.136 875.374 307.704 878.286 307.704C880.974 307.704 883.214 306.584 885.006 304.344C887.022 301.88 888.366 300.648 889.038 300.648C890.158 300.648 891.054 301.432 891.726 303C892.398 304.344 892.734 306.024 892.734 308.04C892.958 314.536 890.942 320.92 886.686 327.192C882.654 333.24 876.382 338.28 867.87 342.312C859.582 346.12 849.502 348.024 837.63 348.024C823.294 348.024 811.31 344.44 801.678 337.272C792.27 330.104 787.566 320.696 787.566 309.048C787.566 304.792 788.462 299.976 790.254 294.6L796.638 277.8C797.758 273.768 798.318 270.856 798.318 269.064C798.318 266.152 797.31 264.024 795.294 262.68C793.502 261.336 790.59 260.664 786.558 260.664H779.838L764.718 310.056C764.046 312.744 763.71 315.096 763.71 317.112C763.71 320.024 764.27 322.376 765.39 324.168C766.51 325.736 768.078 327.304 770.094 328.872C771.662 330.44 772.782 331.784 773.454 332.904C774.126 333.8 774.238 335.032 773.79 336.6C772.67 339.512 770.43 341.64 767.07 342.984C763.71 344.328 758.558 345 751.614 345H675.006C669.182 345 664.926 344.104 662.238 342.312C659.55 340.296 658.654 337.72 659.55 334.584C660.446 331.896 662.798 329.544 666.606 327.528C669.966 325.736 672.766 323.608 675.006 321.144C677.246 318.68 679.15 314.76 680.718 309.384L731.79 141.72C732.462 139.704 732.798 138.024 732.798 136.68C732.798 134.216 732.126 132.2 730.782 130.632C729.662 129.064 728.094 127.496 726.078 125.928C723.838 124.136 722.158 122.568 721.038 121.224C720.142 119.88 720.03 118.088 720.702 115.848C722.046 110.696 729.102 106.216 741.87 102.408C754.638 98.6 767.966 96.696 781.854 96.696C794.846 96.696 804.366 99.16 810.414 104.088C816.462 108.792 819.486 115.4 819.486 123.912C819.486 129.064 818.702 133.992 817.134 138.696L787.902 234.12H798.99C803.47 234.12 807.054 232.776 809.742 230.088C812.654 227.4 814.894 223.48 816.462 218.328C822.062 201.752 829.342 189.096 838.302 180.36C847.262 171.624 859.134 167.256 873.918 167.256Z"/>
</mask>
<path d="M163.68 119.208C176.224 119.208 187.76 120.776 198.288 123.912C209.04 126.824 219.904 131.528 230.88 138.024L238.608 131.64C243.984 127.384 248.352 124.472 251.712 122.904C255.296 121.336 259.328 120.552 263.808 120.552C269.184 120.552 273.44 121.784 276.576 124.248C279.712 126.488 281.28 129.848 281.28 134.328C281.28 136.12 280.944 138.024 280.272 140.04L266.16 186.408C264.592 191.784 262.576 195.592 260.112 197.832C257.872 200.072 254.4 201.192 249.696 201.192C244.768 201.192 240.4 199.736 236.592 196.824C233.008 193.688 227.296 187.416 219.456 178.008C211.616 169.048 204.448 162.776 197.952 159.192C191.68 155.384 185.184 153.48 178.464 153.48C173.536 153.48 169.392 155.16 166.032 158.52C162.672 161.656 160.992 165.576 160.992 170.28C160.992 175.656 163.68 180.696 169.056 185.4C174.432 189.88 182.832 195.592 194.256 202.536C205.904 209.48 215.536 215.752 223.152 221.352C230.768 226.952 237.264 233.896 242.64 242.184C248.016 250.472 250.704 259.992 250.704 270.744C250.704 277.688 249.584 284.632 247.344 291.576C241.968 309.496 231.552 323.16 216.096 332.568C200.64 341.752 182.608 346.344 162 346.344C146.544 346.344 133.552 344.552 123.024 340.968C112.496 337.384 101.744 331.336 90.768 322.824L78.672 332.904C73.072 337.608 68.48 340.856 64.896 342.648C61.312 344.216 57.28 345 52.8 345C47.648 345 43.504 343.768 40.368 341.304C37.456 338.84 36 335.48 36 331.224C36 328.984 36.448 326.632 37.344 324.168L53.808 274.104C55.6 268.28 58.064 264.136 61.2 261.672C64.336 259.208 68.368 257.976 73.296 257.976C78.448 257.976 83.04 259.768 87.072 263.352C91.328 266.936 96.816 273.432 103.536 282.84C110.704 293.144 117.312 300.312 123.36 304.344C129.632 308.376 137.024 310.392 145.536 310.392C151.584 310.392 156.176 309.496 159.312 307.704C162.672 305.688 165.024 302.552 166.368 298.296C166.816 297.176 167.04 295.496 167.04 293.256C167.04 287.88 164.464 282.952 159.312 278.472C154.16 273.992 146.208 268.616 135.456 262.344C124.032 255.4 114.736 249.24 107.568 243.864C100.4 238.264 94.128 231.32 88.752 223.032C83.6 214.744 81.024 205 81.024 193.8C81.024 185.96 82.256 178.232 84.72 170.616C89.424 155.16 99.056 142.728 113.616 133.32C128.176 123.912 144.864 119.208 163.68 119.208ZM353.336 96.696C366.328 96.696 375.848 99.16 381.896 104.088C388.168 109.016 391.304 115.736 391.304 124.248C391.304 129.176 390.52 133.992 388.952 138.696L336.2 310.056C335.528 312.744 335.192 315.096 335.192 317.112C335.192 320.024 335.752 322.376 336.872 324.168C337.992 325.736 339.56 327.304 341.576 328.872C343.144 330.44 344.264 331.784 344.936 332.904C345.608 333.8 345.72 335.032 345.272 336.6C344.152 339.512 341.912 341.64 338.552 342.984C335.192 344.328 330.04 345 323.096 345H246.488C240.664 345 236.408 344.104 233.72 342.312C231.032 340.296 230.136 337.72 231.032 334.584C231.928 331.896 234.28 329.544 238.088 327.528C241.448 325.736 244.248 323.608 246.488 321.144C248.728 318.68 250.632 314.76 252.2 309.384L303.272 141.72C303.944 139.704 304.28 138.024 304.28 136.68C304.28 134.216 303.608 132.2 302.264 130.632C301.144 129.064 299.576 127.496 297.56 125.928C295.32 124.136 293.64 122.568 292.52 121.224C291.624 119.88 291.512 118.088 292.184 115.848C293.528 110.696 300.584 106.216 313.352 102.408C326.12 98.6 339.448 96.696 353.336 96.696ZM459.583 165.576C488.031 165.576 508.639 170.168 521.407 179.352C534.175 188.312 540.559 199.848 540.559 213.96C540.559 218.216 540.111 222.136 539.215 225.72C535.855 240.504 526.447 251.144 510.991 257.64C495.759 263.912 477.727 267.048 456.895 267.048C446.367 267.048 436.511 266.376 427.327 265.032C427.103 276.68 430.239 284.856 436.735 289.56C443.231 294.264 452.303 296.616 463.951 296.616C469.327 296.616 474.479 296.056 479.407 294.936C484.335 293.592 490.607 291.688 498.223 289.224C504.495 286.984 508.751 285.864 510.991 285.864C513.455 285.864 514.687 287.32 514.687 290.232C514.911 298.072 511.999 306.36 505.951 315.096C499.903 323.608 490.943 330.888 479.071 336.936C467.199 342.984 452.863 346.008 436.063 346.008C411.199 346.008 390.815 339.736 374.911 327.192C359.007 314.648 351.055 296.392 351.055 272.424C351.055 265.704 351.951 257.864 353.743 248.904C359.343 221.352 371.551 200.632 390.367 186.744C409.407 172.632 432.479 165.576 459.583 165.576ZM429.679 244.872C430.575 245.096 431.807 245.208 433.375 245.208C442.783 245.208 449.951 240.84 454.879 232.104C459.807 223.368 462.159 213.624 461.935 202.872C461.711 196.6 459.919 193.464 456.559 193.464C454.095 193.464 451.183 195.48 447.823 199.512C444.463 203.32 441.103 209.144 437.743 216.984C434.607 224.824 431.919 234.12 429.679 244.872ZM624.079 165.576C652.527 165.576 673.135 170.168 685.903 179.352C698.671 188.312 705.055 199.848 705.055 213.96C705.055 218.216 704.607 222.136 703.711 225.72C700.351 240.504 690.943 251.144 675.487 257.64C660.255 263.912 642.223 267.048 621.391 267.048C610.863 267.048 601.007 266.376 591.823 265.032C591.599 276.68 594.735 284.856 601.231 289.56C607.727 294.264 616.799 296.616 628.447 296.616C633.823 296.616 638.975 296.056 643.903 294.936C648.831 293.592 655.103 291.688 662.719 289.224C668.991 286.984 673.247 285.864 675.487 285.864C677.951 285.864 679.183 287.32 679.183 290.232C679.407 298.072 676.495 306.36 670.447 315.096C664.399 323.608 655.439 330.888 643.567 336.936C631.695 342.984 617.359 346.008 600.559 346.008C575.695 346.008 555.311 339.736 539.407 327.192C523.503 314.648 515.551 296.392 515.551 272.424C515.551 265.704 516.447 257.864 518.239 248.904C523.839 221.352 536.047 200.632 554.863 186.744C573.903 172.632 596.975 165.576 624.079 165.576ZM594.175 244.872C595.071 245.096 596.303 245.208 597.871 245.208C607.279 245.208 614.447 240.84 619.375 232.104C624.303 223.368 626.655 213.624 626.431 202.872C626.207 196.6 624.415 193.464 621.055 193.464C618.591 193.464 615.679 195.48 612.319 199.512C608.959 203.32 605.599 209.144 602.239 216.984C599.103 224.824 596.415 234.12 594.175 244.872ZM873.918 167.256C886.686 167.256 896.878 170.84 904.494 178.008C912.334 184.952 916.254 193.464 916.254 203.544C916.254 214.296 913.006 222.696 906.51 228.744C900.014 234.792 891.502 237.816 880.974 237.816C871.566 237.816 864.286 235.464 859.134 230.76C853.982 225.832 851.518 220.344 851.742 214.296C849.502 213.848 847.598 214.744 846.03 216.984C844.462 219.224 842.782 223.592 840.99 230.088C839.87 234.344 837.742 238.264 834.606 241.848C849.838 242.968 861.15 246.44 868.542 252.264C875.934 258.088 879.63 265.592 879.63 274.776C879.63 279.256 878.846 283.736 877.278 288.216L874.59 298.632C874.142 299.752 873.918 301.208 873.918 303C873.918 306.136 875.374 307.704 878.286 307.704C880.974 307.704 883.214 306.584 885.006 304.344C887.022 301.88 888.366 300.648 889.038 300.648C890.158 300.648 891.054 301.432 891.726 303C892.398 304.344 892.734 306.024 892.734 308.04C892.958 314.536 890.942 320.92 886.686 327.192C882.654 333.24 876.382 338.28 867.87 342.312C859.582 346.12 849.502 348.024 837.63 348.024C823.294 348.024 811.31 344.44 801.678 337.272C792.27 330.104 787.566 320.696 787.566 309.048C787.566 304.792 788.462 299.976 790.254 294.6L796.638 277.8C797.758 273.768 798.318 270.856 798.318 269.064C798.318 266.152 797.31 264.024 795.294 262.68C793.502 261.336 790.59 260.664 786.558 260.664H779.838L764.718 310.056C764.046 312.744 763.71 315.096 763.71 317.112C763.71 320.024 764.27 322.376 765.39 324.168C766.51 325.736 768.078 327.304 770.094 328.872C771.662 330.44 772.782 331.784 773.454 332.904C774.126 333.8 774.238 335.032 773.79 336.6C772.67 339.512 770.43 341.64 767.07 342.984C763.71 344.328 758.558 345 751.614 345H675.006C669.182 345 664.926 344.104 662.238 342.312C659.55 340.296 658.654 337.72 659.55 334.584C660.446 331.896 662.798 329.544 666.606 327.528C669.966 325.736 672.766 323.608 675.006 321.144C677.246 318.68 679.15 314.76 680.718 309.384L731.79 141.72C732.462 139.704 732.798 138.024 732.798 136.68C732.798 134.216 732.126 132.2 730.782 130.632C729.662 129.064 728.094 127.496 726.078 125.928C723.838 124.136 722.158 122.568 721.038 121.224C720.142 119.88 720.03 118.088 720.702 115.848C722.046 110.696 729.102 106.216 741.87 102.408C754.638 98.6 767.966 96.696 781.854 96.696C794.846 96.696 804.366 99.16 810.414 104.088C816.462 108.792 819.486 115.4 819.486 123.912C819.486 129.064 818.702 133.992 817.134 138.696L787.902 234.12H798.99C803.47 234.12 807.054 232.776 809.742 230.088C812.654 227.4 814.894 223.48 816.462 218.328C822.062 201.752 829.342 189.096 838.302 180.36C847.262 171.624 859.134 167.256 873.918 167.256Z" fill="white"/>
<path d="M198.288 123.912L188.011 158.414L188.442 158.542L188.877 158.66L198.288 123.912ZM230.88 138.024L212.544 169.005L234.309 181.886L253.808 165.779L230.88 138.024ZM238.608 131.64L216.263 103.414L215.969 103.647L215.68 103.885L238.608 131.64ZM251.712 122.904L237.282 89.9224L236.883 90.0971L236.488 90.2814L251.712 122.904ZM276.576 124.248L254.334 152.555L254.982 153.064L255.651 153.542L276.576 124.248ZM280.272 140.04L246.119 128.656L245.97 129.105L245.832 129.558L280.272 140.04ZM266.16 186.408L231.72 175.926L231.659 176.127L231.6 176.328L266.16 186.408ZM260.112 197.832L235.896 171.194L235.262 171.77L234.656 172.376L260.112 197.832ZM236.592 196.824L212.886 223.917L213.78 224.699L214.724 225.421L236.592 196.824ZM219.456 178.008L247.112 154.961L246.834 154.628L246.549 154.302L219.456 178.008ZM197.952 159.192L179.269 189.964L179.907 190.352L180.561 190.713L197.952 159.192ZM166.032 158.52L190.595 184.838L191.049 184.415L191.488 183.976L166.032 158.52ZM169.056 185.4L145.35 212.493L145.676 212.778L146.009 213.056L169.056 185.4ZM194.256 202.536L175.557 233.299L175.689 233.379L175.822 233.458L194.256 202.536ZM223.152 221.352L201.826 250.355L201.826 250.355L223.152 221.352ZM247.344 291.576L213.082 280.524L212.969 280.877L212.862 281.231L247.344 291.576ZM216.096 332.568L234.486 363.517L234.65 363.419L234.814 363.319L216.096 332.568ZM123.024 340.968L134.625 306.889L134.625 306.889L123.024 340.968ZM90.768 322.824L112.83 294.376L89.9571 276.638L67.7214 295.168L90.768 322.824ZM78.672 332.904L55.6254 305.248L55.5711 305.293L55.5171 305.339L78.672 332.904ZM64.896 342.648L79.3255 375.63L80.1706 375.26L80.9957 374.847L64.896 342.648ZM40.368 341.304L17.1141 368.786L17.6128 369.208L18.1264 369.611L40.368 341.304ZM37.344 324.168L71.1766 336.471L71.3676 335.945L71.5422 335.414L37.344 324.168ZM53.808 274.104L88.0062 285.35L88.1143 285.022L88.216 284.691L53.808 274.104ZM61.2 261.672L83.4416 289.979L83.4416 289.979L61.2 261.672ZM87.072 263.352L63.1549 290.259L63.5148 290.579L63.8831 290.889L87.072 263.352ZM103.536 282.84L133.089 262.282L132.961 262.098L132.83 261.915L103.536 282.84ZM123.36 304.344L103.391 334.298L103.64 334.464L103.893 334.626L123.36 304.344ZM159.312 307.704L177.173 338.961L177.505 338.771L177.834 338.574L159.312 307.704ZM166.368 298.296L132.943 284.926L132.444 286.174L132.039 287.455L166.368 298.296ZM159.312 278.472L182.934 251.306L182.934 251.306L159.312 278.472ZM135.456 262.344L116.757 293.107L117.035 293.276L117.317 293.44L135.456 262.344ZM107.568 243.864L85.4048 272.233L85.6843 272.451L85.968 272.664L107.568 243.864ZM88.752 223.032L58.1777 242.038L58.3607 242.332L58.5494 242.623L88.752 223.032ZM84.72 170.616L118.972 181.698L119.069 181.398L119.16 181.098L84.72 170.616ZM113.616 133.32L94.0782 103.083L94.0782 103.083L113.616 133.32ZM163.68 119.208V155.208C173.228 155.208 181.252 156.401 188.011 158.414L198.288 123.912L208.565 89.4101C194.268 85.1513 179.22 83.208 163.68 83.208V119.208ZM198.288 123.912L188.877 158.66C196.083 160.612 203.965 163.927 212.544 169.005L230.88 138.024L249.216 107.043C235.843 99.1291 221.997 93.0361 207.699 89.1638L198.288 123.912ZM230.88 138.024L253.808 165.779L261.536 159.395L238.608 131.64L215.68 103.885L207.952 110.269L230.88 138.024ZM238.608 131.64L260.953 159.866C263.091 158.173 264.719 156.995 265.885 156.218C267.125 155.391 267.423 155.299 266.936 155.527L251.712 122.904L236.488 90.2814C229.292 93.6395 222.316 98.6224 216.263 103.414L238.608 131.64ZM251.712 122.904L266.142 155.886C264.561 156.577 263.577 156.552 263.808 156.552V120.552V84.552C255.079 84.552 246.031 86.0948 237.282 89.9224L251.712 122.904ZM263.808 120.552V156.552C263.804 156.552 262.753 156.557 261.022 156.056C259.2 155.529 256.786 154.481 254.334 152.555L276.576 124.248L298.818 95.9406C287.446 87.0057 274.458 84.552 263.808 84.552V120.552ZM276.576 124.248L255.651 153.542C252.38 151.206 249.425 147.837 247.481 143.672C245.626 139.697 245.28 136.272 245.28 134.328H281.28H317.28C317.28 120.386 311.731 105.118 297.501 94.9536L276.576 124.248ZM281.28 134.328H245.28C245.28 131.608 245.789 129.647 246.119 128.656L280.272 140.04L314.425 151.424C316.099 146.401 317.28 140.632 317.28 134.328H281.28ZM280.272 140.04L245.832 129.558L231.72 175.926L266.16 186.408L300.6 196.89L314.712 150.522L280.272 140.04ZM266.16 186.408L231.6 176.328C231.308 177.329 231.242 177.233 231.656 176.452C232.052 175.702 233.292 173.562 235.896 171.194L260.112 197.832L284.328 224.47C294.001 215.677 298.419 204.377 300.72 196.488L266.16 186.408ZM260.112 197.832L234.656 172.376C241.839 165.193 249.446 165.192 249.696 165.192V201.192V237.192C259.354 237.192 273.905 234.951 285.568 223.288L260.112 197.832ZM249.696 201.192V165.192C250.829 165.192 252.371 165.368 254.108 165.947C255.856 166.53 257.332 167.365 258.46 168.227L236.592 196.824L214.724 225.421C224.998 233.277 237.102 237.192 249.696 237.192V201.192ZM236.592 196.824L260.298 169.731C260.3 169.733 260.273 169.71 260.217 169.658C260.16 169.606 260.08 169.532 259.976 169.432C259.764 169.23 259.478 168.95 259.113 168.581C258.374 167.833 257.422 166.83 256.236 165.528C253.853 162.911 250.828 159.421 247.112 154.961L219.456 178.008L191.8 201.055C199.546 210.35 206.902 218.681 212.886 223.917L236.592 196.824ZM219.456 178.008L246.549 154.302C237.413 143.861 227.04 134.125 215.343 127.671L197.952 159.192L180.561 190.713C181.856 191.427 185.819 194.235 192.363 201.714L219.456 178.008ZM197.952 159.192L216.635 128.42C205.266 121.517 192.372 117.48 178.464 117.48V153.48V189.48C178.438 189.48 178.388 189.478 178.329 189.469C178.269 189.461 178.24 189.452 178.25 189.455C178.254 189.456 178.586 189.55 179.269 189.964L197.952 159.192ZM178.464 153.48V117.48C164.384 117.48 150.962 122.678 140.576 133.064L166.032 158.52L191.488 183.976C189.977 185.487 187.855 187.02 185.185 188.103C182.542 189.174 180.162 189.48 178.464 189.48V153.48ZM166.032 158.52L141.469 132.202C130.622 142.326 124.992 155.863 124.992 170.28H160.992H196.992C196.992 172.299 196.611 175.03 195.341 177.993C194.063 180.975 192.282 183.264 190.595 184.838L166.032 158.52ZM160.992 170.28H124.992C124.992 189.169 134.876 203.328 145.35 212.493L169.056 185.4L192.762 158.307C192.563 158.133 193.625 158.999 194.773 161.151C196.03 163.509 196.992 166.69 196.992 170.28H160.992ZM169.056 185.4L146.009 213.056C153.482 219.283 163.716 226.101 175.557 233.299L194.256 202.536L212.955 171.773C201.948 165.083 195.382 160.477 192.103 157.744L169.056 185.4ZM194.256 202.536L175.822 233.458C186.863 240.04 195.446 245.664 201.826 250.355L223.152 221.352L244.478 192.349C235.626 185.84 224.945 178.92 212.69 171.614L194.256 202.536ZM223.152 221.352L201.826 250.355C205.783 253.265 209.32 256.968 212.437 261.775L242.64 242.184L272.843 222.593C265.208 210.824 255.753 200.639 244.478 192.349L223.152 221.352ZM242.64 242.184L212.437 261.775C213.696 263.715 214.704 266.305 214.704 270.744H250.704H286.704C286.704 253.679 282.336 237.229 272.843 222.593L242.64 242.184ZM250.704 270.744H214.704C214.704 273.749 214.229 276.969 213.082 280.524L247.344 291.576L281.606 302.628C284.939 292.295 286.704 281.627 286.704 270.744H250.704ZM247.344 291.576L212.862 281.231C209.945 290.954 204.961 297.201 197.378 301.817L216.096 332.568L234.814 363.319C258.143 349.119 273.991 328.038 281.826 301.921L247.344 291.576ZM216.096 332.568L197.706 301.619C188.588 307.037 177.099 310.344 162 310.344V346.344V382.344C188.117 382.344 212.692 376.467 234.486 363.517L216.096 332.568ZM162 346.344V310.344C149.07 310.344 140.276 308.812 134.625 306.889L123.024 340.968L111.422 375.047C126.828 380.292 144.018 382.344 162 382.344V346.344ZM123.024 340.968L134.625 306.889C128.678 304.864 121.406 301.027 112.83 294.376L90.768 322.824L68.7063 351.272C82.0817 361.645 96.3142 369.904 111.423 375.047L123.024 340.968ZM90.768 322.824L67.7214 295.168L55.6254 305.248L78.672 332.904L101.719 360.56L113.815 350.48L90.768 322.824ZM78.672 332.904L55.5171 305.339C53.2677 307.228 51.5228 308.569 50.2393 309.477C48.8882 310.433 48.4521 310.621 48.7963 310.449L64.896 342.648L80.9957 374.847C88.3772 371.157 95.5265 365.762 101.827 360.469L78.672 332.904ZM64.896 342.648L50.4665 309.666C52.0471 308.975 53.0312 309 52.8 309V345V381C61.5288 381 70.5768 379.457 79.3255 375.63L64.896 342.648ZM52.8 345V309C53.3376 309 57.7577 309.184 62.6096 312.997L40.368 341.304L18.1264 369.611C29.2503 378.352 41.9584 381 52.8 381V345ZM40.368 341.304L63.6219 313.822C66.2134 316.015 68.5566 319.005 70.124 322.622C71.6457 326.134 72 329.219 72 331.224H36H-8.80659e-06C-8.80659e-06 344.691 5.12196 358.639 17.1141 368.786L40.368 341.304ZM36 331.224H72C72 333.828 71.475 335.65 71.1766 336.471L37.344 324.168L3.51143 311.865C1.42101 317.614 -8.80659e-06 324.14 -8.80659e-06 331.224H36ZM37.344 324.168L71.5422 335.414L88.0062 285.35L53.808 274.104L19.6098 262.858L3.14577 312.922L37.344 324.168ZM53.808 274.104L88.216 284.691C88.481 283.83 88.4964 284.096 87.9433 285.027C87.3699 285.991 86.0038 287.966 83.4416 289.979L61.2 261.672L38.9584 233.365C27.7481 242.173 22.2836 254.145 19.3999 263.517L53.808 274.104ZM61.2 261.672L83.4416 289.979C78.8566 293.582 74.4865 293.976 73.296 293.976V257.976V221.976C62.2495 221.976 49.8154 224.834 38.9584 233.365L61.2 261.672ZM73.296 257.976V293.976C71.5996 293.976 69.5789 293.662 67.5165 292.857C65.4797 292.062 64.0264 291.033 63.1549 290.259L87.072 263.352L110.989 236.445C100.707 227.305 87.7089 221.976 73.296 221.976V257.976ZM87.072 263.352L63.8831 290.889C63.8696 290.877 64.8397 291.73 66.8801 294.145C68.8176 296.438 71.2622 299.593 74.2416 303.765L103.536 282.84L132.83 261.915C125.816 252.096 118.166 242.472 110.261 235.815L87.072 263.352ZM103.536 282.84L73.9834 303.398C82.1319 315.112 91.808 326.576 103.391 334.298L123.36 304.344L143.329 274.39C143.334 274.394 142.315 273.689 140.337 271.543C138.411 269.454 135.985 266.446 133.089 262.282L103.536 282.84ZM123.36 304.344L103.893 334.626C116.761 342.899 131.124 346.392 145.536 346.392V310.392V274.392C144.13 274.392 143.369 274.227 143.08 274.148C142.93 274.108 142.86 274.077 142.845 274.071C142.831 274.064 142.83 274.064 142.827 274.062L123.36 304.344ZM145.536 310.392V346.392C154.112 346.392 166.079 345.3 177.173 338.961L159.312 307.704L141.451 276.447C144.129 274.917 146.141 274.48 146.622 274.386C147.144 274.284 146.879 274.392 145.536 274.392V310.392ZM159.312 307.704L177.834 338.574C189.78 331.406 197.099 320.531 200.697 309.137L166.368 298.296L132.039 287.455C132.423 286.24 133.223 284.337 134.796 282.24C136.413 280.084 138.475 278.223 140.79 276.834L159.312 307.704ZM166.368 298.296L199.793 311.666C202.832 304.068 203.04 296.834 203.04 293.256H167.04H131.04C131.04 293.224 131.041 293.058 131.057 292.777C131.072 292.501 131.107 292.043 131.188 291.438C131.324 290.416 131.715 287.995 132.943 284.926L166.368 298.296ZM167.04 293.256H203.04C203.04 274.776 193.668 260.639 182.934 251.306L159.312 278.472L135.69 305.638C135.623 305.58 134.412 304.517 133.204 302.205C131.897 299.705 131.04 296.579 131.04 293.256H167.04ZM159.312 278.472L182.934 251.306C175.229 244.606 164.985 237.892 153.595 231.248L135.456 262.344L117.317 293.44C127.431 299.34 133.091 303.378 135.69 305.638L159.312 278.472ZM135.456 262.344L154.155 231.581C143.295 224.98 135.068 219.489 129.168 215.064L107.568 243.864L85.968 272.664C94.4038 278.991 104.769 285.82 116.757 293.107L135.456 262.344ZM107.568 243.864L129.731 215.495C125.971 212.558 122.343 208.665 118.955 203.441L88.752 223.032L58.5494 242.623C65.9126 253.975 74.8288 263.97 85.4048 272.233L107.568 243.864ZM88.752 223.032L119.326 204.026C118.22 202.247 117.024 199.296 117.024 193.8H81.024H45.024C45.024 210.704 48.98 227.241 58.1777 242.038L88.752 223.032ZM81.024 193.8H117.024C117.024 189.802 117.642 185.81 118.972 181.698L84.72 170.616L50.468 159.534C46.8705 170.654 45.024 182.118 45.024 193.8H81.024ZM84.72 170.616L119.16 181.098C121.199 174.4 125.177 168.711 133.154 163.557L113.616 133.32L94.0782 103.083C72.9353 116.745 57.6492 135.92 50.2797 160.134L84.72 170.616ZM113.616 133.32L133.154 163.557C141.394 158.232 151.179 155.208 163.68 155.208V119.208V83.208C138.549 83.208 114.958 89.5917 94.0782 103.083L113.616 133.32ZM381.896 104.088L359.156 131.996L359.404 132.198L359.655 132.395L381.896 104.088ZM388.952 138.696L354.8 127.312L354.668 127.707L354.546 128.104L388.952 138.696ZM336.2 310.056L301.794 299.464L301.509 300.387L301.275 301.325L336.2 310.056ZM336.872 324.168L306.344 343.248L306.933 344.189L307.578 345.093L336.872 324.168ZM341.576 328.872L367.032 303.416L365.447 301.831L363.678 300.455L341.576 328.872ZM344.936 332.904L314.066 351.426L315.022 353.018L316.136 354.504L344.936 332.904ZM345.272 336.6L378.873 349.523L379.447 348.029L379.887 346.49L345.272 336.6ZM338.552 342.984L325.182 309.559L325.182 309.559L338.552 342.984ZM233.72 342.312L212.12 371.112L212.92 371.712L213.751 372.266L233.72 342.312ZM231.032 334.584L196.88 323.2L196.632 323.942L196.417 324.694L231.032 334.584ZM238.088 327.528L254.932 359.344L254.981 359.319L255.029 359.293L238.088 327.528ZM246.488 321.144L219.85 296.928L246.488 321.144ZM252.2 309.384L217.762 298.894L217.7 299.099L217.64 299.304L252.2 309.384ZM303.272 141.72L269.12 130.336L268.971 130.781L268.834 131.23L303.272 141.72ZM302.264 130.632L272.97 151.557L273.895 152.852L274.931 154.061L302.264 130.632ZM297.56 125.928L275.071 154.039L275.264 154.193L275.458 154.345L297.56 125.928ZM292.52 121.224L262.566 141.193L263.633 142.793L264.864 144.271L292.52 121.224ZM292.184 115.848L326.666 126.193L326.854 125.567L327.018 124.935L292.184 115.848ZM313.352 102.408L303.063 67.9096L303.063 67.9096L313.352 102.408ZM353.336 96.696V132.696C357.7 132.696 360.154 133.125 361.2 133.396C362.207 133.656 361.056 133.544 359.156 131.996L381.896 104.088L404.636 76.1795C389.106 63.5253 369.545 60.696 353.336 60.696V96.696ZM381.896 104.088L359.655 132.395C358.696 131.642 357.326 130.184 356.33 128.048C355.367 125.984 355.304 124.476 355.304 124.248H391.304H427.304C427.304 105.545 419.748 88.0456 404.138 75.7805L381.896 104.088ZM391.304 124.248H355.304C355.304 125.282 355.152 126.255 354.8 127.312L388.952 138.696L423.105 150.08C425.889 141.728 427.304 133.07 427.304 124.248H391.304ZM388.952 138.696L354.546 128.104L301.794 299.464L336.2 310.056L370.607 320.648L423.359 149.288L388.952 138.696ZM336.2 310.056L301.275 301.325C300.135 305.886 299.192 311.288 299.192 317.112H335.192H371.192C371.192 318.076 371.114 318.706 371.082 318.927C371.05 319.157 371.042 319.123 371.125 318.787L336.2 310.056ZM335.192 317.112H299.192C299.192 324.316 300.539 333.959 306.344 343.248L336.872 324.168L367.4 305.088C370.966 310.793 371.192 315.732 371.192 317.112H335.192ZM336.872 324.168L307.578 345.093C311.255 350.241 315.547 354.234 319.474 357.289L341.576 328.872L363.678 300.455C363.682 300.459 363.745 300.507 363.854 300.603C363.964 300.699 364.132 300.852 364.344 301.064C364.758 301.478 365.417 302.194 366.167 303.243L336.872 324.168ZM341.576 328.872L316.12 354.328C316.328 354.535 316.228 354.452 315.936 354.103C315.681 353.796 314.941 352.884 314.066 351.426L344.936 332.904L375.806 314.382C372.93 309.589 369.452 305.836 367.032 303.416L341.576 328.872ZM344.936 332.904L316.136 354.504C307.373 342.819 309.489 330.801 310.657 326.71L345.272 336.6L379.887 346.49C381.952 339.263 383.844 324.781 373.736 311.304L344.936 332.904ZM345.272 336.6L311.672 323.677C313.012 320.192 315.161 316.937 317.957 314.28C320.662 311.711 323.338 310.297 325.182 309.559L338.552 342.984L351.922 376.409C362.956 371.996 373.571 363.307 378.873 349.523L345.272 336.6ZM338.552 342.984L325.182 309.559C326.289 309.116 327.078 308.911 327.399 308.835C327.735 308.756 327.796 308.761 327.512 308.798C327.237 308.834 326.736 308.887 325.971 308.929C325.212 308.972 324.26 309 323.096 309V345V381C331.197 381 341.995 380.38 351.922 376.409L338.552 342.984ZM323.096 345V309H246.488V345V381H323.096V345ZM246.488 345V309C245.287 309 245.373 308.896 246.345 309.1C247.239 309.288 250.152 310 253.689 312.358L233.72 342.312L213.751 372.266C225.443 380.06 238.509 381 246.488 381V345ZM233.72 342.312L255.32 313.512C258.368 315.798 262.633 320.139 265.034 327.041C267.468 334.038 266.828 340.339 265.647 344.474L231.032 334.584L196.417 324.694C194.34 331.965 193.701 341.122 197.03 350.695C200.327 360.173 206.385 366.81 212.12 371.112L233.72 342.312ZM231.032 334.584L265.185 345.968C261.944 355.692 255.148 359.23 254.932 359.344L238.088 327.528L221.244 295.712C213.412 299.858 201.913 308.1 196.88 323.2L231.032 334.584ZM238.088 327.528L255.029 359.293C261.515 355.834 267.743 351.282 273.126 345.36L246.488 321.144L219.85 296.928C220.753 295.934 221.381 295.638 221.147 295.763L238.088 327.528ZM246.488 321.144L273.126 345.36C280.743 336.982 284.571 326.969 286.76 319.464L252.2 309.384L217.64 299.304C217.271 300.568 217.075 300.913 217.214 300.627C217.295 300.46 217.513 300.032 217.909 299.422C218.304 298.814 218.932 297.938 219.85 296.928L246.488 321.144ZM252.2 309.384L286.638 319.874L337.71 152.21L303.272 141.72L268.834 131.23L217.762 298.894L252.2 309.384ZM303.272 141.72L337.425 153.104C338.696 149.291 340.28 143.469 340.28 136.68H304.28H268.28C268.28 134.439 268.55 132.773 268.727 131.888C268.912 130.966 269.091 130.423 269.12 130.336L303.272 141.72ZM304.28 136.68H340.28C340.28 127.362 337.571 116.506 329.597 107.203L302.264 130.632L274.931 154.061C269.646 147.894 268.28 141.07 268.28 136.68H304.28ZM302.264 130.632L331.559 109.707C327.881 104.559 323.59 100.566 319.662 97.5113L297.56 125.928L275.458 154.345C275.454 154.341 275.392 154.293 275.282 154.197C275.172 154.101 275.005 153.948 274.792 153.736C274.379 153.322 273.719 152.606 272.97 151.557L302.264 130.632ZM297.56 125.928L320.049 97.8167C319.772 97.5953 319.563 97.421 319.414 97.2928C319.263 97.1636 319.191 97.0965 319.184 97.09C319.175 97.0819 319.259 97.1599 319.415 97.3221C319.568 97.4813 319.835 97.7675 320.176 98.1773L292.52 121.224L264.864 144.271C268.196 148.269 271.977 151.564 275.071 154.039L297.56 125.928ZM292.52 121.224L322.474 101.255C329.821 112.275 327.65 122.913 326.666 126.193L292.184 115.848L257.703 105.503C255.375 113.263 253.427 127.485 262.566 141.193L292.52 121.224ZM292.184 115.848L327.018 124.935C325.695 130.01 323.28 133.61 321.395 135.771C319.595 137.836 318.094 138.817 317.781 139.016C317.358 139.284 318.79 138.353 323.641 136.906L313.352 102.408L303.063 67.9096C295.147 70.2708 286.666 73.4843 279.188 78.2323C272.177 82.6836 261.327 91.5148 257.35 106.761L292.184 115.848ZM313.352 102.408L323.641 136.906C332.931 134.136 342.784 132.696 353.336 132.696V96.696V60.696C336.112 60.696 319.309 63.0643 303.063 67.9096L313.352 102.408ZM521.407 179.352L500.386 208.577L500.556 208.699L500.728 208.82L521.407 179.352ZM539.215 225.72L504.29 216.989L504.196 217.364L504.11 217.742L539.215 225.72ZM510.991 257.64L524.698 290.928L524.819 290.879L524.94 290.828L510.991 257.64ZM427.327 265.032L432.54 229.411L392.119 223.496L391.334 264.34L427.327 265.032ZM436.735 289.56L457.849 260.402L457.849 260.402L436.735 289.56ZM479.407 294.936L487.385 330.041L488.136 329.87L488.879 329.667L479.407 294.936ZM498.223 289.224L509.305 323.476L509.821 323.309L510.331 323.127L498.223 289.224ZM514.687 290.232H478.687V290.746L478.702 291.26L514.687 290.232ZM505.951 315.096L535.298 335.947L535.425 335.768L535.55 335.588L505.951 315.096ZM479.071 336.936L495.412 369.013L495.412 369.013L479.071 336.936ZM374.911 327.192L397.205 298.926L397.205 298.926L374.911 327.192ZM353.743 248.904L318.464 241.734L318.453 241.789L318.442 241.844L353.743 248.904ZM390.367 186.744L411.746 215.709L411.775 215.687L411.803 215.666L390.367 186.744ZM429.679 244.872L394.436 237.53L387.378 271.405L420.948 279.797L429.679 244.872ZM454.879 232.104L486.234 249.792L486.234 249.792L454.879 232.104ZM461.935 202.872L497.927 202.122L497.922 201.855L497.912 201.587L461.935 202.872ZM447.823 199.512L474.817 223.33L475.154 222.949L475.479 222.559L447.823 199.512ZM437.743 216.984L404.654 202.803L404.481 203.206L404.318 203.614L437.743 216.984ZM459.583 165.576V201.576C485.817 201.576 496.981 206.128 500.386 208.577L521.407 179.352L542.429 150.127C520.297 134.208 490.246 129.576 459.583 129.576V165.576ZM521.407 179.352L500.728 208.82C503.451 210.731 504.169 211.967 504.273 212.155C504.344 212.283 504.387 212.391 504.428 212.554C504.472 212.73 504.559 213.165 504.559 213.96H540.559H576.559C576.559 186.744 563.278 164.755 542.086 149.884L521.407 179.352ZM540.559 213.96H504.559C504.559 215.708 504.374 216.654 504.29 216.989L539.215 225.72L574.14 234.451C575.849 227.618 576.559 220.724 576.559 213.96H540.559ZM539.215 225.72L504.11 217.742C503.625 219.877 503.11 221.902 497.043 224.452L510.991 257.64L524.94 290.828C549.784 280.386 568.085 261.131 574.32 233.698L539.215 225.72ZM510.991 257.64L497.284 224.352C487.385 228.428 474.222 231.048 456.895 231.048V267.048V303.048C481.232 303.048 504.134 299.396 524.698 290.928L510.991 257.64ZM456.895 267.048V231.048C447.884 231.048 439.787 230.472 432.54 229.411L427.327 265.032L422.114 300.653C433.236 302.28 444.85 303.048 456.895 303.048V267.048ZM427.327 265.032L391.334 264.34C390.992 282.096 395.753 304.331 415.621 318.718L436.735 289.56L457.849 260.402C459.174 261.361 460.359 262.532 461.323 263.821C462.273 265.091 462.825 266.229 463.123 267.008C463.667 268.426 463.27 268.357 463.32 265.724L427.327 265.032ZM436.735 289.56L415.621 318.718C430.472 329.472 448.008 332.616 463.951 332.616V296.616V260.616C460.471 260.616 458.419 260.257 457.446 260.004C456.536 259.768 456.903 259.717 457.849 260.402L436.735 289.56ZM463.951 296.616V332.616C471.842 332.616 479.679 331.792 487.385 330.041L479.407 294.936L471.429 259.831C469.279 260.32 466.813 260.616 463.951 260.616V296.616ZM479.407 294.936L488.879 329.667C494.56 328.118 501.417 326.028 509.305 323.476L498.223 289.224L487.142 254.972C479.797 257.348 474.11 259.066 469.935 260.205L479.407 294.936ZM498.223 289.224L510.331 323.127C511.589 322.677 512.638 322.323 513.495 322.05C514.362 321.773 514.944 321.607 515.281 321.519C515.443 321.476 515.507 321.462 515.486 321.467C515.467 321.471 515.316 321.505 515.05 321.551C514.791 321.595 514.333 321.667 513.711 321.731C513.105 321.792 512.172 321.864 510.991 321.864V285.864V249.864C505.074 249.864 499.787 251.145 496.957 251.889C493.469 252.807 489.783 254.011 486.115 255.321L498.223 289.224ZM510.991 285.864V321.864C504.952 321.864 494.392 319.796 486.281 310.21C479.145 301.776 478.687 292.993 478.687 290.232H514.687H550.687C550.687 284.559 549.614 273.592 541.245 263.702C531.902 252.66 519.494 249.864 510.991 249.864V285.864ZM514.687 290.232L478.702 291.26C478.641 289.124 479.559 289.973 476.352 294.604L505.951 315.096L535.55 335.588C544.44 322.747 551.181 307.02 550.672 289.204L514.687 290.232ZM505.951 315.096L476.605 294.245C474.723 296.893 470.815 300.739 462.73 304.859L479.071 336.936L495.412 369.013C511.071 361.037 525.083 350.323 535.298 335.947L505.951 315.096ZM479.071 336.936L462.73 304.859C457.067 307.743 448.629 310.008 436.063 310.008V346.008V382.008C457.098 382.008 477.331 378.225 495.412 369.013L479.071 336.936ZM436.063 346.008V310.008C417.398 310.008 405.418 305.403 397.205 298.926L374.911 327.192L352.617 355.458C376.213 374.069 405.001 382.008 436.063 382.008V346.008ZM374.911 327.192L397.205 298.926C391.589 294.496 387.055 287.629 387.055 272.424H351.055H315.055C315.055 305.155 326.426 334.8 352.617 355.458L374.911 327.192ZM351.055 272.424H387.055C387.055 268.747 387.563 263.368 389.044 255.964L353.743 248.904L318.442 241.844C316.339 252.36 315.055 262.661 315.055 272.424H351.055ZM353.743 248.904L389.022 256.074C393.225 235.397 401.495 223.275 411.746 215.709L390.367 186.744L368.988 157.779C341.607 177.989 325.462 207.307 318.464 241.734L353.743 248.904ZM390.367 186.744L411.803 215.666C423.773 206.794 439.043 201.576 459.583 201.576V165.576V129.576C425.915 129.576 395.041 138.47 368.931 157.822L390.367 186.744ZM429.679 244.872L420.948 279.797C426 281.06 430.602 281.208 433.375 281.208V245.208V209.208C433.407 209.208 433.826 209.207 434.534 209.272C435.187 209.331 436.575 209.488 438.41 209.947L429.679 244.872ZM433.375 245.208V281.208C456.795 281.208 475.443 268.922 486.234 249.792L454.879 232.104L423.524 214.416C423.494 214.47 424.468 212.778 427.074 211.19C429.794 209.532 432.29 209.208 433.375 209.208V245.208ZM454.879 232.104L486.234 249.792C494.561 235.03 498.276 218.842 497.927 202.122L461.935 202.872L425.943 203.622C426.043 208.406 425.053 211.706 423.524 214.416L454.879 232.104ZM461.935 202.872L497.912 201.587C497.725 196.34 496.875 187.047 491.68 177.955C484.962 166.199 472.3 157.464 456.559 157.464V193.464V229.464C451.572 229.464 445.69 228.226 440.067 224.803C434.57 221.457 431.144 217.138 429.166 213.677C427.282 210.38 426.555 207.621 426.272 206.299C426.115 205.566 426.039 205.012 426.002 204.683C425.965 204.349 425.958 204.165 425.958 204.157L461.935 202.872ZM456.559 193.464V157.464C445.442 157.464 436.991 161.947 432.036 165.377C426.957 168.893 423.03 173.03 420.167 176.465L447.823 199.512L475.479 222.559C475.976 221.962 475.186 223.075 473.019 224.575C470.976 225.989 465.212 229.464 456.559 229.464V193.464ZM447.823 199.512L420.829 175.694C413.797 183.664 408.644 193.493 404.654 202.803L437.743 216.984L470.832 231.165C472.093 228.223 473.155 226.132 473.966 224.726C474.807 223.267 475.139 222.966 474.817 223.33L447.823 199.512ZM437.743 216.984L404.318 203.614C400.209 213.886 396.985 225.296 394.436 237.53L429.679 244.872L464.922 252.214C466.854 242.944 469.005 235.762 471.168 230.354L437.743 216.984ZM685.903 179.352L664.881 208.577L665.052 208.699L665.223 208.82L685.903 179.352ZM703.711 225.72L668.786 216.989L668.692 217.364L668.606 217.742L703.711 225.72ZM675.487 257.64L689.194 290.928L689.315 290.879L689.435 290.828L675.487 257.64ZM591.823 265.032L597.036 229.411L556.615 223.496L555.829 264.34L591.823 265.032ZM601.231 289.56L622.345 260.402L622.345 260.402L601.231 289.56ZM643.903 294.936L651.881 330.041L652.632 329.87L653.375 329.667L643.903 294.936ZM662.719 289.224L673.8 323.476L674.316 323.309L674.827 323.127L662.719 289.224ZM679.183 290.232H643.183V290.746L643.197 291.26L679.183 290.232ZM670.447 315.096L699.793 335.947L699.921 335.768L700.046 335.588L670.447 315.096ZM643.567 336.936L659.908 369.013L659.908 369.013L643.567 336.936ZM539.407 327.192L561.701 298.926L561.701 298.926L539.407 327.192ZM518.239 248.904L482.96 241.734L482.949 241.789L482.938 241.844L518.239 248.904ZM554.863 186.744L576.241 215.709L576.27 215.687L576.299 215.666L554.863 186.744ZM594.175 244.872L558.931 237.53L551.874 271.405L585.444 279.797L594.175 244.872ZM619.375 232.104L650.73 249.792L650.73 249.792L619.375 232.104ZM626.431 202.872L662.423 202.122L662.417 201.855L662.408 201.587L626.431 202.872ZM612.319 199.512L639.313 223.33L639.649 222.949L639.975 222.559L612.319 199.512ZM602.239 216.984L569.15 202.803L568.977 203.206L568.814 203.614L602.239 216.984ZM624.079 165.576V201.576C650.312 201.576 661.477 206.128 664.881 208.577L685.903 179.352L706.924 150.127C684.792 134.208 654.741 129.576 624.079 129.576V165.576ZM685.903 179.352L665.223 208.82C667.947 210.731 668.664 211.967 668.768 212.155C668.839 212.283 668.883 212.391 668.924 212.554C668.967 212.73 669.055 213.165 669.055 213.96H705.055H741.055C741.055 186.744 727.774 164.755 706.582 149.884L685.903 179.352ZM705.055 213.96H669.055C669.055 215.708 668.869 216.654 668.786 216.989L703.711 225.72L738.636 234.451C740.344 227.618 741.055 220.724 741.055 213.96H705.055ZM703.711 225.72L668.606 217.742C668.121 219.877 667.606 221.902 661.538 224.452L675.487 257.64L689.435 290.828C714.28 280.386 732.581 261.131 738.816 233.698L703.711 225.72ZM675.487 257.64L661.78 224.352C651.88 228.428 638.717 231.048 621.391 231.048V267.048V303.048C645.728 303.048 668.629 299.396 689.194 290.928L675.487 257.64ZM621.391 267.048V231.048C612.38 231.048 604.282 230.472 597.036 229.411L591.823 265.032L586.61 300.653C597.731 302.28 609.346 303.048 621.391 303.048V267.048ZM591.823 265.032L555.829 264.34C555.488 282.096 560.249 304.331 580.116 318.718L601.231 289.56L622.345 260.402C623.669 261.361 624.855 262.532 625.819 263.821C626.768 265.091 627.32 266.229 627.619 267.008C628.163 268.426 627.765 268.357 627.816 265.724L591.823 265.032ZM601.231 289.56L580.116 318.718C594.968 329.472 612.503 332.616 628.447 332.616V296.616V260.616C624.967 260.616 622.915 260.257 621.941 260.004C621.031 259.768 621.399 259.717 622.345 260.402L601.231 289.56ZM628.447 296.616V332.616C636.337 332.616 644.175 331.792 651.881 330.041L643.903 294.936L635.924 259.831C633.775 260.32 631.308 260.616 628.447 260.616V296.616ZM643.903 294.936L653.375 329.667C659.055 328.118 665.913 326.028 673.8 323.476L662.719 289.224L651.637 254.972C644.292 257.348 638.606 259.066 634.431 260.205L643.903 294.936ZM662.719 289.224L674.827 323.127C676.085 322.677 677.133 322.323 677.99 322.05C678.858 321.773 679.44 321.607 679.777 321.519C679.938 321.476 680.003 321.462 679.981 321.467C679.963 321.471 679.812 321.505 679.545 321.551C679.286 321.595 678.828 321.667 678.207 321.731C677.601 321.792 676.668 321.864 675.487 321.864V285.864V249.864C669.57 249.864 664.282 251.145 661.453 251.889C657.965 252.807 654.279 254.011 650.611 255.321L662.719 289.224ZM675.487 285.864V321.864C669.448 321.864 658.888 319.796 650.777 310.21C643.64 301.776 643.183 292.993 643.183 290.232H679.183H715.183C715.183 284.559 714.109 273.592 705.741 263.702C696.397 252.66 683.99 249.864 675.487 249.864V285.864ZM679.183 290.232L643.197 291.26C643.136 289.124 644.054 289.973 640.848 294.604L670.447 315.096L700.046 335.588C708.935 322.747 715.677 307.02 715.168 289.204L679.183 290.232ZM670.447 315.096L641.1 294.245C639.219 296.893 635.311 300.739 627.225 304.859L643.567 336.936L659.908 369.013C675.566 361.037 689.579 350.323 699.793 335.947L670.447 315.096ZM643.567 336.936L627.225 304.859C621.562 307.743 613.124 310.008 600.559 310.008V346.008V382.008C621.593 382.008 641.827 378.225 659.908 369.013L643.567 336.936ZM600.559 346.008V310.008C581.893 310.008 569.913 305.403 561.701 298.926L539.407 327.192L517.112 355.458C540.708 374.069 569.496 382.008 600.559 382.008V346.008ZM539.407 327.192L561.701 298.926C556.084 294.496 551.551 287.629 551.551 272.424H515.551H479.551C479.551 305.155 490.921 334.8 517.112 355.458L539.407 327.192ZM515.551 272.424H551.551C551.551 268.747 552.059 263.368 553.54 255.964L518.239 248.904L482.938 241.844C480.835 252.36 479.551 262.661 479.551 272.424H515.551ZM518.239 248.904L553.517 256.074C557.72 235.397 565.991 223.275 576.241 215.709L554.863 186.744L533.484 157.779C506.103 177.989 489.957 207.307 482.96 241.734L518.239 248.904ZM554.863 186.744L576.299 215.666C588.269 206.794 603.539 201.576 624.079 201.576V165.576V129.576C590.411 129.576 559.536 138.47 533.426 157.822L554.863 186.744ZM594.175 244.872L585.444 279.797C590.495 281.06 595.097 281.208 597.871 281.208V245.208V209.208C597.903 209.208 598.321 209.207 599.03 209.272C599.682 209.331 601.071 209.488 602.906 209.947L594.175 244.872ZM597.871 245.208V281.208C621.291 281.208 639.938 268.922 650.73 249.792L619.375 232.104L588.02 214.416C587.989 214.47 588.963 212.778 591.569 211.19C594.29 209.532 596.786 209.208 597.871 209.208V245.208ZM619.375 232.104L650.73 249.792C659.057 235.03 662.771 218.842 662.423 202.122L626.431 202.872L590.439 203.622C590.538 208.406 589.549 211.706 588.02 214.416L619.375 232.104ZM626.431 202.872L662.408 201.587C662.22 196.34 661.371 187.047 656.176 177.955C649.458 166.199 636.796 157.464 621.055 157.464V193.464V229.464C616.067 229.464 610.186 228.226 604.563 224.803C599.066 221.457 595.64 217.138 593.662 213.677C591.778 210.38 591.051 207.621 590.768 206.299C590.611 205.566 590.535 205.012 590.498 204.683C590.46 204.349 590.454 204.165 590.454 204.157L626.431 202.872ZM621.055 193.464V157.464C609.938 157.464 601.486 161.947 596.531 165.377C591.452 168.893 587.525 173.03 584.663 176.465L612.319 199.512L639.975 222.559C640.472 221.962 639.681 223.075 637.514 224.575C635.471 225.989 629.708 229.464 621.055 229.464V193.464ZM612.319 199.512L585.325 175.694C578.292 183.664 573.139 193.493 569.15 202.803L602.239 216.984L635.328 231.165C636.589 228.223 637.65 226.132 638.461 224.726C639.303 223.267 639.634 222.966 639.313 223.33L612.319 199.512ZM602.239 216.984L568.814 203.614C564.705 213.886 561.48 225.296 558.931 237.53L594.175 244.872L629.418 252.214C631.349 242.944 633.501 235.762 635.664 230.354L602.239 216.984ZM904.494 178.008L879.821 204.223L880.218 204.596L880.625 204.957L904.494 178.008ZM906.51 228.744L931.041 255.092L931.041 255.092L906.51 228.744ZM859.134 230.76L834.25 256.775L834.552 257.064L834.861 257.345L859.134 230.76ZM851.742 214.296L887.718 215.628L888.852 185.005L858.803 178.995L851.742 214.296ZM846.03 216.984L875.523 237.629L875.523 237.629L846.03 216.984ZM840.99 230.088L806.287 220.515L806.23 220.72L806.176 220.926L840.99 230.088ZM834.606 241.848L807.514 218.142L759.987 272.458L831.966 277.751L834.606 241.848ZM868.542 252.264L890.822 223.986L890.822 223.986L868.542 252.264ZM877.278 288.216L843.299 276.323L842.799 277.753L842.42 279.22L877.278 288.216ZM874.59 298.632L908.016 312.002L908.872 309.861L909.448 307.628L874.59 298.632ZM885.006 304.344L857.144 281.547L857.019 281.701L856.895 281.855L885.006 304.344ZM891.726 303L858.637 317.181L859.054 318.154L859.527 319.1L891.726 303ZM892.734 308.04H856.734V308.66L856.756 309.281L892.734 308.04ZM886.686 327.192L856.897 306.978L856.814 307.1L856.733 307.223L886.686 327.192ZM867.87 342.312L882.9 375.024L883.091 374.937L883.281 374.847L867.87 342.312ZM801.678 337.272L779.861 365.908L780.023 366.031L780.186 366.152L801.678 337.272ZM790.254 294.6L756.602 281.812L756.337 282.509L756.102 283.216L790.254 294.6ZM796.638 277.8L830.291 290.588L830.88 289.035L831.325 287.435L796.638 277.8ZM795.294 262.68L773.694 291.48L774.494 292.08L775.325 292.634L795.294 262.68ZM779.838 260.664V224.664H753.21L745.415 250.126L779.838 260.664ZM764.718 310.056L730.295 299.518L730.021 300.415L729.793 301.325L764.718 310.056ZM765.39 324.168L734.862 343.248L735.451 344.189L736.096 345.093L765.39 324.168ZM770.094 328.872L795.55 303.416L793.965 301.831L792.196 300.455L770.094 328.872ZM773.454 332.904L742.585 351.426L743.54 353.018L744.654 354.504L773.454 332.904ZM773.79 336.6L807.391 349.523L807.965 348.029L808.405 346.49L773.79 336.6ZM767.07 342.984L753.7 309.559L753.7 309.559L767.07 342.984ZM662.238 342.312L640.638 371.112L641.438 371.712L642.269 372.266L662.238 342.312ZM659.55 334.584L625.398 323.2L625.15 323.942L624.935 324.694L659.55 334.584ZM666.606 327.528L683.45 359.344L683.499 359.319L683.548 359.293L666.606 327.528ZM675.006 321.144L648.369 296.928L675.006 321.144ZM680.718 309.384L646.281 298.894L646.218 299.099L646.158 299.304L680.718 309.384ZM731.79 141.72L697.638 130.336L697.489 130.781L697.353 131.23L731.79 141.72ZM730.782 130.632L701.488 151.557L702.413 152.852L703.449 154.061L730.782 130.632ZM726.078 125.928L703.589 154.039L703.782 154.193L703.977 154.345L726.078 125.928ZM721.038 121.224L691.084 141.193L692.151 142.793L693.382 144.271L721.038 121.224ZM720.702 115.848L755.184 126.193L755.372 125.567L755.537 124.935L720.702 115.848ZM741.87 102.408L731.581 67.9096L731.581 67.9096L741.87 102.408ZM810.414 104.088L787.674 131.996L787.99 132.254L788.313 132.505L810.414 104.088ZM817.134 138.696L782.982 127.312L782.842 127.73L782.713 128.151L817.134 138.696ZM787.902 234.12L753.481 223.575L739.223 270.12H787.902V234.12ZM809.742 230.088L785.324 203.635L784.795 204.123L784.287 204.632L809.742 230.088ZM816.462 218.328L782.356 206.806L782.181 207.323L782.022 207.846L816.462 218.328ZM838.302 180.36L863.434 206.136L863.434 206.136L838.302 180.36ZM873.918 167.256V203.256C876.956 203.256 878.563 203.683 879.196 203.905C879.715 204.088 879.792 204.195 879.821 204.223L904.494 178.008L929.168 151.793C913.466 137.015 893.721 131.256 873.918 131.256V167.256ZM904.494 178.008L880.625 204.957C880.964 205.257 881.047 205.385 880.99 205.309C880.925 205.224 880.774 205.004 880.615 204.659C880.455 204.312 880.351 203.975 880.294 203.705C880.239 203.443 880.254 203.369 880.254 203.544H916.254H952.254C952.254 182.71 943.576 164.532 928.364 151.059L904.494 178.008ZM916.254 203.544H880.254C880.254 205.32 879.986 205.584 880.241 204.925C880.368 204.595 880.588 204.141 880.927 203.638C881.267 203.134 881.638 202.713 881.979 202.396L906.51 228.744L931.041 255.092C946.369 240.822 952.254 222.009 952.254 203.544H916.254ZM906.51 228.744L881.979 202.396C882.144 202.243 882.37 202.066 882.637 201.904C882.903 201.744 883.11 201.658 883.203 201.625C883.397 201.556 882.798 201.816 880.974 201.816V237.816V273.816C898.805 273.816 916.672 268.47 931.041 255.092L906.51 228.744ZM880.974 237.816V201.816C879.199 201.816 878.879 201.586 879.526 201.795C879.872 201.907 880.45 202.131 881.167 202.538C881.893 202.95 882.663 203.494 883.408 204.175L859.134 230.76L834.861 257.345C848.669 269.953 865.762 273.816 880.974 273.816V237.816ZM859.134 230.76L884.018 204.745C884.187 204.907 885.278 206.006 886.264 208.203C887.312 210.538 887.809 213.158 887.718 215.628L851.742 214.296L815.767 212.964C815.094 231.145 823.116 246.125 834.25 256.775L859.134 230.76ZM851.742 214.296L858.803 178.995C850.805 177.395 841.842 178.041 833.306 182.059C825.218 185.865 819.872 191.577 816.538 196.339L846.03 216.984L875.523 237.629C873.757 240.151 870.147 244.295 863.963 247.205C857.331 250.327 850.44 250.748 844.682 249.597L851.742 214.296ZM846.03 216.984L816.538 196.339C811.012 204.234 808.031 214.192 806.287 220.515L840.99 230.088L875.694 239.661C876.036 238.421 876.341 237.4 876.605 236.574C876.871 235.741 877.071 235.186 877.195 234.863C877.326 234.521 877.317 234.586 877.141 234.943C877.048 235.134 876.882 235.459 876.635 235.887C876.392 236.309 876.026 236.909 875.523 237.629L846.03 216.984ZM840.99 230.088L806.176 220.926C806.359 220.228 806.623 219.585 806.916 219.045C807.203 218.514 807.447 218.218 807.514 218.142L834.606 241.848L861.699 265.554C868.191 258.134 873.155 249.319 875.805 239.25L840.99 230.088ZM834.606 241.848L831.966 277.751C837.627 278.167 841.491 278.952 843.951 279.707C846.407 280.461 846.83 280.989 846.263 280.542L868.542 252.264L890.822 223.986C875.271 211.734 855.58 207.293 837.246 205.945L834.606 241.848ZM868.542 252.264L846.263 280.542C846.27 280.547 845.37 279.805 844.563 278.167C843.743 276.501 843.63 275.152 843.63 274.776H879.63H915.63C915.63 254.248 906.628 236.44 890.822 223.986L868.542 252.264ZM879.63 274.776H843.63C843.63 274.971 843.61 275.437 843.299 276.323L877.278 288.216L911.257 300.109C914.083 292.035 915.63 283.541 915.63 274.776H879.63ZM877.278 288.216L842.42 279.22L839.732 289.636L874.59 298.632L909.448 307.628L912.136 297.212L877.278 288.216ZM874.59 298.632L841.165 285.262C838.4 292.174 837.918 298.645 837.918 303H873.918H909.918C909.918 303.56 909.886 304.617 909.668 306.038C909.451 307.444 909.002 309.535 908.016 312.002L874.59 298.632ZM873.918 303H837.918C837.918 309.482 839.368 321.05 848.63 331.024C858.358 341.501 870.569 343.704 878.286 343.704V307.704V271.704C883.092 271.704 893.118 273.123 901.391 282.032C909.196 290.438 909.918 299.654 909.918 303H873.918ZM878.286 307.704V343.704C892.729 343.704 905.022 336.953 913.118 326.833L885.006 304.344L856.895 281.855C858.781 279.498 861.711 276.75 865.883 274.665C870.123 272.544 874.46 271.704 878.286 271.704V307.704ZM885.006 304.344L912.869 327.141C913.463 326.415 913.044 327.017 911.852 328.11C911.292 328.624 909.672 330.075 907.181 331.597C905.887 332.387 903.841 333.518 901.148 334.505C898.52 335.469 894.325 336.648 889.038 336.648V300.648V264.648C878.929 264.648 871.81 268.832 869.636 270.161C866.641 271.991 864.433 273.904 863.2 275.034C860.665 277.359 858.566 279.809 857.144 281.547L885.006 304.344ZM889.038 300.648V336.648C880.299 336.648 872.509 333.286 866.844 328.329C861.874 323.98 859.57 319.358 858.637 317.181L891.726 303L924.816 288.819C921.855 281.912 911.544 264.648 889.038 264.648V300.648ZM891.726 303L859.527 319.1C856.996 314.037 856.734 309.791 856.734 308.04H892.734H928.734C928.734 302.257 927.801 294.651 923.926 286.9L891.726 303ZM892.734 308.04L856.756 309.281C856.722 308.314 856.874 307.453 857.061 306.859C857.233 306.317 857.32 306.355 856.897 306.978L886.686 327.192L916.475 347.406C924.28 335.904 929.242 322.136 928.713 306.799L892.734 308.04ZM886.686 327.192L856.733 307.223C857.242 306.459 856.783 307.729 852.459 309.777L867.87 342.312L883.281 374.847C895.982 368.831 908.067 360.021 916.64 347.161L886.686 327.192ZM867.87 342.312L852.84 309.6C850.462 310.692 845.814 312.024 837.63 312.024V348.024V384.024C853.191 384.024 868.702 381.548 882.9 375.024L867.87 342.312ZM837.63 348.024V312.024C829.492 312.024 825.455 310.092 823.171 308.392L801.678 337.272L780.186 366.152C797.165 378.788 817.097 384.024 837.63 384.024V348.024ZM801.678 337.272L823.496 308.636C823.018 308.272 822.873 308.089 822.916 308.139C822.935 308.162 822.989 308.228 823.062 308.338C823.135 308.448 823.215 308.584 823.294 308.74C823.372 308.897 823.437 309.052 823.488 309.196C823.539 309.339 823.568 309.449 823.582 309.515C823.614 309.655 823.566 309.528 823.566 309.048H787.566H751.566C751.566 332.133 761.678 352.054 779.861 365.908L801.678 337.272ZM787.566 309.048H823.566C823.566 309.43 823.528 309.383 823.631 308.829C823.734 308.276 823.955 307.34 824.407 305.984L790.254 294.6L756.102 283.216C753.466 291.123 751.566 299.881 751.566 309.048H787.566ZM790.254 294.6L823.907 307.388L830.291 290.588L796.638 277.8L762.986 265.012L756.602 281.812L790.254 294.6ZM796.638 277.8L831.325 287.435C832.469 283.318 834.318 276.224 834.318 269.064H798.318H762.318C762.318 268.363 762.345 267.787 762.374 267.362C762.403 266.932 762.438 266.594 762.466 266.362C762.519 265.918 762.562 265.709 762.546 265.793C762.533 265.864 762.485 266.098 762.383 266.521C762.282 266.938 762.142 267.481 761.952 268.165L796.638 277.8ZM798.318 269.064H834.318C834.318 256.905 829.413 242.159 815.264 232.726L795.294 262.68L775.325 292.634C771.069 289.797 767.401 285.705 765.028 280.695C762.775 275.94 762.318 271.706 762.318 269.064H798.318ZM795.294 262.68L816.894 233.88C805.58 225.394 792.899 224.664 786.558 224.664V260.664V296.664C786.728 296.664 785.608 296.693 783.671 296.246C781.787 295.811 777.916 294.646 773.694 291.48L795.294 262.68ZM786.558 260.664V224.664H779.838V260.664V296.664H786.558V260.664ZM779.838 260.664L745.415 250.126L730.295 299.518L764.718 310.056L799.142 320.594L814.262 271.202L779.838 260.664ZM764.718 310.056L729.793 301.325C728.653 305.886 727.71 311.288 727.71 317.112H763.71H799.71C799.71 318.076 799.632 318.706 799.601 318.927C799.568 319.157 799.56 319.123 799.643 318.787L764.718 310.056ZM763.71 317.112H727.71C727.71 324.316 729.057 333.959 734.862 343.248L765.39 324.168L795.918 305.088C799.484 310.793 799.71 315.732 799.71 317.112H763.71ZM765.39 324.168L736.096 345.093C739.774 350.241 744.065 354.234 747.992 357.289L770.094 328.872L792.196 300.455C792.201 300.459 792.263 300.507 792.373 300.603C792.482 300.699 792.65 300.852 792.862 301.064C793.276 301.478 793.935 302.194 794.685 303.243L765.39 324.168ZM770.094 328.872L744.639 354.328C744.846 354.535 744.746 354.452 744.454 354.103C744.199 353.796 743.46 352.884 742.585 351.426L773.454 332.904L804.324 314.382C801.448 309.589 797.971 305.836 795.55 303.416L770.094 328.872ZM773.454 332.904L744.654 354.504C735.891 342.819 738.007 330.801 739.175 326.71L773.79 336.6L808.405 346.49C810.47 339.263 812.362 324.781 802.254 311.304L773.454 332.904ZM773.79 336.6L740.19 323.677C741.53 320.192 743.679 316.937 746.475 314.28C749.18 311.711 751.856 310.297 753.7 309.559L767.07 342.984L780.44 376.409C791.474 371.996 802.089 363.307 807.391 349.523L773.79 336.6ZM767.07 342.984L753.7 309.559C754.807 309.116 755.596 308.911 755.918 308.835C756.253 308.756 756.314 308.761 756.03 308.798C755.755 308.834 755.254 308.887 754.489 308.929C753.73 308.972 752.778 309 751.614 309V345V381C759.715 381 770.514 380.38 780.44 376.409L767.07 342.984ZM751.614 345V309H675.006V345V381H751.614V345ZM675.006 345V309C673.805 309 673.891 308.896 674.863 309.1C675.757 309.288 678.671 310 682.208 312.358L662.238 342.312L642.269 372.266C653.961 380.06 667.027 381 675.006 381V345ZM662.238 342.312L683.838 313.512C686.886 315.798 691.151 320.139 693.552 327.041C695.986 334.038 695.347 340.339 694.165 344.474L659.55 334.584L624.935 324.694C622.858 331.965 622.219 341.122 625.548 350.695C628.845 360.173 634.903 366.81 640.638 371.112L662.238 342.312ZM659.55 334.584L693.703 345.968C690.462 355.692 683.666 359.23 683.45 359.344L666.606 327.528L649.762 295.712C641.93 299.858 630.431 308.1 625.398 323.2L659.55 334.584ZM666.606 327.528L683.548 359.293C690.033 355.834 696.261 351.282 701.644 345.36L675.006 321.144L648.369 296.928C649.272 295.934 649.899 295.638 649.665 295.763L666.606 327.528ZM675.006 321.144L701.644 345.36C709.261 336.982 713.089 326.969 715.278 319.464L680.718 309.384L646.158 299.304C645.79 300.568 645.593 300.913 645.732 300.627C645.813 300.46 646.032 300.032 646.427 299.422C646.822 298.814 647.45 297.938 648.369 296.928L675.006 321.144ZM680.718 309.384L715.156 319.874L766.228 152.21L731.79 141.72L697.353 131.23L646.281 298.894L680.718 309.384ZM731.79 141.72L765.943 153.104C767.214 149.291 768.798 143.469 768.798 136.68H732.798H696.798C696.798 134.439 697.068 132.773 697.245 131.888C697.43 130.966 697.609 130.423 697.638 130.336L731.79 141.72ZM732.798 136.68H768.798C768.798 127.362 766.089 116.506 758.116 107.203L730.782 130.632L703.449 154.061C698.164 147.894 696.798 141.07 696.798 136.68H732.798ZM730.782 130.632L760.077 109.707C756.399 104.559 752.108 100.566 748.18 97.5113L726.078 125.928L703.977 154.345C703.972 154.341 703.91 154.293 703.8 154.197C703.691 154.101 703.523 153.948 703.311 153.736C702.897 153.322 702.237 152.606 701.488 151.557L730.782 130.632ZM726.078 125.928L748.567 97.8167C748.291 97.5953 748.081 97.421 747.932 97.2928C747.781 97.1636 747.709 97.0965 747.702 97.09C747.693 97.0819 747.777 97.1599 747.933 97.3221C748.086 97.4813 748.353 97.7675 748.694 98.1773L721.038 121.224L693.382 144.271C696.714 148.269 700.495 151.564 703.589 154.039L726.078 125.928ZM721.038 121.224L750.992 101.255C758.339 112.275 756.168 122.913 755.184 126.193L720.702 115.848L686.221 105.503C683.893 113.263 681.946 127.485 691.084 141.193L721.038 121.224ZM720.702 115.848L755.537 124.935C754.213 130.01 751.798 133.61 749.913 135.771C748.113 137.836 746.612 138.817 746.299 139.016C745.877 139.284 747.308 138.353 752.159 136.906L741.87 102.408L731.581 67.9096C723.665 70.2708 715.184 73.4843 707.706 78.2323C700.695 82.6836 689.845 91.5148 685.868 106.761L720.702 115.848ZM741.87 102.408L752.159 136.906C761.449 134.136 771.302 132.696 781.854 132.696V96.696V60.696C764.63 60.696 747.828 63.0643 731.581 67.9096L741.87 102.408ZM781.854 96.696V132.696C786.218 132.696 788.672 133.125 789.718 133.396C790.725 133.656 789.574 133.544 787.674 131.996L810.414 104.088L833.155 76.1795C817.624 63.5253 798.063 60.696 781.854 60.696V96.696ZM810.414 104.088L788.313 132.505C787.019 131.498 785.514 129.805 784.483 127.552C783.506 125.418 783.486 123.948 783.486 123.912H819.486H855.486C855.486 105.7 848.389 88.0165 832.516 75.6713L810.414 104.088ZM819.486 123.912H783.486C783.486 125.347 783.279 126.421 782.982 127.312L817.134 138.696L851.287 150.08C854.126 141.563 855.486 132.781 855.486 123.912H819.486ZM817.134 138.696L782.713 128.151L753.481 223.575L787.902 234.12L822.323 244.664L851.555 149.24L817.134 138.696ZM787.902 234.12V270.12H798.99V234.12V198.12H787.902V234.12ZM798.99 234.12V270.12C811.184 270.12 824.564 266.178 835.198 255.544L809.742 230.088L784.287 204.632C786.602 202.316 789.412 200.524 792.398 199.404C795.273 198.326 797.635 198.12 798.99 198.12V234.12ZM809.742 230.088L834.16 256.541C843.166 248.228 848.115 237.969 850.903 228.81L816.462 218.328L782.022 207.846C781.674 208.991 782.143 206.572 785.324 203.635L809.742 230.088ZM816.462 218.328L850.569 229.85C855.029 216.646 859.844 209.636 863.434 206.136L838.302 180.36L813.171 154.584C798.84 168.556 789.095 186.857 782.356 206.806L816.462 218.328ZM838.302 180.36L863.434 206.136C864.468 205.127 866.699 203.256 873.918 203.256V167.256V131.256C851.569 131.256 830.056 138.121 813.171 154.584L838.302 180.36Z" fill="black" mask="url(#path-1-outside-1_80_45)"/>
</svg>
